<?xml version="1.0" standalone="no"?>
<!DOCTYPE svg PUBLIC "-//W3C//DTD SVG 1.1//EN" "http://www.w3.org/Graphics/SVG/1.1/DTD/svg11.dtd" >
<svg xmlns="http://www.w3.org/2000/svg" xmlns:xlink="http://www.w3.org/1999/xlink" version="1.1">
<metadata>
Created by FontForge 20170924 at Wed Mar  2 11:55:09 2011
 By www-data
Painted (c) Heather Taylor. 2011. All Rights Reserved
</metadata>
<defs>
<font id="Painted" horiz-adv-x="1014" >
  <font-face 
    font-family="Painted"
    font-weight="400"
    font-stretch="normal"
    units-per-em="2048"
    panose-1="3 6 5 2 4 0 0 0 0 4"
    ascent="1638"
    descent="-410"
    x-height="1109"
    cap-height="1535"
    bbox="-344 -818 1882 1699"
    underline-thickness="150"
    underline-position="-292"
    unicode-range="U+0020-F002"
  />
<missing-glyph horiz-adv-x="1024" 
d="M100 0v1434h824v-1434h-824zM150 50h724v1334h-724v-1334zM325 1148q31 28 58 43q53 30 112 30q92 0 148 -47.5t56 -127.5q0 -49 -23 -98.5t-87 -129.5q-63 -80 -99 -132t-36 -99q0 -38 24 -133h-32q-35 97 -35 148q0 76 81.5 218t81.5 217q0 57 -33 90t-91 33
q-38 0 -69 -17q-26 -15 -56 -40v45zM389 334l57 58q11 10 20 10q10 0 22 -11l56 -60q9 -11 9 -20q0 -11 -10 -22l-56 -62q-14 -14 -21 -14q-11 0 -20 10l-61 71q-7 9 -7 18q0 10 11 22z" />
    <glyph glyph-name=".notdef" horiz-adv-x="1024" 
d="M100 0v1434h824v-1434h-824zM150 50h724v1334h-724v-1334zM325 1148q31 28 58 43q53 30 112 30q92 0 148 -47.5t56 -127.5q0 -49 -23 -98.5t-87 -129.5q-63 -80 -99 -132t-36 -99q0 -38 24 -133h-32q-35 97 -35 148q0 76 81.5 218t81.5 217q0 57 -33 90t-91 33
q-38 0 -69 -17q-26 -15 -56 -40v45zM389 334l57 58q11 10 20 10q10 0 22 -11l56 -60q9 -11 9 -20q0 -11 -10 -22l-56 -62q-14 -14 -21 -14q-11 0 -20 10l-61 71q-7 9 -7 18q0 10 11 22z" />
    <glyph glyph-name=".null" horiz-adv-x="0" 
 />
    <glyph glyph-name="nonmarkingreturn" horiz-adv-x="508" 
 />
    <glyph glyph-name="space" unicode=" " horiz-adv-x="508" 
 />
    <glyph glyph-name="space" unicode="&#xa0;" horiz-adv-x="508" 
 />
    <glyph glyph-name="exclam" unicode="!" horiz-adv-x="615" 
d="M320 1412q87 -19 123 -60q25 -46 29 -85h-4l4 -5q-5 -77 -16 -77q0 -3 4 -3q-71 -244 -83 -244q-12 -41 -37 -93q0 -5 -16 -51l4 -6q-16 -29 -16 -34q4 -15 4 -17q-8 -18 -25 -85l4 -6l-16 -48q0 -3 4 -3l-4 -20l4 -14h-4l4 -5q-8 -10 -8 -15l4 -25q-9 -9 -9 -17l5 -14
h-5l5 -6l-5 -17h-8v20q-8 8 -12 20q4 5 4 11v6q0 5 -8 5q-4 -3 -4 -19l-13 5l-8 -8v-6q12 0 12 -6q0 -17 -12 -34q10 0 12 -14q-6 0 -12 -17q-8 3 -12 3v3l4 14h-8v3q0 10 -4 25l4 6q-21 67 -25 139h4l-4 6v34q0 13 -4 28q4 11 4 26v2q0 9 -4 9l4 14v88q0 3 4 3q0 3 -4 3
q6 51 12 51l-4 5q15 111 25 111l-4 6l37 192l62 213q4 0 12 3zM233 666v-3h9v3h-9zM250 598q0 -3 -4 -8l8 -3v11h-4zM209 578v-3h4q8 0 8 6v3h-4q-8 -1 -8 -6zM196 564v-11h9v11h-9zM246 558v-8h4v8h-4zM225 544v-5h4v5h-4zM229 519v-6h4v6h-4zM262 456h4q9 -1 9 -5v-9h-9z
M221 422q7 0 12 -17q-4 -5 -4 -11h-8v28zM225 363h8v-6h-8v6zM254 195q49 -13 49 -28q-4 0 -4 -3q7 0 17 -20q-39 -26 -58 -85q-25 0 -41 -65q-15 -28 -21 -28h-12l-8 3q0 -15 -29 -20q0 3 -4 3l4 14q0 1 -4 37h4l-4 5v20q0 10 4 14l-4 12q0 56 33 124q20 0 37 12
q15 -6 33 -6h4l-4 6q1 5 8 5zM192 -46h9v-2q-5 -6 -5 -9h-4v11z" />
    <glyph glyph-name="quotedbl" unicode="&#x22;" horiz-adv-x="746" 
d="M252 1609q50 0 72 -60q11 -1 11 -9v-9q0 -17 -5 -42q11 -18 11 -32q-27 -131 -50 -142q-83 -97 -83 -221v-37q0 -6 -17 -14l-11 5q-6 -8 -6 -23h-11q-53 0 -72 248q16 19 22 97q6 0 6 4l-6 28q17 64 45 87q-17 0 -17 5q11 41 11 60v4l-5 23l11 5l16 -9q39 14 39 23l11 4
h6l11 -4q2 9 11 9zM531 1613q50 0 72 -60q11 -1 11 -9v-9q0 -17 -5 -42q11 -18 11 -32q-27 -131 -50 -142q-83 -97 -83 -221v-37q0 -6 -17 -14l-11 5q-6 -8 -6 -23h-11q-53 0 -72 248q16 19 22 97q6 0 6 4l-6 28q17 64 45 87q-17 0 -17 5q11 41 11 60v4l-5 23l11 5l16 -9
q39 14 39 23l11 4h6l11 -4q2 9 11 9z" />
    <glyph glyph-name="ampersand" unicode="&#x26;" horiz-adv-x="1058" 
d="M508 1376v-4l9 4q34 0 88 -178h8q120 133 172 161q0 3 26 17h31q44 -8 44 -42q0 -24 -9 -47q9 -14 9 -21q-9 -25 -31 -34l-9 4q0 -9 -9 -9l-22 5q-22 -16 -22 -26h-13l-9 4q-7 -22 -52 -38q0 -14 -70 -64l-27 -46h-4l-9 4q-16 -20 -40 -34v-4h-4q-9 0 -9 13q-6 0 -13 -17
h13v-5q0 -6 -17 -17h-9v5l4 8h-4q-7 0 -18 -17v-13h9q-34 -29 -123 -131h-4v-17h13q82 0 294 89q35 4 57 21h27q4 0 4 -4l22 13h13q4 0 4 -5l9 5q88 0 106 -90q0 -17 4 -34q-14 -76 -53 -76q-52 -34 -127 -59q-2 -13 -75 -51q-83 -53 -118 -64q-126 -80 -281 -221
q0 -10 -79 -81q-40 -49 -40 -55q9 -37 136 -42q100 0 246 46l27 -4q125 25 298 128h9q-44 -36 -44 -47q-23 -28 -48 -43q-42 -51 -97 -89q-4 -7 -4 -21q0 -13 4 -30q-4 -22 -4 -42v-9l4 -21h-4l4 -8q0 -5 -4 -5l4 -8q0 -10 -4 -17q4 -36 13 -64q-4 -23 -4 -34q8 -27 8 -38
v-21l-8 -13q0 -15 17 -85h-4q-6 0 -84 132q-62 83 -105 182q-16 0 -26 9q-53 -17 -53 -21l-22 4h-4l-14 -9q-8 5 -13 5t-22 -22l-17 9q-7 -17 -13 -17h-5v8l5 9h-18q0 -17 -9 -17q-4 8 -4 13h-26q0 -17 -9 -17h-22q-10 0 -18 4q-14 -9 -26 -9v13h-13q0 -13 -9 -13h-4
q-9 0 -9 9q-15 -9 -27 -9h-17q-12 14 -44 22q0 3 -48 25q-27 47 -31 72q65 136 97 145q124 145 171 191q88 85 316 280l9 13l-18 12l-22 -4q0 9 -9 9l-17 -17h-9l-13 8q-4 0 -13 -13q-14 5 -14 9q-35 -5 -57 -13l-8 4l-53 -38h-4q-5 0 -5 4q-27 -8 -35 -8q0 4 -4 4
q0 -8 -9 -8t-9 8q9 0 9 9v4l-66 21q0 8 -9 21q0 41 145 166q67 78 114 123q40 45 40 60q-19 12 -70 119q-18 0 -31 59q0 9 22 9v8l-13 21q0 19 61 30zM609 794v-8h9q0 8 -9 8zM363 747l-9 -12h5q7 4 17 4v4q-4 0 -13 4zM802 293v-4q2 -9 9 -9q6 0 13 13v4zM732 242
q9 -1 9 -8l-5 -9h5q7 0 17 17v9h-17q-9 -2 -9 -9zM719 221l-5 -17q9 0 9 13v4h-4zM363 68v-8q9 0 9 8h-9zM714 -153q7 0 14 -13v-17q-14 5 -14 26v4z" />
    <glyph glyph-name="quotesingle" unicode="'" horiz-adv-x="439" 
d="M252 1609q50 0 72 -60q11 -1 11 -9v-9q0 -17 -5 -42q11 -18 11 -32q-27 -131 -50 -142q-83 -97 -83 -221v-37q0 -6 -17 -14l-11 5q-6 -8 -6 -23h-11q-53 0 -72 248q16 19 22 97q6 0 6 4l-6 28q17 64 45 87q-17 0 -17 5q11 41 11 60v4l-5 23l11 5l16 -9q39 14 39 23l11 4
h6l11 -4q2 9 11 9z" />
    <glyph glyph-name="asterisk" unicode="*" horiz-adv-x="1024" 
d="M498 1294q-4 71 -37 130q-37 66 -37 84q0 32 23.5 51.5t62.5 19.5q37 0 61.5 -18t24.5 -47q0 -21 -36 -89q-33 -61 -37 -130q66 25 113 75q51 55 69 61q11 3 21 3q18 0 35 -10q26 -17 38 -53q6 -19 6 -36q0 -15 -4 -28q-10 -30 -38 -38q-6 -2 -19 -2q-25 0 -76 9
q-28 5 -55 5q-41 0 -81 -11q44 -55 105 -83q68 -32 79 -47q13 -18 13 -38q0 -9 -2 -17q-8 -30 -39 -53q-29 -22 -59 -22q-1 0 -1 1q-31 0 -48 23q-12 17 -22 94q-10 67 -47 125q-38 -58 -46 -124q-9 -75 -20 -90q-19 -25 -49 -27h-5q-28 0 -57 21q-30 21 -39 51q-4 10 -4 20
q0 17 11 32q13 17 83 51q61 29 105 82q-41 11 -80 11q-27 0 -53 -5q-54 -11 -78 -11q-9 0 -14 2q-30 9 -41 38q-6 13 -6 29q0 17 6 36q11 35 36 53q17 12 34 12q9 0 18 -3q20 -6 74 -62q47 -49 112 -75z" />
    <glyph glyph-name="plus" unicode="+" horiz-adv-x="1111" 
d="M361 1136h4q33 0 96 -52q22 -19 36 -52q14 0 32 -104l-4 -20q8 -13 8 -24v-24l4 -48h-4l4 -8v-32q43 -5 52 -8l16 4q147 0 448 -72q4 0 4 4q40 0 40 -20l20 16h4q10 -8 16 -8q0 -32 -64 -32q0 -6 -40 -20l-8 4q-28 -8 -48 -8h-44l-12 -8h-20q-126 -12 -220 -12v4
q-8 -4 -12 -4q-19 0 -124 -4q-8 -15 -8 -32v-40l-12 -20q8 -1 8 -8v-8q-12 -100 -20 -100h-4v12h-4q0 -8 -4 -8l4 -8l-12 -16q4 -35 4 -40q0 -9 -24 -16q0 -6 -8 -16v-36h-4l-8 4l-4 -8v-12l8 4h4v-4l-4 -8l-8 4h-4v-8l4 -20q-7 0 -20 -52l4 -8v-4h-8v4q0 133 -48 444
q-65 0 -264 48q-80 49 -80 84v20q0 35 40 52v20q1 8 8 8q9 0 16 -4q7 4 16 4q20 -64 100 -64h20q4 0 4 -4q4 0 4 4q45 -5 68 -12l8 4l8 -4l8 4l24 -4l4 8v112q0 9 4 16l-4 8q8 81 8 172q0 27 -16 44v4q1 8 8 8zM757 736v-12h12v12h-12zM1153 692q8 -1 8 -8q0 -8 -8 -8h-4
q4 7 4 16zM1069 684v-4q8 0 8 -4q-4 -8 -4 -12q8 0 8 8v4q0 8 -8 8h-4zM1017 672v-8h4v8h-4zM509 388h8v-12h-8v12zM473 356v-12q4 0 12 -4v8q0 8 -8 8h-4z" />
    <glyph glyph-name="comma" unicode="," horiz-adv-x="557" 
d="M296 162q50 0 72 -60q11 -1 11 -9v-9q0 -17 -5 -42q11 -18 11 -32q-27 -131 -50 -142q-83 -97 -83 -221v-37q0 -6 -17 -14l-11 5q-6 -8 -6 -23h-11q-53 0 -72 248q16 19 22 97q6 0 6 4l-6 28q17 64 45 87q-17 0 -17 5q11 41 11 60v4l-5 23l11 5l16 -9q39 14 39 23l11 4h6
l11 -4q2 9 11 9z" />
    <glyph glyph-name="hyphen" unicode="-" horiz-adv-x="894" 
d="M81 681h5q0 -12 21 -12h6l15 4v-4l5 4h30l29 4v-4l6 4h15q3 0 3 -4l6 4h56q2 0 2 -4q6 4 9 4q16 -4 18 -4q3 0 3 4q48 -5 79 -12q3 0 3 4q127 -12 147 -16l6 4l41 -8l6 4q6 -4 9 -4v-16l-3 -8h6q3 24 9 24h14l15 -4v-4l-3 -20q7 0 12 -4l3 8v4l-6 12l6 4l12 -4h17
q-3 -21 -3 -24v-4h3q6 28 12 28q3 -7 3 -20l15 4v4h-12q3 12 18 12q5 -1 5 -8l-3 -8h3l9 8l9 -8q0 12 6 12l15 -4v-12h-3q-6 4 -9 4l-15 -16q3 0 3 -4q-6 -4 -9 -4q-5 4 -9 4v-28h-8v4l3 20q-6 0 -6 8q3 0 3 4q-3 0 -9 4q-6 -24 -15 -24h-9v-16h-3q-5 0 -5 8q2 8 2 12l-5 4
h-6l-9 -8h-6l-6 4q-8 -28 -12 -28l-3 8v20q-3 0 -8 4q0 -8 -6 -8h-15q0 -24 -6 -24q-4 23 -9 32q3 0 3 4h-3q-4 0 -11 -20l5 -4q-4 -16 -8 -16q-3 8 -3 12h-6l-9 -8l-18 4q0 -8 -6 -8q-5 0 -5 8l-21 -4h-3l-6 4q0 -12 -6 -12h-3q0 10 -6 20l3 8h-3l-5 -4l3 -8q0 -14 -33 -20
q0 8 -6 8q-5 -4 -11 -4v4q-11 -8 -24 -8l-6 20q3 8 3 12l-6 4l-3 -8v-4q0 -4 3 -4q0 -24 -35 -24l-15 4q-2 0 -38 -4v4q-4 -4 -38 -8l-6 4l-6 -4q-6 0 -6 4l-20 -4h-42q-10 0 -26 4q-12 -8 -21 -8l-6 4q-25 -8 -29 -8q-31 0 -47 92v4q0 21 15 28q1 16 9 16zM116 657v-8h3v8
h-3zM363 649v-4h6q6 0 6 8l-6 4q-6 -1 -6 -8zM222 649q1 -8 6 -8v8h-6zM477 637l-2 -8l5 -4h3v4q0 8 -6 8zM613 633v-4h6v4h-6zM660 633v-8q6 0 6 -12h6q-9 13 -9 20h-3zM783 633q6 -1 6 -8l12 8l3 -8v-8l-15 4q0 -4 -3 -4l-3 8v8zM110 625v-12h3v12h-3zM301 617v-4
q5 4 12 4v8h-6q-6 -1 -6 -8zM454 601v-8q6 0 6 8h-6zM760 605q6 -1 6 -8h-6v8zM824 601l3 -8l-6 -4h-8v8q6 0 11 4zM307 593l-3 -8v-8h3q7 8 12 8v4q-7 0 -12 4zM345 593v-16l21 -4l3 8v4l-3 8l-15 -4zM792 597h12q0 -8 -6 -8t-6 8zM260 589v-8h15q0 8 -6 8h-9zM489 589v-8
h3v8h-3zM513 589v-8h6v8h-6zM554 589v-8q6 0 6 8h-6zM427 577h3q6 0 6 8h-3q-6 -1 -6 -8zM751 589h9v-8h-3q-6 0 -6 8zM151 581v-8h3v8h-3z" />
    <glyph glyph-name="hyphen" unicode="&#xad;" horiz-adv-x="894" 
d="M81 681h5q0 -12 21 -12h6l15 4v-4l5 4h30l29 4v-4l6 4h15q3 0 3 -4l6 4h56q2 0 2 -4q6 4 9 4q16 -4 18 -4q3 0 3 4q48 -5 79 -12q3 0 3 4q127 -12 147 -16l6 4l41 -8l6 4q6 -4 9 -4v-16l-3 -8h6q3 24 9 24h14l15 -4v-4l-3 -20q7 0 12 -4l3 8v4l-6 12l6 4l12 -4h17
q-3 -21 -3 -24v-4h3q6 28 12 28q3 -7 3 -20l15 4v4h-12q3 12 18 12q5 -1 5 -8l-3 -8h3l9 8l9 -8q0 12 6 12l15 -4v-12h-3q-6 4 -9 4l-15 -16q3 0 3 -4q-6 -4 -9 -4q-5 4 -9 4v-28h-8v4l3 20q-6 0 -6 8q3 0 3 4q-3 0 -9 4q-6 -24 -15 -24h-9v-16h-3q-5 0 -5 8q2 8 2 12l-5 4
h-6l-9 -8h-6l-6 4q-8 -28 -12 -28l-3 8v20q-3 0 -8 4q0 -8 -6 -8h-15q0 -24 -6 -24q-4 23 -9 32q3 0 3 4h-3q-4 0 -11 -20l5 -4q-4 -16 -8 -16q-3 8 -3 12h-6l-9 -8l-18 4q0 -8 -6 -8q-5 0 -5 8l-21 -4h-3l-6 4q0 -12 -6 -12h-3q0 10 -6 20l3 8h-3l-5 -4l3 -8q0 -14 -33 -20
q0 8 -6 8q-5 -4 -11 -4v4q-11 -8 -24 -8l-6 20q3 8 3 12l-6 4l-3 -8v-4q0 -4 3 -4q0 -24 -35 -24l-15 4q-2 0 -38 -4v4q-4 -4 -38 -8l-6 4l-6 -4q-6 0 -6 4l-20 -4h-42q-10 0 -26 4q-12 -8 -21 -8l-6 4q-25 -8 -29 -8q-31 0 -47 92v4q0 21 15 28q1 16 9 16zM116 657v-8h3v8
h-3zM363 649v-4h6q6 0 6 8l-6 4q-6 -1 -6 -8zM222 649q1 -8 6 -8v8h-6zM477 637l-2 -8l5 -4h3v4q0 8 -6 8zM613 633v-4h6v4h-6zM660 633v-8q6 0 6 -12h6q-9 13 -9 20h-3zM783 633q6 -1 6 -8l12 8l3 -8v-8l-15 4q0 -4 -3 -4l-3 8v8zM110 625v-12h3v12h-3zM301 617v-4
q5 4 12 4v8h-6q-6 -1 -6 -8zM454 601v-8q6 0 6 8h-6zM760 605q6 -1 6 -8h-6v8zM824 601l3 -8l-6 -4h-8v8q6 0 11 4zM307 593l-3 -8v-8h3q7 8 12 8v4q-7 0 -12 4zM345 593v-16l21 -4l3 8v4l-3 8l-15 -4zM792 597h12q0 -8 -6 -8t-6 8zM260 589v-8h15q0 8 -6 8h-9zM489 589v-8
h3v8h-3zM513 589v-8h6v8h-6zM554 589v-8q6 0 6 8h-6zM427 577h3q6 0 6 8h-3q-6 -1 -6 -8zM751 589h9v-8h-3q-6 0 -6 8zM151 581v-8h3v8h-3z" />
    <glyph glyph-name="period" unicode="." horiz-adv-x="557" 
d="M310 179q5 -5 5 -20h6l27 3v-7q-16 0 -16 -7v-3q30 -41 44 -82q0 -43 -83 -96q-19 0 -39 -24q-18 0 -44 -48q6 0 6 -3q-15 0 -23 -27v-14h-11v41q-11 0 -16 -41q-15 0 -17 -17h-11q0 4 6 34q-11 18 -17 75l6 7l-6 21v13q11 9 11 14l-5 24h5l-5 7l16 20v21q21 0 33 34
l-5 7q0 12 44 48q33 11 33 17z" />
    <glyph glyph-name="zero" unicode="0" horiz-adv-x="841" 
d="M593 1376q56 -27 56 -33v-9l-10 -14v-10l10 5l5 -9q-10 -2 -10 -10l10 -19q0 -4 -5 -4q5 -45 30 -108v-14q15 -3 15 -38q10 0 10 9q-5 10 -5 14h10l6 -32l-11 -5l-10 5v-10q2 -14 36 -28q5 -8 5 -19q-10 -1 -10 -9v-14q0 -7 15 -14q-8 -19 -15 -19q0 5 -5 5l-5 -10v-4h5
q9 4 15 4q15 -52 15 -98l-10 -5h-15q-5 -14 -10 -14q0 -9 30 -24v-47l-20 -23l5 -47l-10 -5l-16 10h-5v-10l16 -19v-14h-6l-10 5q0 -5 -5 -5q-5 9 -5 14q-10 -1 -10 -9l5 -23l25 4h6q-20 -84 -31 -84q-10 4 -15 4l-5 -9v-19l10 5q0 -5 5 -5q-5 -7 -5 -28h-5l-15 9h-5
q-10 -1 -10 -9v-14q20 0 20 -19l-5 -9q5 -9 5 -14q-24 -78 -41 -94l5 -10v-9q-9 0 -25 -9l5 -10q-14 -40 -25 -42q0 9 -10 9l-5 -9v-5h15v-9q0 -5 -5 -5l5 -9v-5q-29 -12 -36 -66q-37 -23 -66 -61q-149 -150 -309 -150q-73 23 -147 146q5 8 5 18v5q-21 0 -25 132
q0 225 228 652q99 147 188 230q167 157 167 179q0 14 10 14zM623 1249v-23h16l-6 23h-10zM583 1235q0 -28 -10 -28h-5v19q-11 -2 -11 -10q6 -8 6 -18h-31v-29q0 -14 -20 -14q-10 5 -15 5v-5q0 -10 5 -19q-26 -25 -26 -32q0 -21 -30 -29l5 -9l-5 -19q5 -9 5 -14q-9 -5 -20 -5
v-23q-31 -32 -31 -38l5 -9q-5 -8 -5 -19h-5l-15 10h-5l15 -19q-64 -132 -81 -132v-9q0 -29 -30 -61q5 -9 5 -14q-31 -7 -31 -57v-4q-20 0 -20 -10v-32h-5l-10 4q0 -4 -5 -4l5 -10v-23q-30 -19 -30 -24v-5l10 -14q0 -4 -21 -14l5 -23q-10 -2 -10 -10l5 -9q-30 -76 -30 -99
q-10 -1 -10 -9q10 0 10 -14q0 -10 -5 -52q5 -9 5 -14l-10 -5l-10 5v-5l25 -28l-5 -9q10 -17 10 -38h-5q24 -42 51 -42h25v-14h10q17 12 86 33q0 4 41 28h5l10 -5q0 9 36 33q0 17 20 24q0 15 35 33q5 35 56 93q0 19 51 104q0 38 30 80q0 18 41 136q26 113 35 131l-5 24v5
q0 2 20 23l-10 14v14q0 11 5 19q-15 16 -20 94q20 4 20 9q-23 39 -45 104q-19 0 -46 70zM644 1202q0 -4 -5 -4q10 -24 10 -33h5v28q0 9 -10 9zM400 1005v-9h5v9h-5zM715 939v-4q5 -29 15 -29v19q-10 0 -10 14h-5zM355 906v-9h5v9h-5zM704 845v-18l16 -19q9 4 15 4
q-15 31 -31 33zM715 784v-9h5v9h-5zM228 690l10 -4v14q-10 -2 -10 -10zM633 615v-9h6v9h-6zM618 517q-5 -25 -5 -29l10 -4h16v18q0 7 -16 15h-5zM127 380v-9h5v9h-5zM117 348v-15h10v5q0 10 -10 10zM537 286v-14h15v5q0 9 -10 9h-5zM486 254q0 -10 -10 -10q5 -8 5 -23h11
q0 3 5 28zM426 178l-5 -9v-5h5q10 0 10 10zM400 136v-5h10v5h-10z" />
    <glyph glyph-name="one" unicode="1" horiz-adv-x="480" 
d="M277 1285h13q70 0 79 -67v-22q0 -5 -7 -5l7 -9q0 -10 -7 -18q0 -4 7 -4q-20 -150 -40 -193q7 -8 7 -13q-20 -14 -33 -121h-13v-36q-16 -70 -33 -98q7 -8 7 -18q-22 -64 -33 -67q0 -16 6 -40q-20 -32 -20 -36q7 -8 7 -18q-13 -12 -39 -121q-7 0 -7 -13l7 -18
q-20 -35 -20 -45v-18h-20v-9l13 -13q-18 -22 -26 -98q-10 0 -20 -14q9 0 20 -13l-13 -18q6 0 6 -5q-10 0 -33 -102l7 -9q0 -9 -13 -9h-7q0 13 -13 13h-7q-6 -28 -19 -54q6 -7 6 -17q-8 -41 -20 -41l7 -9q-13 -46 -13 -49l6 -9q-13 -15 -13 -27v-31h-13v4q0 47 13 94
q-6 18 -6 36l13 32q0 3 -7 35q0 12 27 54q-14 0 -14 9v18q0 6 66 36v4q0 9 -13 9h-13l-33 -4l-7 8q20 39 20 41l-6 44l19 23q-13 15 -13 27v22q2 9 13 9l-6 31q46 202 79 416q-7 9 -7 14l112 434q18 98 40 98zM145 769q0 -13 -7 -13q7 -9 7 -13h7l6 22v4h-13zM125 702v-13
q0 -7 20 -14q15 0 20 23q-7 0 -7 4l-13 -4q-13 4 -20 4zM112 675v-17h7q0 4 6 13zM125 635q7 -8 7 -13h20v22h-7q-20 -4 -20 -9zM112 577v-13q2 -9 13 -9h20q-5 26 -13 26q-13 -4 -20 -4zM112 546q0 -8 -13 -23h13l7 18v5h-7zM125 510v-13h7v13h-7zM92 497v-9h20v9h-20z
M105 412v-14h7l7 22q-14 -1 -14 -8zM79 389q7 -9 7 -13l13 4q-7 9 -7 14zM79 367q0 -7 -13 -18q0 -7 26 -14v9l-6 23h-7zM99 362v-9h6v9h-6zM59 286v-18h13q10 0 20 14v18h-13q-9 0 -20 -14zM53 264v-14q13 0 13 9v5h-13zM79 215h7v-32h-14l-6 27z" />
    <glyph glyph-name="two" unicode="2" 
d="M716 1330q13 0 25 -24q0 -143 -71 -298q-13 -33 -25 -33v-14q0 -18 -66 -95q-36 -78 -82 -113q-18 -13 -86 -119q-11 -6 -71 -109q-15 -10 -96 -146q-21 0 -21 -38h-20v14h-5q0 -5 -5 -14h10v-19q-32 -63 -66 -104q-5 9 -5 14q-10 -2 -10 -10q0 -22 66 -28q24 10 106 28
h11v-9h10q10 0 10 9h-15v5q1 10 10 10q9 -5 20 -5q0 7 20 19q11 -2 11 -10v-4l-11 -15v-14l11 -14v-19q0 -7 -21 -19h-15v10h10v9q-38 0 -46 -38l-35 5q0 -7 -15 -14l5 -10v-4q-26 0 -76 -34h-11v5q6 9 6 14l-11 5q-7 0 -15 -19q10 -5 15 -5v-9q-18 0 -121 -71h-11
q-30 19 -30 47v24l20 19l-15 24v4q23 19 46 71v10l-5 9q22 10 86 109h10l-5 10l56 99q35 40 81 137q29 25 71 123q59 67 92 152q27 16 86 104v9h-15v5q56 54 91 161q10 0 10 9v5l-15 19q25 37 25 43q0 12 -15 33l5 28q0 10 -10 10q-11 0 -20 -5q-10 5 -16 5q0 -10 -10 -10
h-10v5q2 9 10 9l-5 10q2 9 10 9h5v-14h11q15 10 35 14l-5 10v19q2 9 10 9q12 0 20 -4zM634 1302q0 -5 -5 -15l16 -9l5 19l-10 5h-6zM502 1268h6q7 0 20 -18q-5 -10 -5 -15q-14 0 -31 10q-6 -29 -15 -29h-5q-10 0 -10 10q27 40 40 42zM442 1235q7 0 15 -14q-15 -28 -15 -47
q5 -8 5 -19q-6 0 -26 -33v9h-10q-10 -38 -20 -38h-5v19q24 38 45 38v24q0 9 -10 9q-7 0 -15 -14v-24h-5l-15 10q-13 -17 -26 -104q-25 0 -40 -81q-14 0 -36 -57q-7 0 -15 -14l5 -23q-20 -10 -35 -10q-43 0 -66 33l-36 -4h-5q-10 0 -10 9q7 0 15 24q-5 9 -5 14q0 9 117 147
q51 42 61 42q15 27 50 38q0 19 11 19q9 -5 15 -5q15 26 56 52zM502 1207v-10h-10q2 10 10 10zM335 1112v-9q2 -10 10 -10q10 0 10 10v14h-5q-10 -5 -15 -5zM310 1074v-4h10v14q-10 -2 -10 -10zM269 1037v-10h5v10h-5zM289 483h5q11 0 11 9h-6q-10 -1 -10 -9zM269 469v-10h5
v10h-5zM233 417v-5h11l5 19q-8 0 -16 -14zM888 388q5 0 5 -5l10 5q8 0 16 -14q0 -10 -31 -14v-10h10v-4q0 -8 -20 -19q-20 4 -20 19q24 42 30 42zM822 379h5q8 0 16 -15l-6 -9q-16 9 -25 9q0 -9 -10 -9v5q0 7 20 19zM751 369q26 -3 26 -28h-5l5 -10q-11 -10 -11 -28h-25
l-10 -5v10q35 19 35 33q-5 19 -30 19q0 -29 -41 -29v-9h-10v5q39 42 66 42zM929 355h10q0 -9 -10 -9v9zM645 341h10v-14q-10 0 -10 9v5zM843 336h5q-11 -11 -11 -19h-10v5q0 7 16 14zM614 331h10q0 -28 -35 -38q0 5 -5 5l5 10l-5 9zM538 308q15 -5 15 -29h-5q-8 0 -20 19
q1 10 10 10zM167 298v-9h6v9h-6zM660 303h5l-10 -14v-10l5 -9h-5q-15 5 -15 9l-11 -4h-5v9q16 0 36 19zM508 293l-6 -9q6 -9 6 -14h-26q0 5 5 5l-5 9q0 9 26 9zM421 275h10q21 -8 21 -34q-21 -4 -21 -28q11 -1 11 -9v-5h-11l-15 9q0 -9 -10 -9h-5v5q30 38 30 47
q-10 15 -10 24zM574 275h10v-15q-10 0 -10 10v5zM142 265l-5 -9l10 -5l5 9zM538 265h10v-14q0 -5 -5 -5l5 -9v-5h-10q-13 9 -25 9q0 7 25 24zM609 260h10v-9h-10v9zM401 256v-10h-10q1 10 10 10zM472 241q10 -1 10 -9v-14q-10 0 -10 9v14zM497 232h11v-5q0 -9 -11 -9v14z
M269 208v-4q5 -8 5 -29l20 14q-5 19 -25 19zM335 204v-24q20 7 20 14q0 10 -10 10h-10zM228 151v-4q2 -10 11 -10l10 14v5h-5q-10 -5 -16 -5zM188 133q0 -6 -5 -15q5 -9 5 -14h10q7 0 15 14q0 7 -15 15h-10z" />
    <glyph glyph-name="three" unicode="3" horiz-adv-x="959" 
d="M754 1404v-5l10 5h5q11 0 20 -5q10 5 16 5q5 -8 5 -19h15l10 5q4 -19 26 -38v-5q-49 -122 -128 -212l-51 -56l-31 -34q0 -8 -112 -132q-56 -69 -87 -85q-14 -23 -21 -23l-5 9q60 76 67 76q14 47 30 47q10 -5 16 -5l5 10l-10 14v9q70 103 81 109q0 15 93 174q30 58 30 81
v23q0 10 -10 10h-10q-104 -48 -251 -208q-81 -80 -112 -142q-66 -42 -93 -42q-56 5 -56 42q55 117 102 147q69 53 139 103l179 100h25q0 21 103 42zM800 1366v-9q10 0 10 9h-10zM810 932l25 -37q-6 -124 -127 -312q-52 -80 -103 -146q-87 -99 -153 -151q0 -11 -36 -33
q0 -9 -108 -99q0 -20 -92 -85h-10v14h-5q-15 -5 -15 -28h10v-10h-31v10h-5q0 -33 -41 -43l-15 -9q0 9 -10 9q0 -9 -11 -9q0 5 -5 5q0 -5 -5 -5l5 -9l-107 -104q-48 -67 -77 -71q0 5 -5 5q42 74 67 89l-6 10q16 13 41 47l26 -5v5q-5 8 -5 19q0 17 112 122q38 48 92 95l62 66
q0 9 25 23q16 13 16 29l194 198q44 56 51 56q18 40 87 137q36 72 36 99v5h-5q-103 -32 -251 -160q-79 -52 -92 -52q-41 38 -41 42v5q7 32 92 75q156 140 282 180q0 16 138 23zM692 630v-9h5v9h-5zM651 588v-5h10v5h-10zM498 404v-5h10v5h-10zM457 366l15 -9q0 4 5 4
q-5 10 -5 15h-5q-10 -2 -10 -10zM355 328v-9q10 0 10 9h-10zM365 272v-14h5v14h-5zM334 239v-10h5v10h-5zM247 168q5 -9 5 -14h5v14h-10z" />
    <glyph glyph-name="four" unicode="4" horiz-adv-x="816" 
d="M693 1429h9q0 -5 5 -14l-10 -4l-4 9v9zM678 1420h5q8 -41 24 -41q1 9 9 9l5 -28q-15 -9 -24 -9v-23q-47 -137 -47 -151q-12 -9 -19 -9v-5l5 -32l-53 -68q11 0 15 -23l-10 -5q0 9 -9 9q-10 -1 -10 -9l5 -9q0 -37 -33 -60v-4l19 -18l-10 -5q0 7 -14 14q-16 -5 -19 -19
l24 -4v-9q-20 -22 -33 -42v-9q14 0 14 -14q27 36 99 46l91 32q4 -13 28 -13q4 15 28 27q29 0 29 -18h33v9l-5 9q15 0 34 5v-23h28q12 -19 19 -19v-9h-14q-11 0 -19 5h-5v-5h10q0 -9 -10 -9h-14q-5 0 -5 5l-9 -5h-38q-95 -15 -157 -50l-14 9q-23 -23 -57 -23q-13 0 -33 -32
q-5 9 -5 14h-9q-38 -59 -38 -64h-5l-19 13l-5 -23h14q-47 -40 -47 -45q9 -2 9 -10q-28 -17 -28 -41q9 -1 9 -9l-23 5h-15v-14q0 -9 19 -9q0 -3 -33 -55q5 0 5 -5q-12 -9 -19 -9v-37l-9 5q-5 -6 -5 -23h9v-5q-12 0 -33 -54l5 -33q-28 0 -43 -105q-9 -1 -9 -9l4 -9
q-4 -46 -14 -46l5 -9v-5l-10 -13v-5q0 -17 5 -41q-9 -18 -9 -51q0 -7 9 -64q-19 -4 -19 -27h-9q0 10 -5 18q5 0 5 5h-15l-9 -5l-10 18l5 10q-5 25 -5 36q0 12 5 37l-5 18l15 78l-5 9q14 38 28 142q29 55 29 64l-5 23l33 60q5 0 5 4l-5 23l19 9l-9 19q22 38 52 123l-9 -4h-15
l5 23h-5l-28 -37q-44 -18 -157 -37q0 -9 -9 -9h-57q-48 0 -76 83v9q26 73 38 73h9v23h-9v9l62 87q20 0 28 60q8 1 43 87l19 13q-5 9 -5 14q25 69 52 69l-5 23q53 100 53 110q22 87 52 87v9h9l-4 -23q37 -33 37 -87q0 -13 -18 -73l4 -9q-46 -118 -147 -284q-16 -50 -47 -101
q0 -14 71 -18q52 0 190 41q0 5 4 13q-6 0 -14 14q12 0 19 37l29 32v9l-5 18q43 70 43 87q19 0 19 23l-5 9q39 78 66 147q19 0 19 14q-5 0 -5 4l10 5l-5 9v9q0 26 38 78q-9 0 -9 9v23l4 9q-9 0 -9 10h5l23 -5q0 11 19 23zM716 1397h10v-9h-10v9zM678 1328v-14h10q-5 9 -5 14
h-5zM626 1296l10 -4h4q-4 8 -4 13q-10 -1 -10 -9zM289 1296v-9h5v9h-5zM636 1223v-9q9 0 9 9h-9zM593 1205v-14h5v14h-5zM607 1200v-14h5v14h-5zM256 1085v-9h10v9h-10zM545 1035v-9h5v9h-5zM531 1012q0 -10 -4 -18h4l10 4q-5 9 -5 14h-5zM688 916v-5h14v5h-14zM346 719v-4
h10v4h-10zM351 609l-5 -23l10 -4q9 0 9 13q-4 9 -4 14h-10zM332 568v-9h5v9h-5zM327 522v-9h5v9h-5zM270 467h5q9 5 14 5v9h-4q-7 0 -15 -14zM299 440v-9h9q0 9 -9 9zM285 417l-5 -19l9 -4l5 23h-9zM218 101v-9h10v9h-10zM213 18q10 -1 10 -9v-4h-10q-9 0 -9 9zM228 9
q9 -1 9 -9h-9v9z" />
    <glyph glyph-name="five" unicode="5" horiz-adv-x="1103" 
d="M544 1376l40 -25q10 6 15 6v-6l10 6h5l31 -24q16 12 25 12l10 -19q-5 -10 -5 -24h5q10 0 10 31h15l35 12l10 -19l-10 -18q10 -15 10 -25q20 9 20 19l-5 31h25l15 12q8 -50 21 -50q9 0 25 38l35 6l5 -13l-5 -31l10 -6h10q12 13 20 13l-5 31h5q5 0 5 -7l25 19l5 -12
q-3 -44 -10 -44q-10 6 -15 6l-10 -18l10 -19l-10 -6h-10q0 19 -10 19h-10q-11 0 -20 -44q5 0 5 -6q-11 -6 -45 -12v31q-10 0 -10 12h-16l5 -12v-6q0 -7 -5 -7l5 -12q0 -21 -90 -31q0 19 -10 19h-10v-19h-50q0 19 -10 19h-10q0 -7 -6 -19q-65 6 -100 19q-54 -121 -65 -137
q0 -26 -86 -179l-25 -38q0 -30 -15 -30q0 6 -5 6q0 -6 -5 -6l5 -13v-6l-55 -81q-15 -41 -51 -99v-12h5l96 68q0 6 5 6q9 -6 20 -6q2 24 96 62v-6q23 18 30 18l20 -6q41 31 55 31q10 -2 10 -12q-5 -12 -5 -19l10 -6l25 6q-10 20 -10 31q8 8 51 13v-7q0 -24 -11 -24
q10 -29 21 -31q15 4 25 43q-15 0 -15 12v13h5q15 -6 15 -13l10 7h15v-13l10 6h5q35 -25 35 -80l-10 -6q5 -12 5 -19q-5 -19 -10 -19q0 -7 25 -30q-10 -2 -10 -13l-10 6h-15v-37h20q0 -12 -10 -12q0 6 -5 6q-10 -20 -10 -37v-19q-15 0 -15 -6q10 -20 10 -31l-5 -12
q5 -11 5 -25q-13 0 -20 -56q-20 -49 -121 -192q-37 -46 -75 -62l-40 -37l-16 12q-13 -37 -90 -62q0 -12 -10 -12h-5q-10 0 -10 12q-25 0 -25 -31l-20 7q-41 -25 -56 -25q-7 25 -15 25h-5v-7l5 -12q-10 -37 -20 -37q0 10 -20 25q0 -26 -25 -37q0 12 -10 12q0 -27 -55 -43v6
q-39 -31 -51 -31v6l-10 -6h-5v18q18 0 216 168q41 43 66 43v-6l201 167q10 -6 15 -6q0 21 80 118q35 47 46 161q-16 99 -31 99q-76 -1 -236 -87q-83 -60 -171 -180h-10v13h-5q0 -25 -40 -25q0 8 -25 31q0 22 -20 49v7q15 0 30 43v37q0 105 181 459q41 73 105 235
q41 58 66 74l-5 13q1 12 10 12l15 -12q27 43 40 43zM1097 1364q10 -2 10 -13h-10v13zM981 1345h10v-12h-10v12zM1027 1345h5v-6q0 -8 -26 -31h-15v6zM1057 1345h10v-6h-10v6zM780 1314v-12h5v12h-5zM710 1308l-5 -25h15q10 0 10 12q0 13 -10 13h-10zM986 1283q0 -9 -15 -18
h-5v12q3 0 20 6zM846 1265v-25h10q8 0 20 25v6h-5zM629 1258v-12h21v12h-21zM710 1258v-12h10v12h-10zM750 1252v-37h5q10 6 15 6v13q-10 0 -10 18h-10zM675 1234v-19h5q10 0 10 12l-10 7h-5zM474 1172v-19h5v19h-5zM348 880v-12h5v12h-5zM318 843v-12h5v12h-5zM705 757v-13
h5v13h-5zM494 688l-5 -12h15q0 12 -10 12zM212 589v-6q8 0 15 19h-5q-10 -2 -10 -13zM645 527v-12h5v12h-5zM685 490q-5 -12 -5 -18q9 -29 20 -31v12q-5 12 -5 19q5 0 5 6zM650 434v-18h5v18h-5zM675 410l-5 -13q1 -12 10 -12l5 12q0 13 -10 13zM640 360v-6q5 -12 5 -19h5
l5 25h-15zM534 242v-6q5 -12 5 -18q10 0 10 12q-10 0 -10 12h-5zM474 224v-13h5v13h-5zM433 187v-31h10l6 25l-11 6h-5zM393 143v-12h10q0 12 -10 12zM247 63q0 -13 -20 -13v-6q20 -16 20 -25h5l11 7l-5 12l5 12zM117 -18v-12h5v12h-5zM-29 -111h10v-12h-10v12z" />
    <glyph glyph-name="six" unicode="6" horiz-adv-x="832" 
d="M565 1315q129 0 129 -87q-21 -131 -74 -131q-8 -22 -101 -82q-113 -106 -195 -201q-46 -69 -97 -131q-96 -162 -120 -311v-54q158 247 259 300q25 26 194 98v16h5q0 -16 18 -16q1 7 24 21h4q134 -15 134 -49l5 -11q-8 -61 -42 -114q-8 0 -37 -49q-9 0 -51 -98l-87 -153
q-97 -115 -125 -125q-18 -34 -60 -54q-105 -82 -204 -82q-32 0 -32 11l-10 -6q-19 33 -37 33q-32 -68 -50 -82q0 13 -19 27v28q0 28 23 120q0 25 -18 70q0 120 41 278q11 10 60 153q11 6 74 136q66 94 153 245l148 186q8 0 88 114zM357 416q-5 0 -5 5q-127 -94 -194 -223
q20 -16 32 -16q179 0 338 283v16h-5q-52 0 -152 -49zM398 154h5q7 0 14 17v5q-7 0 -19 -22zM306 133v-6q1 -11 9 -11v17h-9zM10 -47v-6q-5 -10 -5 -16h-9v5q0 8 14 17z" />
    <glyph glyph-name="seven" unicode="7" horiz-adv-x="992" 
d="M980 1356q6 0 12 -12q-9 -11 -72 -44v-4h4q10 0 44 8v-4q-49 -49 -52 -60q4 -8 4 -12h8l20 4v-4q-1 -12 -64 -28q0 -6 36 -76v-12q0 -76 -60 -76q-57 -8 -96 -24v4q-8 0 -116 -52q-7 0 -28 -16l-48 -36q0 -10 -32 -20q-3 -18 -68 -68q-52 -39 -52 -56q-12 0 -32 -28
q4 0 4 -4q-10 0 -32 -32q-15 0 -80 -92q0 4 -4 4q0 -15 -68 -128q-50 -99 -68 -188q-24 -60 -24 -112h-8q0 12 -8 12q4 12 8 12q-8 13 -8 20h-8q0 -6 -8 -16v-24h-4l-8 4l-4 -8v-36h8v-4h-8v-12q0 -4 4 -4l-4 -8v-52q0 -4 -4 -4q8 -23 12 -64v-4h-4q-52 109 -52 208v48
q0 245 248 596q125 156 200 228v4q-38 0 -100 8q-8 -4 -12 -4q-16 8 -24 8q-4 0 -4 -4l-20 4h-48q-92 -16 -100 -16h-16q-50 0 -124 76l-20 36q28 84 96 84q0 14 212 32h200q9 0 16 -4q15 8 36 8q4 0 4 -4q20 4 96 8v-4q72 12 300 36q0 7 20 8zM896 1236v-8h8v8h-8zM92 432
v-8h4v8h-4zM120 400h4q6 0 12 12h-4q-6 0 -12 -12zM124 364v-20h8l4 20h-12zM76 256v-8h4v8h-4zM96 184h4q8 -4 12 -4v-4q0 -8 -8 -8l-8 12v4z" />
    <glyph glyph-name="eight" unicode="8" horiz-adv-x="968" 
d="M741 1396h43q28 -11 28 -59v-4h18q4 0 8 -9q-8 0 -8 -17h-3q-4 0 -9 10v7h6v3h-9q-7 -7 -11 -7q0 -8 6 -29l5 3h3q26 -22 26 -53q0 -6 -6 -23q6 -1 6 -6v-23q0 -8 -3 -14l6 -13q-6 -21 -6 -23q6 -34 6 -36h-3l-6 3l-3 -6v-23q-8 0 -8 -17q3 -17 3 -20q20 17 20 37h2
q9 -14 9 -37q-6 -25 -26 -49v-7q6 -1 6 -6v-3q-17 -13 -17 -17q0 -40 -97 -145q-7 -11 -63 -56l-3 -6v-4q25 0 34 -62l-6 -3q-20 26 -25 26v-7q8 -17 8 -33l-6 -3h-2q-60 12 -60 17q-15 -7 -20 -7q0 -29 31 -33l6 3q10 -6 23 -6q0 4 8 10q9 -4 9 -7l20 3h3q40 -17 40 -33
q0 -60 -52 -108q-18 -43 -34 -53q-6 -8 -6 -16h-3l-8 6q-6 -12 -6 -26l6 -10q-3 -6 -3 -10h-6l-6 23h-5q0 -11 -15 -39l-5 3q-3 0 -12 -13l6 -13q-12 -50 -23 -50h-3l3 23h-3q-13 0 -26 -46q6 -1 6 -6v-7h-3l-11 7q-12 -15 -12 -17v-3l6 -10v-10q0 -2 -20 -23q-6 0 -6 13h-5
q-6 -1 -12 -16q6 -11 6 -20q-5 0 -31 -40h-3l-6 4q-11 -33 -34 -33q-33 -47 -95 -82q-67 -37 -97 -37v4q-12 -7 -17 -7q-73 0 -138 49q0 7 -22 23q0 6 -6 17l-6 -3q-9 0 -17 62v36q0 75 235 349q6 22 123 145q-22 2 -49 30q0 3 3 10q0 52 -23 52q0 5 -3 53q0 28 26 112
q48 105 111 191q144 168 163 168q0 -3 3 -3q0 14 46 42q19 20 60 43l12 -6q3 0 14 16q9 0 20 10zM792 1343v-3h6v3h-6zM810 1271v-3l2 -7q-25 -56 -45 -56q-114 -30 -163 -95q-19 0 -72 -73q-57 -58 -57 -66q-3 -20 -52 -62q0 -10 -37 -46q-3 -25 -11 -37v-3q0 -7 3 -13
q-12 -20 -12 -36v-7q0 -10 26 -16h8q69 0 195 66q88 70 140 184q46 97 83 214q0 5 3 39q-6 15 -11 17zM827 1202v-7q5 0 5 7v6q-5 -1 -5 -6zM838 1096h3v-6h-3v6zM389 1037h3q6 0 6 7h-3q-6 -1 -6 -7zM415 1021l-3 -7v-7q4 0 8 10zM375 1017v-6h3v6h-3zM392 998v-14h3
q5 0 5 7v7h-8zM543 668v-10q6 4 9 4q4 -4 14 -4q3 6 3 14q0 6 -5 6h-3q-11 -10 -18 -10zM549 655q5 -13 9 -13v3q-3 7 -3 10h-6zM581 655v-6h5v6h-5zM112 151l11 -6q47 0 149 39q200 115 314 330q0 30 -40 102q-14 30 -14 36q-16 0 -132 -115q0 -3 -68 -79q-16 -21 -37 -33
q-2 -15 -43 -60q-118 -128 -118 -151q-9 0 -22 -63zM635 484q3 -6 3 -10h6l5 20h-8q-6 0 -6 -10zM492 237v-7h3q4 0 8 10v4h-5q-6 -1 -6 -7zM446 181q19 9 20 17q0 6 -5 6q-15 -5 -15 -23z" />
    <glyph glyph-name="nine" unicode="9" horiz-adv-x="964" 
d="M704 1400l8 -4l9 4q38 -6 79 -63q4 -17 4 -30q0 -5 -4 -13q9 -47 9 -63h-9l4 -9v-8q0 -6 -13 -13q-9 0 -9 9l5 29l-40 -46l-8 4h-5q0 -7 -8 -21q6 0 13 -13q0 -8 -9 -8h-22v-5q4 -8 4 -12q-27 -11 -39 -55q-6 -23 -65 -85q-7 -17 -14 -17v4q-17 0 -21 -54q-7 0 -53 -64
q-35 -38 -35 -46l-9 -26h5l161 186q0 11 62 76q25 44 48 60q13 40 13 42q-5 8 -5 13q32 10 57 50h9q26 -54 26 -63h-8v8q-9 -1 -9 -8v-38q-23 -47 -31 -47q5 -8 5 -12q-15 -48 -57 -123l-22 -38q-42 -50 -66 -131q-30 -48 -70 -140q-40 -80 -61 -110q0 -10 -65 -118l-18 -38
q-7 -35 -52 -81q-13 -41 -13 -46h-9l-13 8l-22 -38v13h-9q0 -17 -9 -17l5 -21v-9h-5l-21 17q0 -8 -5 -8l5 -9l-5 -8h13v-4q-12 -14 -22 -38q-8 -2 -8 -9q8 -1 8 -8l-8 -4q0 4 -5 4q-3 -17 -8 -17l4 -9v-8q0 -9 -9 -9q0 -4 5 -4q-14 -36 -14 -42h-8q0 13 -9 13v-30h-9
q-4 38 -13 38h-4l-9 -4l4 -9v-4h-8q0 17 -13 72h4l-4 9q0 4 4 12l-4 21q4 68 13 68q-5 8 -5 13q31 129 96 245q14 38 57 106q22 29 22 51h4v-9h5q0 5 4 13q-4 7 -4 17q46 56 61 97q4 0 39 55l-17 13h-13q0 -9 -5 -9q9 -14 9 -25v-9h-4q-14 9 -22 9l-9 -13q5 -8 5 -13
q-30 -10 -35 -29q8 -2 8 -9l-13 -8h-4v13q-18 -7 -18 -13v-13h5q8 4 13 4q0 -16 -31 -16q0 16 -13 16q-6 0 -13 -12q4 -8 4 -13l-8 -4h-22v-21h-5q-4 0 -4 4q-30 -27 -92 -55v-9h-4v13l4 9h-4q-34 -30 -61 -30q-8 4 -18 4l-8 -4l-9 4l-57 -8l-9 12q5 36 5 60q-18 8 -18 21
t18 29l-9 5q-9 0 -9 -13h-4q0 4 -5 13l5 25q0 10 -5 17q7 17 13 17h5v-4l-5 -22q7 0 14 13v4l-9 13v13q13 14 13 42l22 -4h4l5 21q-7 0 -14 13v17l70 105q-4 0 -4 5l9 4q13 0 13 -17h4q13 4 13 25l-26 13q-9 0 -30 -34q-35 -38 -35 -55h-9v9q-6 0 -13 -22q-18 7 -18 13
q32 30 70 93q4 0 13 13l-4 8v5h9v-13h13l-5 21q0 10 35 42q0 26 31 26q9 26 57 59q2 10 30 21q0 -4 5 -4v4l-5 9q18 22 31 25q9 14 9 25l22 -4q0 16 26 34h4q0 -9 4 -9t53 34q-6 0 -13 13q22 5 22 13q5 -5 26 -5q0 11 52 38l31 22q23 0 39 -13h13q0 9 5 17q-5 0 -5 4l35 9
v-17h13q7 0 14 12q-5 0 -5 5l9 4q1 -9 9 -9q13 0 35 13zM524 1345l22 -4l18 8q-5 8 -5 17q-22 0 -35 -21zM472 1324v-4h18v8h-5q-8 -4 -13 -4zM586 1320v-9h8v9h-8zM546 1303v-5h9v5h-9zM433 1298v-8h8q0 8 -8 8zM822 1298h8q0 -23 9 -46q-4 -7 -4 -17l4 -8h-4q-7 0 -13 17
q4 8 4 12v9h-4v-13h-9v13l9 12v21zM839 1294h9v-8h-9v8zM385 1286h4v-4q0 -9 -9 -9h-4v4q1 9 9 9zM485 1282v-9q9 4 13 4v5h-13zM446 1260v-4q10 0 17 -4l5 21h-9q-6 0 -13 -13zM721 1273q0 -20 -70 -42h-17v8h-5q-2 -19 -105 -55l-52 -34q-9 0 -35 -21q-96 -67 -122 -93
q-11 0 -101 -97q-52 -51 -52 -72h-9q-4 0 -4 4q-9 -4 -14 -4l5 -21l-9 -4h-9v8h-4q0 -5 -22 -25v-13h5q8 4 13 4v-4q-19 -46 -48 -63l4 -22q-15 0 -18 -25q5 -8 5 -13h-5l5 -8l-9 -13l9 -4v4l65 -21q26 17 40 17q4 -8 4 -13h18v17h4q10 0 17 -4q38 34 62 34q39 21 52 34
l13 -9q15 30 35 30q12 25 18 25h8l9 -4q13 38 18 38l8 -4q5 17 13 29l9 -4q9 0 13 34l18 13h4q9 0 9 -13q9 0 9 9l-5 29l9 4l13 -8q9 0 9 8l-5 30q7 0 62 63l56 72q15 0 18 34q27 13 61 85q31 31 39 51q0 24 -39 29zM782 1273l-13 -17v-4h5q17 6 17 13q0 8 -9 8zM389 1256
v-8q6 0 13 12v5h-4q-9 -2 -9 -9zM315 1201q13 0 13 -21h4q9 0 9 9v4l-4 8q8 0 8 21l22 -4q0 4 4 4l-4 9q4 7 4 17q-24 0 -30 -26q-16 0 -26 -21zM406 1231l22 -4l5 21h-5q-20 -8 -22 -17zM861 1248v-13q0 -9 -4 -17q4 -7 4 -17v-8h-9q-3 34 -8 34q5 19 17 21zM551 1235v-4h8
v4h-8zM385 1189v-5h4q12 0 22 21l-13 9q-13 -4 -13 -25zM306 1201v-12h4v12h-4zM795 1176v-13h14q0 13 8 13q0 -4 5 -4l4 8v4l-9 -4q0 9 -8 9q-7 0 -14 -13zM415 1172q2 -9 9 -9h13l-4 9v4l4 8h-9q-6 0 -13 -12zM293 1176q4 -21 9 -21q17 6 17 12v13h-4zM350 1163l13 -8
q17 18 17 25h-9q-19 -8 -21 -17zM284 1163q0 -8 -22 -21v-8q2 -9 9 -9l22 25q-5 9 -5 13h-4zM804 1159l-4 -17q9 0 9 13v4h-5zM328 1150v-21h9q4 13 4 26q-9 -5 -13 -5zM393 1138v-4h5l4 16q-9 0 -9 -12zM769 1150q5 -8 5 -12q21 5 21 12h-8q-5 0 -5 -4l-8 4h-5zM227 1104
l9 -4q7 0 17 17v12q-26 0 -26 -25zM288 1117q5 -9 5 -13h22l4 17l-13 8zM363 1125l-5 -8q2 -9 9 -9l9 13q-5 0 -13 4zM774 1125v-8h4v8h-4zM804 1125q0 -6 13 -13h5v5q0 8 -9 8h-9zM201 1087v-13h4l18 13q-4 8 -4 13h-5q-6 0 -13 -13zM175 1087v-13q9 0 9 9v4h-9zM253 1087
v-4h9v4h-9zM267 1074v-4q8 4 13 4v9h-5q-8 -2 -8 -9zM162 1066q0 -12 8 -26q22 7 22 30q-4 0 -4 4q-18 -8 -26 -8zM791 1066h9v8q-9 -1 -9 -8zM219 1049l17 -13l17 21v5q-13 0 -13 8h-8q-10 0 -13 -21zM149 1045q0 -7 -9 -17v-9h9q0 13 8 13q-4 8 -4 13h-4zM192 1024v-5
q9 0 9 -4q5 0 22 13q-4 8 -4 12h-9q-7 0 -18 -16zM258 1028v-9h4q9 5 13 5v12h-8q-9 -1 -9 -8zM162 994q0 -13 13 -13q0 -17 -22 -29v-5q0 -6 13 -12h4v25q10 0 14 17l-5 8v5l13 21h-17q-5 0 -13 -17zM223 1002v-4q0 -6 17 -13q9 14 9 22l-9 4h-8q-9 -1 -9 -9zM747 1007v-13
h9v13h-9zM192 973v-4q0 -6 13 -13q7 0 14 13v12h-18q-9 -1 -9 -8zM642 977q0 -4 -4 -13q4 0 4 -4q9 4 14 4q-5 9 -5 13h-9zM551 952l-5 -9v-4q0 -6 13 -13l5 9v12q-5 0 -13 5zM127 947q-13 -21 -13 -25v-4h4q0 5 17 29h-8zM184 947l-5 -8v-13h5q0 7 8 17zM625 947v-8h9
q0 8 -9 8zM699 931v-9q9 0 9 9v8q-9 -1 -9 -8zM127 918v-9q10 0 17 -4l5 9l-5 8q5 8 5 13h-5q-7 0 -17 -17zM87 884l5 -8l-9 -5q0 5 -4 5q0 -7 -9 -17l4 -30q6 0 48 63q5 0 5 5v8h-5q-17 -21 -35 -21zM39 884v-25h-4q-9 0 -9 8q7 17 13 17zM26 850h5q-22 -43 -22 -59h-9v8
q3 27 26 51zM83 812v-8h-9l-8 4l-31 -34v-13l9 -29h4q0 13 18 34v25l21 -4l9 12v5q0 8 -9 8h-4zM450 732q2 -9 9 -9l9 17h-9q-9 -1 -9 -8zM35 719h9v8q-9 -1 -9 -8zM267 685v-17q8 5 13 5v12h-13zM35 651v-4h9v4h-9zM227 647v-13h9q9 0 9 9v8h-5q-8 -4 -13 -4zM310 651h9v-8
h-9v8zM201 630v-8q9 4 13 4v4h-13zM524 630v-4h9v4h-9zM74 626q2 -8 9 -8v8h-9zM371 626h5v-8h-5v8zM490 486v-8h4v8h-4zM358 313v-13q9 0 9 9z" />
    <glyph glyph-name="colon" unicode=":" horiz-adv-x="557" 
d="M310 945q5 -5 5 -20h6l27 3v-7q-16 0 -16 -7v-3q30 -41 44 -82q0 -43 -83 -96q-19 0 -39 -24q-18 0 -44 -48q6 0 6 -3q-15 0 -23 -27v-14h-11v41q-11 0 -16 -41q-15 0 -17 -17h-11q0 4 6 34q-11 18 -17 75l6 7l-6 21v13q11 9 11 14l-5 24h5l-5 7l16 20v21q21 0 33 34
l-5 7q0 12 44 48q33 11 33 17zM103 243q6 0 17 33q36 44 48 44l7 -5q34 12 34 33h21l20 16l7 -5v5l24 -5q5 0 14 11h13l21 -6l7 6q57 -6 75 -17q30 6 34 6v-11q-17 -2 -17 -17q-41 -5 -41 -16h41v-11h-14q-27 -8 -27 -23q-3 0 -3 6q-48 -26 -48 -44q-24 -20 -24 -39
q-53 -83 -96 -83q-41 14 -82 44h-3q-7 0 -7 -16h-7l3 27v6q-15 0 -20 5z" />
    <glyph glyph-name="semicolon" unicode=";" horiz-adv-x="557" 
d="M318 918q5 -5 5 -20h6l27 3v-7q-16 0 -16 -7v-3q30 -41 44 -82q0 -43 -83 -96q-19 0 -39 -24q-18 0 -44 -48q6 0 6 -3q-15 0 -23 -27v-14h-11v41q-11 0 -16 -41q-15 0 -17 -17h-11q0 4 6 34q-11 18 -17 75l6 7l-6 21v13q11 9 11 14l-5 24h5l-5 7l16 20v21q21 0 33 34
l-5 7q0 12 44 48q33 11 33 17zM301 289q50 0 72 -60q11 -1 11 -9v-9q0 -17 -5 -42q11 -18 11 -32q-27 -131 -50 -142q-83 -97 -83 -221v-37q0 -6 -17 -14l-11 5q-6 -8 -6 -23h-11q-53 0 -72 248q16 19 22 97q6 0 6 4l-6 28q17 64 45 87q-17 0 -17 5q11 41 11 60v4l-5 23
l11 5l16 -9q39 14 39 23l11 4h6l11 -4q2 9 11 9z" />
    <glyph glyph-name="semicolon" unicode="&#x37e;" horiz-adv-x="557" 
d="M318 918q5 -5 5 -20h6l27 3v-7q-16 0 -16 -7v-3q30 -41 44 -82q0 -43 -83 -96q-19 0 -39 -24q-18 0 -44 -48q6 0 6 -3q-15 0 -23 -27v-14h-11v41q-11 0 -16 -41q-15 0 -17 -17h-11q0 4 6 34q-11 18 -17 75l6 7l-6 21v13q11 9 11 14l-5 24h5l-5 7l16 20v21q21 0 33 34
l-5 7q0 12 44 48q33 11 33 17zM301 289q50 0 72 -60q11 -1 11 -9v-9q0 -17 -5 -42q11 -18 11 -32q-27 -131 -50 -142q-83 -97 -83 -221v-37q0 -6 -17 -14l-11 5q-6 -8 -6 -23h-11q-53 0 -72 248q16 19 22 97q6 0 6 4l-6 28q17 64 45 87q-17 0 -17 5q11 41 11 60v4l-5 23
l11 5l16 -9q39 14 39 23l11 4h6l11 -4q2 9 11 9z" />
    <glyph glyph-name="less" unicode="&#x3c;" 
d="M927 1074l-625 -359l625 -355v-167l-840 481v83l840 484v-167z" />
    <glyph glyph-name="equal" unicode="=" horiz-adv-x="1484" 
d="M61 1069h8q0 -12 28 -12h8l20 4v-4l8 4h40l40 4v-4l8 4h20q4 0 4 -4l8 4h76q4 0 4 -4q8 4 12 4q21 -4 24 -4q4 0 4 4q65 -5 108 -12q4 0 4 4q173 -12 200 -16l8 4l56 -8l8 4q8 -4 12 -4v-16l-4 -8h8q4 24 12 24h20l20 -4v-4l-4 -20q9 0 16 -4l4 8v4l-8 12l8 4l16 -4h24
q-4 -21 -4 -24v-4h4q8 28 16 28q4 -7 4 -20l20 4v4h-16q4 12 24 12q8 -1 8 -8l-4 -8h4l12 8l12 -8q0 12 8 12l20 -4v-12h-4q-8 4 -12 4l-20 -16q4 0 4 -4q-8 -4 -12 -4q-8 4 -12 4v-28h-12v4l4 20q-8 0 -8 8q4 0 4 4q-4 0 -12 4q-8 -24 -20 -24h-12v-16h-4q-8 0 -8 8
q4 8 4 12l-8 4h-8l-12 -8h-8l-8 4q-11 -28 -16 -28l-4 8v20q-4 0 -12 4q0 -8 -8 -8h-20q0 -24 -8 -24q-5 23 -12 32q4 0 4 4h-4q-5 0 -16 -20l8 -4q-6 -16 -12 -16q-4 8 -4 12h-8l-12 -8l-24 4q0 -8 -8 -8t-8 8l-28 -4h-4l-8 4q0 -12 -8 -12h-4q0 10 -8 20l4 8h-4l-8 -4
l4 -8q0 -14 -44 -20q0 8 -8 8q-7 -4 -16 -4v4q-15 -8 -32 -8l-8 20q4 8 4 12l-8 4l-4 -8v-4q0 -4 4 -4q0 -24 -48 -24l-20 4q-2 0 -52 -4v4q-6 -4 -52 -8l-8 4l-8 -4q-8 0 -8 4l-28 -4h-56q-14 0 -36 4q-16 -8 -28 -8l-8 4q-34 -8 -40 -8q-42 0 -64 92v4q0 21 20 28
q2 16 12 16zM109 1045v-8h4v8h-4zM445 1037v-4h8q8 0 8 8l-8 4q-8 -1 -8 -8zM253 1037q1 -8 8 -8v8h-8zM601 1025l-4 -8l8 -4h4v4q0 8 -8 8zM785 1021v-4h8v4h-8zM849 1021v-8q8 0 8 -12h8q-12 13 -12 20h-4zM1017 1021q8 -1 8 -8l16 8l4 -8v-8l-20 4q0 -4 -4 -4l-4 8v8z
M101 1013v-12h4v12h-4zM361 1005v-4q7 4 16 4v8h-8q-8 -1 -8 -8zM1069 1017h8q8 -1 8 -8l-8 -4q-8 0 -8 8v4zM569 989v-8q8 0 8 8h-8zM985 993q8 -1 8 -8h-8v8zM1073 989l4 -8l-8 -4h-12v8q9 0 16 4zM1101 989h12v-8h-12v8zM1125 989h8v-8h-8v8zM1157 989h8v-8h-8v8z
M1241 989h4v-8h-4v8zM1297 989h4v-8h-4v8zM369 981l-4 -8v-8h4q10 8 16 8v4q-9 0 -16 4zM421 981v-16l28 -4l4 8v4l-4 8l-20 -4zM1029 985h16q0 -8 -8 -8t-8 8zM1177 985h8v-4h-8v4zM305 977v-8h20q0 8 -8 8h-12zM617 977v-8h4v8h-4zM649 977v-8h8v8h-8zM705 977v-8q8 0 8 8
h-8zM533 965h4q8 0 8 8h-4q-8 -1 -8 -8zM973 977h12v-8h-4q-8 0 -8 8zM157 969v-8h4v8h-4zM409 757q12 -4 12 -8q8 4 12 4q53 0 108 -8q4 0 4 4q48 -7 48 -12q8 4 12 4q75 -14 96 -24q22 4 32 4q12 -4 12 -8q-4 -8 -4 -12h12v12h4q8 -1 8 -8l8 4h12l16 -12q1 8 8 8h8
q31 -10 36 -24h8l-4 -8v-4h4l8 24h8l4 -16h4l16 12q16 -8 16 -12l8 4q26 -4 40 -12l24 4q0 -20 20 -32h24q0 12 8 12l20 -4q1 8 8 8q6 0 12 -12l20 4h8v-8q4 0 12 4q44 -3 44 -12l8 4h12l12 -8h4l12 8l16 -12q1 8 8 8h12q9 0 16 -4q6 4 44 8q8 -4 12 -4l20 12l8 -4
q0 6 40 24h4q8 -1 8 -8v-4q0 -5 -28 -20q4 -8 4 -12q-21 -16 -40 -16l4 -8l-128 -68q0 8 -8 8h-24l-16 -12h-16l-8 4l-4 -8q-4 0 -12 4q-22 -4 -36 -4q0 8 -8 8q0 -8 -12 -8l-16 4l-8 -4q-7 0 -32 8l-20 -4l-52 12q-8 -4 -12 -4q-158 32 -340 56l-8 -4q-12 4 -12 8
q-8 -4 -12 -4q-23 0 -44 8l-20 -4l-20 4l-8 -4q-12 4 -12 8l-8 -4h-44q-4 0 -4 4l-8 -4h-92q-9 0 -16 4q-7 -4 -16 -4h-12q-4 0 -4 4l-8 -4l-24 4l-8 -4q-67 0 -128 52l8 4h8v-8h4q8 0 8 8l-4 20h-4v-8h-8v32l20 8v12l-4 8l8 4l8 -16l8 4q32 -4 32 -12q-8 -1 -8 -8l4 -8
l-4 -8v-4h4q0 4 4 12q-4 8 -4 12q11 10 32 16q0 19 56 24v-4q14 8 56 12v-4q16 8 44 8h16q4 0 4 -4q6 5 40 8zM237 725q1 -8 8 -8h4v12q-8 -4 -12 -4zM477 729v-12h4v12h-4zM509 725v-8h8v8h-8zM197 713l24 -4v12h-16q-8 -1 -8 -8zM281 721l-4 -16q8 0 8 12v4h-4zM245 713
v-8h4v8h-4zM121 701v-4h8v-4l-4 -8q4 0 12 -4v4q-6 16 -12 16h-4zM765 701q8 -10 8 -20q8 0 8 8v4q-8 0 -8 8h-8zM733 693v-8h4v8h-4zM197 689q0 -4 -4 -12h4l4 8v4h-4zM821 689v-8h4v8h-4zM829 689q1 -8 8 -8v8h-8zM301 677v-4q8 0 8 8v4q-8 -1 -8 -8zM365 681v-8h4v8h-4z
M121 673v-8h8v8h-8zM1421 677v-4q0 -6 -12 -12h-4v12q2 0 16 4zM933 669v-8h4v8h-4zM245 665v-8h4v8h-4zM957 665v-4h8v4h-8zM913 661v-8q8 0 8 8h-8zM945 649v-4q0 -6 16 -12l4 8v16q-10 -8 -20 -8zM1013 661h12v-8h-4q-8 0 -8 8zM1089 637v-8q1 -8 8 -8h4v4q0 6 -12 12z
M697 617v-8h4v8h-4zM1265 605v-8h4v8h-4zM1309 601v-8h4v8h-4zM1081 597v-12h4v12h-4zM1173 593v-8h4v8h-4zM957 581v-8h8v8h-8zM825 573v-8h12v8h-12zM885 573v-8q8 0 8 8h-8zM1229 569v-12h12v12h-12zM997 553v-12h8v4q0 8 -8 8zM1145 545v-4h12v12h-4q-8 -1 -8 -8z
M1081 545v-12h4v12h-4z" />
    <glyph glyph-name="greater" unicode="&#x3e;" 
d="M87 1241l840 -484v-83l-840 -481v167l625 355l-625 359v167z" />
    <glyph glyph-name="question" unicode="?" horiz-adv-x="804" 
d="M564 1380q30 0 59 -11q8 -10 22 -13q18 -39 18 -46l8 3h3v-5q15 -50 15 -70q-15 -62 -37 -112q-10 -60 -147 -246q-25 -23 -147 -190q-78 -95 -111 -144q-21 -48 -40 -59q0 -10 -19 -19q0 -5 -14 -27l-8 3h-3l-34 -29h-3q0 2 3 2l-3 6v2q18 22 73 174q14 17 30 67
q59 104 177 246q9 19 36 51q56 76 89 182q11 43 11 115q-4 5 -4 8q-37 -4 -66 -40l-44 -49q-15 -26 -52 -58l-40 -57q-19 -9 -56 -13q-59 0 -129 48l-7 8v6q19 15 37 50q14 0 18 19q16 0 22 24q34 25 41 27q68 58 103 67q14 16 18 16h4l7 -3q17 28 122 59q35 8 48 8z
M148 233q33 0 48 -35q7 -1 7 -5v-6q0 -9 -4 -24q8 -11 8 -19q-18 -76 -33 -83q-56 -56 -56 -128v-21q0 -4 -11 -8l-7 2q-4 -4 -4 -13h-7q-35 0 -48 144q10 12 15 57q3 0 3 2l-3 16q11 37 29 51q-11 0 -11 3q8 24 8 35v2l-4 14l7 2l11 -5q26 8 26 13l7 3h4l7 -3q2 6 8 6z" />
    <glyph glyph-name="at" unicode="@" horiz-adv-x="2019" 
d="M972 622q-83 -10 -151 -80t-68 -199q0 -107 64 -194t183 -87q97 5 126 167v476q-54 -63 -154 -83zM1360 29q-63 1 -100.5 18t-61.5 54q-29 -37 -82 -64.5t-133 -27.5q-144 0 -256.5 100.5t-112.5 233.5q1 87 53 166.5t132.5 115t173.5 49.5q67 16 110 42.5t43 74.5
q-2 69 -41 125t-129 56q-72 0 -121.5 -59t-50.5 -125h-45v159q0 20 72 40q73 20 178 20q109 -2 193.5 -64.5t84.5 -157.5v-589q0 -117 94 -117q185 35 267 191.5t82 382.5q-20 335 -232 540q-197 188 -480 188q-205 0 -392.5 -137.5t-269.5 -355.5q-67 -178 -67 -361
q0 -313 129.5 -511.5t305 -290.5t318.5 -92q274 0 575 208v-75q-263 -184 -571 -184q-240 0 -461 122.5t-343 342t-122 461.5t124 464.5t345.5 342t456.5 119.5q362 0 609 -230t247 -566q0 -270 -176 -439q-175 -168 -346 -170z" />
    <glyph glyph-name="A" unicode="A" horiz-adv-x="873" 
d="M463 1503h14q69 -29 83 -337q-4 -111 -4 -144l-3 -8l3 -7q-7 -97 -17 -170q3 -7 3 -11q-6 -12 -6 -22q3 -26 3 -29q-9 0 -14 -94h11v-22q-10 0 -14 -86l3 -8q-3 -6 -3 -14v-4l127 -69q57 -21 110 -54q23 0 27 -14l7 3h7v-7q-37 -6 -45 -25q-21 -8 -31 -8v-3h11v-7
q-18 0 -41 7q0 -5 -11 -11q-2 0 -20 4l-7 -4q-4 0 -4 4l-134 -22l4 -36v-22q0 -4 -4 -4l4 -7q10 -230 24 -311q-4 -6 -4 -18h-13l-7 3v-3q3 -7 3 -15q-10 0 -13 -18h-4v-11l17 -14q0 -11 -10 -11v-11q3 0 3 4q14 -4 24 -4v-7l-6 -11q10 0 10 -15q7 0 7 11t-7 47h3
q6 0 14 -58q-3 -14 -14 -14q-6 4 -10 4v-4q1 -7 7 -7q-7 -18 -10 -18q-7 3 -11 3q0 -3 -3 -3l-7 10v8l7 -4h3q7 0 7 7q-3 7 -3 15h-11q0 -15 -6 -15q-4 9 -14 69l3 25q-13 0 -24 113l10 7q2 -7 7 -7v3l-3 18h-4q0 -10 -6 -10q-11 16 -11 29q5 14 11 14h13l7 -4v4l-3 14
q3 7 3 11q-3 0 -3 4q-18 -4 -28 -15h-3q0 20 -7 55q0 3 3 3q-6 30 -10 98q5 15 10 15q2 -8 7 -8h7q-8 26 -20 26l-7 11q2 21 10 21l21 -3v7q-11 0 -11 7v4l7 11v3h-3q-11 -7 -17 -7l-7 11v4l3 7q-16 11 -79 29q0 4 -82 40q-74 63 -100 90h-3v-11q-11 -67 -59 -286
q-16 -54 -31 -123q-46 -130 -65 -130h-3q-14 7 -14 21l14 196q0 4 -4 4q5 39 7 47q0 3 -3 3q5 80 10 80l-3 7q55 389 130 674q72 220 148 343q44 74 44 87q0 11 14 22l17 -4h4q48 21 48 55q13 0 20 7zM450 1492v-7h3v7h-3zM257 1022l4 -19q-10 -58 -21 -58q4 -19 4 -21
l-11 -26q4 -19 4 -21q-19 -132 -24 -142l3 -7q0 -18 -7 -18q0 -3 4 -3q-4 -12 -4 -58q133 -22 210 -55q5 -3 17 -3v3q0 17 -3 22q3 40 3 69v65q0 19 -3 33q3 19 3 36v148q0 4 3 4l-3 7v91q0 8 3 14q-3 6 -3 15q0 238 -27 271q-7 0 -7 7q-21 0 -28 -43q-11 -10 -55 -120
l-24 -76q-12 -22 -17 -65q-7 0 -17 -50h-4zM312 1260v-3h7v3h-7zM285 1188v-7h3v7h-3zM487 772v-8h4v8h-4zM467 699v-3h7v3h-7zM690 417l-7 -11l7 -4h4q6 0 6 8v3q-3 0 -10 4zM639 413v-7h10q0 7 -7 7h-3zM738 410v-8h4v8h-4zM659 381l7 -4h4q6 0 6 7v11h-3q-5 0 -14 -14z
M711 395l-4 -7v-15h11q0 6 6 15v4zM487 345v-11h4v11h-4zM498 319v-7h3v7h-3zM474 283v-7h7v7h-7zM501 265l-3 -15q8 8 14 8q0 7 -7 7h-4zM508 214v-3q1 -8 7 -8v4q0 7 -7 7zM470 207v-4l4 -7l-4 -22q1 -7 7 -7q7 27 7 29q-10 0 -10 11h-4zM494 207l-3 -7v-11q5 0 10 11
q0 7 -7 7zM512 160v-7q1 -8 6 -8v8q0 7 -6 7zM491 156v-11h-4l-10 8l-3 -8v-21h3l10 7l7 -4q0 9 7 18v4q0 7 -7 7h-3zM515 131v-15q7 0 7 8q0 7 -7 7zM515 106v-8q1 -7 7 -7v15h-7zM515 84v-11q1 -7 7 -7l3 18h-10zM494 51v-3q1 -8 7 -8l4 8v3h-11zM515 48q3 -12 14 -15v15
h-14zM522 22v-7q7 0 7 7v8q-7 -2 -7 -8zM487 8q3 -22 11 -22q0 8 3 15q-3 7 -3 10q-7 -3 -11 -3zM518 8q0 -4 -3 -4q5 -14 10 -14h7v3q0 6 -14 15zM518 -32l7 -4h7v4q0 7 -7 7q-7 -1 -7 -7zM491 -46q7 -12 7 -19q10 0 10 15l-3 18h-4q-3 0 -10 -14zM542 -61h7v-11h-7v11z
M536 -83q8 -7 13 -7v-7q-10 0 -10 -15h-7q0 7 -10 18zM515 -141l-3 -7q3 -6 3 -14h14v3q-7 17 -14 18zM553 -217l7 -11v-3h-4q-5 0 -10 11zM539 -235q6 -3 17 -3v-15q0 -3 -3 -3q13 -38 13 -44l-6 -4h-4q0 7 -10 19l3 32l-7 4q0 -15 -10 -15q-5 0 -10 11v7q1 8 7 8l7 -4z
M532 -285h10v-8q0 -7 -6 -7h-4v15zM560 -307l10 -15q0 -5 -14 -14h-10l-4 18q6 0 18 11zM566 -347h7v-11h-7v11zM563 -369h7v-7h-7v7zM566 -398h11l7 -25h-4q-14 6 -14 25z" />
    <glyph glyph-name="B" unicode="B" horiz-adv-x="1041" 
d="M743 1490l9 -4q4 0 12 4q114 0 153 -99q16 -6 26 -34l-5 -24v-9h-8l4 -8l9 4h8q0 -12 -25 -62q0 -4 4 -4q-4 -83 -26 -83l-8 4l-4 -8h8q0 -23 -178 -203l-42 -54v-8q165 -137 165 -170q30 -50 30 -75l-5 -21q9 -1 9 -8l-4 -21q4 -7 4 -16q-13 0 -26 -46l13 9v-9l-17 -16
q4 -8 4 -17q-33 -11 -33 -16l4 -21q-46 -37 -47 -42l-8 5q-7 0 -17 -17q8 -1 8 -8q0 -9 -8 -9l-9 5q-11 0 -29 -50q-26 -4 -26 -21h-4q-6 0 -13 13q-13 0 -17 -29q9 -2 9 -9v-4h-5l-12 8q-11 -8 -17 -8l4 -16q-4 -9 -4 -13h-4q-9 0 -9 8q-8 -4 -13 -4q5 -8 5 -12
q-7 -17 -13 -17q-8 4 -17 4q-6 -29 -13 -29l-8 5q-13 0 -21 -38h-5q0 8 -8 8h-4l-13 -8l4 -8l-42 -33v-4h-9v4q4 8 4 12q-3 0 -21 -25l4 -8v-4l-46 -25v12q-11 0 -13 -16l-8 4q-13 -17 -22 -17l5 -8q-5 -8 -5 -12h-12q-4 0 -4 4q-43 -29 -43 -46h-21q-18 -33 -26 -33
q-16 0 -33 -25l-17 -8l8 -17l-13 -8l-21 4q-6 -16 -13 -16q-8 4 -12 4q0 -5 -64 -37l-34 -25q-16 -30 -131 -58q0 -10 -55 -17q0 -4 -5 -4q0 6 -25 12l-17 -8q-21 4 -21 8l-9 -4h-8v4l4 21q-4 0 -4 4q-14 -8 -21 -8l-17 8q-8 -4 -13 -4l8 13v20h5q12 -4 12 -8l9 4h4
q4 0 4 -4q14 8 22 8l21 -4q0 6 102 54q134 80 161 112q-34 40 -34 70q0 14 12 33q0 192 166 949l-4 9q0 4 4 4l-4 29v8q0 62 80 158q34 66 43 99l21 4v-4l8 4h4l17 -16h5q213 128 347 128zM748 1457v-4l21 4q27 -8 29 -8v4q-5 16 -38 16q-6 0 -12 -12zM684 1453l-17 8
l-9 -12q7 0 13 -13q38 10 38 25l-8 4h-4q-6 0 -13 -12zM811 1465q0 -4 -4 -12h8v12h-4zM722 1457q1 -8 9 -8l4 8h-13zM841 1453v-9h8q0 9 -8 9zM603 1432q16 0 26 -8q8 0 8 8v8q0 9 -8 9q-26 -12 -26 -17zM726 1440v-8h13v8h-13zM697 1436v-8h4q8 0 8 8h-12zM841 1436v-8
q4 0 12 -4l5 8q-10 0 -17 4zM582 1420l9 -5l4 9v4h-4q-9 -1 -9 -8zM777 1428v-8h4v8h-4zM548 1395l-4 -9l8 -4q9 0 9 9q-5 0 -13 4zM841 1391v-5q1 -8 8 -8h4q-4 8 -4 13h-8zM909 1386v-4q1 -8 8 -8v4q0 8 -8 8zM599 1370v-8h4v8h-4zM752 1362q0 -42 -43 -42h-4q-6 0 -13 17
q-16 -3 -38 -38h-34q0 -9 -4 -16q-17 8 -25 8q0 -8 -9 -8l-8 4q-25 -38 -81 -62q-8 4 -13 4q0 -22 -34 -29q-4 -12 -8 -12l4 -9v-4q-3 0 -29 -8l4 -29q-30 -136 -38 -286q4 -35 4 -54q0 -126 -59 -311q0 -26 -26 -58l4 -8q0 -4 -4 -12l4 -21q-12 -14 -21 -79
q-12 -50 -17 -50l4 -16q-8 -57 -21 -104v-21l17 9h21q0 29 89 74q51 34 51 42q18 8 26 8q1 -8 8 -8h9q0 8 4 8l-4 8v9q26 25 51 41q0 14 38 25q0 15 97 99q89 96 89 174q-18 88 -63 125q-52 29 -89 29q-53 -67 -123 -83q-77 25 -77 149v12q0 57 68 96h9l-5 8v25l51 29
q20 33 26 33h8v-8h4q3 33 13 33l13 -8h4q0 11 51 33l85 79q31 10 76 78q45 36 59 87q-29 18 -29 21l-21 -17h-5q-9 0 -17 5q-7 -5 -17 -5h-4q-8 0 -8 9v4l12 16v5h-12zM697 1353v-8h4v8h-4zM599 1312v-8q6 0 13 12v8q-6 0 -13 -12zM900 1316v-4q6 0 13 12h-4q-9 -1 -9 -8z
M578 1312l-4 -8v-5h4q8 0 8 9zM446 1295v-8h9v8h-9zM879 1291l-4 -8h4l4 8h-4zM548 1279v-4h9v4h-9zM875 1237v-4h8v13q-8 -2 -8 -9zM391 1150v-4h5l4 17q-9 0 -9 -13zM781 1163v-9h9v9h-9zM353 1138v-8h4v8h-4zM811 1109v-4q6 0 13 12h-4q-9 -1 -9 -8zM722 1113v-12h4
q9 0 9 8v4h-13zM387 1105v-9h4v9h-4zM688 1084v-12h13v4q0 8 -9 8h-4zM328 1076v-17h8v4q-4 8 -4 13h-4zM324 1047v-5q8 0 8 9v4q-8 -1 -8 -8zM752 1047h8v8q-8 -1 -8 -8zM302 1030v-8q9 0 9 8h-9zM722 1026l-4 -8h4q8 4 13 4v4h-13zM324 993v-9h4v9h-4zM485 968v-8q8 0 8 8
h-8zM815 703v-9q2 -8 9 -8h4v8q0 9 -8 9h-5zM845 612v-9q8 0 8 9h-8zM811 578l4 -8v-4l-4 -8h9l4 29zM777 554v-13h4v13h-4zM815 525h5q6 0 12 12v4q-6 0 -17 -16zM811 520v-16q9 0 9 8t-9 8zM726 487v-8h5v8h-5zM781 467v-13q9 0 9 8v5h-9zM688 433v-8h9v8h-9zM663 396v-8
q4 0 12 -4v12h-12zM739 375h4v-8h-12q1 8 8 8zM633 351l-4 -17q6 0 13 17h-9zM603 342v-12h13v12h-13zM239 317v-8q8 0 8 8v9q-8 -2 -8 -9zM209 226v-12h4v12h-4zM188 214v-9h4v9h-4zM230 201v-12h13v4q0 8 -8 8h-5zM366 164q1 -8 8 -8v8h-8zM413 131v-4h4q8 4 13 4v8h-9
q-8 -1 -8 -8zM324 135v-4q1 -8 8 -8l4 8v4h-12zM324 110v-8q8 0 8 8h-8zM230 60q5 -8 5 -12q8 0 8 8l-8 4h-5zM-41 -105l8 -4v12q-8 -1 -8 -8zM-3 -126v-12h9v12h-9zM-66 -130v-8h4v8h-4zM-206 -180q0 -4 -5 -12l17 -4v4q0 6 -12 12zM-96 -180v-4h8v4h-8z" />
    <glyph glyph-name="C" unicode="C" horiz-adv-x="1005" 
d="M708 1503q38 -10 38 -37q7 -41 14 -166h-3q6 -12 14 -92l35 -81q0 -85 -84 -115h-25q-59 10 -59 33q0 9 -11 23v11q10 20 25 177l-7 3q-60 -61 -77 -99q-26 -23 -123 -137q-7 0 -95 -107q-17 -26 -38 -40q3 -7 3 -11q-24 -22 -24 -30q-40 -53 -77 -114q-8 0 -11 -22
q-6 -4 -14 -4v-11q0 -12 -31 -85q0 -11 -14 -37q3 -7 3 -11q-10 -19 -14 -55l4 -26q-3 -22 -7 -22q30 -190 52 -229q37 -111 53 -111q0 -23 52 -70q0 -6 28 -26q27 -17 56 -26q7 4 11 4q3 0 3 -4q39 0 106 37q37 41 84 78q2 17 42 48q14 21 63 62q38 34 59 67l32 29
q3 8 87 78q0 15 21 18q-26 -43 -52 -66q-94 -103 -98 -103q-23 -30 -35 -30q-8 -24 -35 -44q0 -19 -21 -19v-22q-28 -9 -28 -29h-7v3l3 8l-7 3q-11 -12 -17 -44q-15 0 -35 -29q-11 0 -11 -11h-7v11h-3q-5 0 -28 -45h-4q-3 7 -3 15h-4q-28 -18 -28 -37h-7l-7 4q0 -8 -42 -26
v7h-14q0 -12 -35 -18l-21 4q-25 -4 -28 -4q0 5 -11 11l-21 -4q0 11 -49 26q-24 14 -24 19t-7 14l-7 -3h-4q-21 22 -31 22q0 9 -49 55q0 4 -25 37q0 8 -24 44q-46 128 -46 185q-3 0 -3 4v40q0 16 3 41q-7 12 -7 22q5 15 11 15l-4 18q0 44 46 185q7 0 21 51q-7 0 -7 8
q15 29 21 29l-4 8q18 21 18 36v12q7 0 21 14l-4 8v7q75 155 354 480q105 113 137 125q45 32 87 48q0 15 11 15zM245 957v-4h7v4h-7zM168 824v-15h4v15h-4zM161 754v-7q7 0 7 7v7q-7 -1 -7 -7zM109 721q0 -21 -4 -41q11 0 18 33zM133 721v-8h4v8h-4zM161 721v-8h7v8h-7z
M168 699l-3 -15v-15h3q0 17 7 26v4h-7zM91 684q0 -19 -10 -19v-11q17 4 17 30h-7zM112 651v-8h4v8h-4zM890 418v-18h-4l-7 3q6 15 11 15zM238 -3v-18h4q5 0 10 11q0 7 -7 7h-7z" />
    <glyph glyph-name="D" unicode="D" horiz-adv-x="1005" 
d="M293 1503q38 -3 38 -9l10 4q214 0 388 -145q93 -84 139 -264q17 -66 17 -87v-50q0 -10 5 -18q-5 -24 -11 -64q0 -4 6 -4q0 -138 -135 -382q-50 -70 -161 -182q-5 0 -59 -46q-51 -35 -92 -68q-9 0 -59 -37q-36 -30 -91 -63q-14 -16 -43 -23l-33 -18q-12 -28 -48 -28
q0 9 -11 9l-48 -18l-11 5l-5 -9l5 -73h-5q-49 39 -81 246q16 171 48 332h6q0 4 -6 4q113 636 140 747q-32 10 -32 18v5q11 13 16 31h-5q-14 0 -16 -18h-6q-7 0 -21 28l16 18v13q-16 17 -16 32l-11 -4q-11 16 -11 36v14q0 43 113 54q9 0 70 14zM164 1371v-9h5v9h-5zM223 1357
v-9h6v9h-6zM159 1348v-9h5v9h-5zM207 1335v-14h5v14h-5zM164 1326v-5h11v5h-11zM196 1312v-5h16v5h-16zM395 1257q0 -59 -16 -164l5 -9q-21 -117 -53 -195q5 -9 5 -14q-14 -18 -21 -73q-8 -6 -33 -59l6 -9v-9l-43 -87q10 -1 10 -9v-9q0 -8 -32 -23q-5 -14 -5 -27q16 0 16 -9
v-5q-23 -12 -27 -54q-22 -17 -22 -28l11 -18l-21 -9l5 -23q0 -12 -27 -36v-5q2 -9 11 -9q-5 -18 -22 -18l11 -32q-16 0 -27 -41v-4l11 -14q-11 -25 -32 -32q11 -15 11 -27q0 -9 -22 -9q0 -8 11 -27q-11 -12 -16 -82q139 124 295 236q252 205 286 273q86 138 86 269
q-6 25 -6 36h6l-6 9v9q0 5 6 5q-22 130 -70 214q-56 94 -210 132l-22 4q-59 0 -59 -18zM675 1212v-5h11v5h-11zM718 1125l-5 -18h10l6 18h-11zM756 1030v-9h5v9h-5zM756 966q1 -9 10 -9v9h-10zM164 911q0 -4 -5 -13h10v13h-5zM788 902l11 -4v13q-11 -1 -11 -9zM261 816v-14
h5q8 0 16 14v4h-5q-11 -4 -16 -4zM831 820v-9h5v9h-5zM180 761v-27h5l6 23v4h-11zM686 606q5 -8 5 -13h5v13h-10zM680 588l-5 -18q8 0 16 18h-11zM691 534q0 -11 -5 -19h5l11 19h-11zM67 452v-14q11 0 11 9v5h-11zM487 370v-5h10v5h-10zM454 356q2 -9 11 -9v9h-11zM379 283
v-9h5v9h-5zM341 256v-14h11v5q0 9 -11 9zM304 229v-14h11v5q0 9 -11 9zM298 160v-13h11v13h-11zM180 124h11v9q-11 -1 -11 -9zM94 -67h16q6 0 6 -5l10 5h11q0 -9 11 -32h-27q0 11 -27 32z" />
    <glyph glyph-name="E" unicode="E" horiz-adv-x="1255" 
d="M219 1531v-5q0 -10 -13 -10v-11q30 -25 59 -25q4 0 4 5q46 -5 46 -10l9 5h12l13 -10q9 0 17 5l25 -16l38 5q38 -15 46 -15l8 5q39 -6 51 -15q7 5 16 5q2 -10 9 -10q2 0 17 5q42 -4 42 -10l8 5q30 -2 30 -11q4 0 4 6l21 -6q4 0 12 6l55 -11q4 0 4 5l88 -10l9 5
q46 -5 46 -15q-8 -2 -8 -10v-5q4 0 12 -5l4 10q-4 10 -4 15l9 5h134q10 0 17 5l8 -5l26 5l12 -10h13v10h4l13 -10h25l21 5l4 -10q-34 -5 -34 -20l-8 5h-13q0 -26 -8 -26h-8l8 15v6q-15 0 -34 -31l-8 5q-14 -10 -25 -10h-17q0 -16 -8 -16h-13q-4 0 -4 5q-31 -15 -122 -25v5
q-52 -15 -114 -15v5q-13 -11 -25 -11q-4 10 -4 16q-11 -17 -59 -21q-4 0 -4 5l-109 -10q-22 5 -51 5h-25q-4 0 -4 5l-9 -5q-37 4 -37 11q-18 -11 -26 -11l-180 26q0 -5 -4 -5l4 -10q0 -24 4 -159q0 -112 -29 -282h33q20 0 42 -5q5 0 13 5q77 -10 197 -10h17q15 0 84 36v-10
q-13 0 -34 -41l-8 5q-14 -26 -21 -26v-5q13 0 13 -10l-13 -10l-8 5h-5v-5h9q-60 -52 -223 -52q-24 0 -50 11q-4 0 -4 -6l-63 11q-21 -90 -30 -103l4 -10q-28 -93 -50 -200l-38 -189q0 -21 -8 -36q28 -61 88 -61v-6l8 6l68 -16q4 0 4 5q74 -15 285 -15h9v-15h4q8 0 8 15h38
v-15h13q8 17 71 20q5 -10 5 -15h16q0 15 9 15h25l21 -5q0 11 88 26v5l17 -5l29 5v-11h-21q-12 -15 -79 -40h-5v10h9v5h-13q-11 -41 -21 -41q-8 0 -8 10q4 0 4 5h-13q0 -20 -8 -20h-4v10h-9q0 -5 5 -5q0 -31 -47 -36q0 -5 -8 -5q-4 0 -4 5q-38 -15 -189 -36v5
q-26 -8 -135 -15q-23 5 -38 5h-134q-21 0 -21 10q-22 -15 -80 -15q-54 15 -63 77q0 123 29 153q0 34 17 205q0 5 -4 5q24 178 34 374q-9 21 -9 31q12 0 25 153v77q0 5 5 5q-5 10 -5 16q0 32 5 77q0 3 -5 30q0 100 42 220v6q0 4 -8 41q0 20 17 30h8l13 -10q0 41 55 41z
M193 1516v-5h9v5h-9zM593 1413v-10q8 0 8 10h-8zM454 1393v-5l21 -5l-4 10l4 10h-4q-11 -10 -17 -10zM828 1393v-5h17v5q0 10 -9 10q-8 -2 -8 -10zM1067 1403v-10h9v10h-9zM622 1388v-11h8v11h-8zM920 1372l4 -10q9 5 13 5l-4 10q-8 -5 -13 -5zM555 1372v-15h8v15h-8z
M861 1367l-4 -10h13q0 10 -9 10zM979 1362q4 -9 4 -20h17v5q-6 20 -12 20zM664 1342q7 0 17 -11v26h-4q-6 0 -13 -15zM887 1336v-5h12q9 0 9 11v5h-13q-8 -2 -8 -11zM475 1342v-16l12 10l9 -5v11h-21zM828 1342v-16h8q9 0 9 10v6h-17zM399 1326h9v10q-9 -1 -9 -10zM945 1336
v-10q8 5 17 5v5h-17zM294 830v-6h9v6h-9zM113 502v-16h5v16h-5zM71 338v-10q5 -10 5 -16h4v16q0 10 -9 10zM567 87v-10h4v10h-4zM504 82v-15h4q9 0 9 10v5h-13z" />
    <glyph glyph-name="F" unicode="F" horiz-adv-x="968" 
d="M989 1572h11v-9q0 -8 -42 -33q-14 -28 -59 -28q0 -14 32 -14q0 -11 -42 -23q-11 -21 -22 -23h-5l-10 4q0 -14 -11 -14v14h-11q-6 0 -26 -27l-6 18q-28 -45 -42 -51q-14 0 -32 -14q-10 5 -16 5q-7 -20 -26 -28q-10 4 -16 4q-17 0 -40 -11q-30 3 -125 -3q-86 30 -205 -43
q-23 -156 -49 -357v-13l53 -5h74l27 5v-5q182 35 249 84q0 10 37 18l5 -9q-47 -29 -47 -75q-16 0 -37 -27h-6v4q6 9 6 14h-6q-12 0 -21 -51q-19 0 -64 -33q-8 0 -58 -27q-101 -38 -133 -38q-13 2 -28 -7l-19 3q-13 -8 -29 -8q-12 -45 -26 -150l11 -85q-1 -49 1 -76l-2 -25
q3 -19 -3 -43l5 -45q-5 -64 -21 -108q-35 -104 -64 -144q-15 0 -31 -37h-32v-5q5 -9 5 -14q-29 -8 -53 -37q-8 0 -21 19q-10 -5 -16 -5q30 0 80 200q0 5 -6 5l6 18q-16 376 -22 437l22 172l-6 10q74 223 100 434q-101 12 -176 8q-31 3 -72 18q-37 46 -48 51v19q5 14 32 14
v14h-11v9q28 0 32 14v23h11q0 -18 10 -18l292 28q0 4 148 18v-4q13 4 53 9q6 0 16 -5l53 5l32 -5q152 0 440 84zM740 1479v-9h5v9h-5zM820 1460v-9q10 0 10 9h-10zM740 1409v-9h16q0 9 -11 9h-5zM666 1372l10 -5l6 10v4h-6q-10 -1 -10 -9zM560 1377v-5h10v5h-10zM549 930
q2 -9 11 -9q10 0 10 9t-10 9q-11 -1 -11 -9zM491 912q16 -16 16 -24q10 5 16 5l-11 14l5 23h-5q-8 0 -21 -18zM555 888h15v10h-5q-10 -2 -10 -10zM517 879v-9q11 0 11 9h-11zM93 121v-5q2 -9 11 -9v5q0 9 -11 9z" />
    <glyph glyph-name="G" unicode="G" horiz-adv-x="1304" 
d="M819 1552q35 0 61 -97l-3 -28q0 -4 3 -11l-3 -28q0 -54 42 -74q15 -19 15 -23q-4 -35 -46 -117q-4 0 -15 -35h-27q-33 0 -69 51q4 7 4 12q-27 62 -50 77q-145 -27 -366 -335q-86 -118 -161 -373l4 -8q-46 -121 -69 -261q4 -7 4 -16v-4q0 -3 -4 -3q27 -138 57 -207
q24 -35 69 -35q36 0 161 105q0 7 49 51q62 67 146 183q-8 34 -8 54q0 30 15 47l8 -4h8q7 0 7 8v4q-27 6 -27 27h-7q0 -6 -8 -15h8v-8h-4q-4 0 -4 4l-7 -4q-74 5 -77 19q8 0 8 8l-8 4q-5 -19 -11 -19h-8q-31 21 -31 27h8v8q-15 0 -15 11q0 8 -8 8q0 -4 -4 -4q0 6 -11 12l4 19
l-4 16l7 4q13 -8 20 -8l-8 12v7l19 -3q133 15 157 15q23 -4 23 -8l15 4l61 -4l8 4l46 -11q6 3 15 3q19 -2 19 -11q4 0 4 4q40 -4 49 -16q8 4 12 4q2 0 38 -19l19 3q0 -5 12 -11q8 0 15 4q37 -15 118 -35q0 -4 4 -4l23 4v-4q-10 -24 -15 -24q0 4 -4 4l-4 -8l8 -3h15
q16 6 16 31l19 -4h23v-4q0 -8 -8 -8q-4 0 -4 4q-7 -4 -11 -4l3 -8l-11 -15l11 -8q4 15 31 19v8h8q7 -1 7 -8q0 -15 -23 -15v-4h8v-12l-27 -4q-4 0 -4 4l-19 -11q-5 15 -11 15h-4l-19 -15q0 7 -8 7h-7v-11h-8q-8 0 -8 7q4 0 4 4h-15q0 -15 -12 -15l-3 8q-12 -4 -12 -8l-27 4
h-15l-23 -4l-7 4l-27 -4l-15 4l-8 -4l-19 4q-31 -14 -31 -105v-63q0 -16 -4 -43q4 -6 4 -19q-19 -80 -30 -105q3 -28 3 -31q-7 -13 -7 -24v-31h-12q8 -21 16 -105q0 -20 -27 -39q-8 0 -8 8l4 19l-8 -4h-3q0 7 -23 63l7 15q-21 0 -38 63v19q-19 0 -19 43q-27 47 -27 93
q-4 0 -4 4v8q1 19 8 19q-19 57 -19 71q-26 -29 -54 -51q0 -16 -7 -16q0 4 -4 4l4 8q-4 7 -4 16h-4q-41 -53 -114 -117q-13 -22 -43 -39q0 -13 -38 -31q0 -20 -7 -20h-4v8h-15q0 -16 -12 -16l4 -7q0 -8 -8 -8h-4v8h-3q-42 -22 -42 -28q7 -1 7 -7h-4q-12 7 -23 7q0 -5 -11 -11
l-8 4l-7 -12l-8 4q-28 -12 -65 -12q-40 0 -95 82v8q0 4 3 4q0 8 -19 15q-4 8 -7 35l-19 -8l-4 8q1 8 7 8q-8 39 -15 47l4 19v12q-4 0 -12 4l-3 -8l3 -23v-4h-3q-13 0 -27 117q0 22 -4 27q4 7 4 12l-4 23h4q0 4 -4 4q0 133 99 455q64 180 226 367q105 119 141 140
q82 76 233 144q77 66 92 66h15zM196 964v-8h8q0 8 -8 8zM716 613v-7h4v7h-4zM139 586v-8h4v8h-4zM452 571q0 -6 12 -12q0 6 8 16v7h-8q-6 0 -12 -11zM510 559v-4h7v4h-7zM785 559v-4q1 -8 8 -8v12h-8zM674 551v-8h12v4q-4 0 -12 4zM51 536h8v7q-8 -1 -8 -7zM968 539v-7
l27 -4l4 8v7q-21 -4 -31 -4zM1030 532q0 -6 11 -12h4q7 0 7 12q-3 7 -3 11q-19 -5 -19 -11zM1064 524v-12q1 -8 8 -8l11 16v4q0 8 -8 8h-3q-8 -2 -8 -8zM502 528l4 -8l-4 -8h8q0 9 4 16h-12zM624 528v-8h8v8h-8zM655 528v-8h8v8h-8zM1010 524v-8h8q8 0 8 8h-16zM128 512v-11
q8 0 11 19h-4q-7 -1 -7 -8zM540 520q8 -10 8 -19h8l-4 19h-12zM1190 524h8v-8q-8 0 -8 8zM1255 524v-4q-1 -8 -34 -23h-4v7q0 6 38 20zM166 516v-8h4v8h-4zM579 508v-4q5 0 11 12h-4q-7 -1 -7 -8zM666 512q0 -6 16 -11l4 7l-8 4h-12zM55 504l-8 -27v-8h4q0 12 8 32v3h-4z
M559 504v-3h8v3h-8zM987 501v-4h8v4h-8zM1041 501v-12h8v4q0 8 -8 8zM120 497v-20h11q0 4 4 12l-11 8h-4zM1072 497v-4h7v4h-7zM1091 497v-4q1 -8 7 -8l4 8v4h-11zM968 489v-4q2 -8 8 -8h11v8zM1037 485v-8q8 0 8 8h-8zM51 465l-4 -7v-4q2 -8 8 -8l4 8v4q0 7 -8 7zM116 434
q13 -7 19 -7l4 7l-8 12q4 7 4 16h-4q-7 0 -15 -28zM109 438v-8h3v8h-3zM636 430v-3h8v3h-8zM632 399v-8h4v8h-4zM112 395l-3 -27q30 6 30 23h-4l-7 -3zM47 376v-12h4l4 20q-8 -2 -8 -8zM124 337h4q8 0 11 19h-4q-8 0 -11 -19zM89 353v-8h4v8h-4zM47 345q0 -10 -3 -31h11
l4 19q-4 8 -4 12h-8zM659 341v-4h15v8h-4q-7 -4 -11 -4zM120 329v-8q1 -7 8 -7h3q0 4 4 11zM632 310q0 -7 -11 -20v-8h7q16 7 16 28h-12zM86 302v-8h3v8h-3zM51 290v-8q8 0 8 8h-8zM112 282q0 -6 -11 -19q27 0 30 -4l4 8v4q0 6 -23 11zM105 240v-12h4v12h-4zM120 224v-8h4v8
h-4zM105 216q4 -7 4 -11h3v11h-7zM514 216v-8h3v8h-3zM109 170v-24h7v4l-4 20h-3zM135 158q0 -9 -11 -31q4 0 4 -4q15 4 15 23v4q0 8 -8 8zM128 115v-4q6 -39 15 -39v24q-10 19 -15 19zM410 111v-8h8q0 8 -8 8zM395 53h4v-8h-4v8zM185 29v-19q5 0 11 12v7h-11z" />
    <glyph glyph-name="H" unicode="H" horiz-adv-x="1164" 
d="M770 1609q16 -7 18 -14v-3q0 -3 -4 -3q2 -8 14 -21q0 -8 -10 -27q3 0 3 -3q-5 -5 -21 -48q-3 0 -3 -6l3 -7l-14 -48l3 -17q0 -13 -17 -13v-4l7 -10v-7l-7 -10v-3h7q-4 -35 -11 -44q4 -7 4 -10l-4 -7q4 -6 4 -14q0 -6 -7 -17l3 -20q-5 -34 -10 -34l3 -17v-10
q0 -10 -14 -10l4 -7v-17h7v-24h-4l-7 4v-11l4 -6l-11 -7q4 -7 4 -10h3v7h7v-21h-3l-11 7v-3q11 -15 11 -48q-6 -3 -14 -3v-4q7 -8 7 -13q-7 -11 -7 -17l7 3q0 -3 3 -3q-7 -39 -7 -48h4v-3h-7q7 -24 7 -27l-7 -14l3 -7q-7 -13 -7 -20q7 -1 7 -7v-3l-10 -20h7q10 0 105 27
q6 -4 14 -4q0 13 96 34q0 4 3 4h7l11 -7h7l7 3l-4 7v7l35 7v-7l-3 -7l11 -7h7l-4 24h11q7 -1 7 -7t-7 -20h3l21 10l-3 7q3 20 10 20q7 -3 11 -3q-9 -44 -42 -44q-19 -14 -25 -14q-11 7 -18 7q0 -4 -3 -4l3 -6v-4q0 -5 -10 -10l-14 10q0 -6 -7 -6l3 -7v-7l-32 -17q0 -3 -3 -3
q-7 3 -11 3q-7 -21 -17 -24h-4v7h-7q-32 -26 -32 -34h-3l-11 7h-7v-17q0 -5 -10 -10q-7 8 -7 17h-11l-3 -17q7 -1 7 -7q-51 -29 -64 -41l-24 -13q7 -14 7 -21q-4 -6 -4 -10h-3l-7 4l-4 -24q6 -4 14 -4v-3q0 -24 -14 -24q0 -2 -4 -44q0 -3 4 -10q-7 -11 -7 -20v-7q11 0 11 14
h7v-14q0 -15 -18 -37q3 -7 3 -11l11 7h4v-10h-15v-7l8 -10q-8 -10 -11 -41q11 0 11 -6q-8 -21 -18 -24q0 7 -7 7v-4q15 -27 21 -27q-7 -9 -11 -44q7 0 7 -3q-21 -26 -21 -38q4 -6 4 -10l10 7h4q0 -16 -18 -20q0 -11 -7 -48l4 -13l-7 -34q3 -7 3 -10q-21 -34 -28 -116
q-28 -61 -32 -61q0 7 -24 44q0 9 -25 51v58q14 0 14 7v6h-3q-7 -3 -11 -3v3q2 24 11 24l-4 7v3l11 14v3q-7 0 -7 -10h-7q0 24 14 24v3h-7v14l10 13v11l-7 10q0 25 11 27q0 3 -4 10q11 142 11 234q0 27 14 27v7l-11 13q1 5 18 14q-4 6 -4 17h-3q0 -17 -7 -17q0 34 -7 34
q-123 -54 -183 -58q-11 -9 -18 -23v-4l7 -10l-11 -17q4 -6 4 -14q-14 -23 -14 -33q7 -2 7 -7v-4q-18 -16 -18 -37h7v-7l-10 -13l3 -17q-17 -5 -17 -38q7 -1 7 -6q-14 -5 -14 -10q3 -7 3 -11q-15 -34 -25 -40q0 -22 -14 -72l4 -6q-18 -26 -32 -126l-10 -7l3 -6
q-25 -86 -56 -143q0 -7 -21 -10v10h7v7h-14q-7 27 -22 27q0 13 -17 24l7 24q-7 0 -7 6v4q46 140 84 447q0 19 7 109l-24 3h-67q-7 0 -7 10h-25q-56 42 -67 61q-15 0 -28 38q0 30 102 30q134 22 134 27v4q32 403 63 583q-3 7 -3 10q0 4 3 10q-7 35 -7 75q19 75 53 75
q0 6 36 6h3q44 0 63 -50q18 0 18 -28q-10 -47 -10 -50v-38q0 -39 -8 -54q0 -4 4 -10l-14 -231q3 -6 3 -10l-21 -169l4 -17l-7 -34q0 -4 3 -4l-7 -34h4q143 31 169 44q3 0 10 123l7 3q0 -3 4 -3q0 5 7 13v7h-14q0 25 14 37v10h-7q4 44 7 51l7 -3h4v13h-11q11 100 28 163
q0 4 -3 4q0 23 17 23q0 3 -10 10q24 145 56 228h7l7 -4v7h-7v3q36 92 53 92zM767 1538q-8 -28 -8 -31q8 0 11 27v4h-3zM710 1490v-6h4v6h-4zM707 1480v-7h3v7h-3zM671 1348v-7h4v7h-4zM710 1348v-4h7v4h-7zM717 1219v-7h4v7h-4zM647 1185v-7h3v7h-3zM640 1141l-4 -14v-3h4
l3 14v3h-3zM640 958l-4 -17v-3q5 0 11 10q-4 6 -4 10h-3zM611 910q11 4 11 21v10q-8 0 -11 -31zM1055 941h7v-7q-7 0 -7 7zM1059 927h7v-6h-7v6zM890 880l3 -17h4l7 3l-4 7v14q2 6 7 6h4q0 -10 7 -10h4q7 0 7 7q-8 17 -11 17q-17 -4 -28 -27zM611 893q0 -8 -3 -27h11
q0 7 3 7q-3 5 -3 20h-8zM833 873q6 -13 11 -13q7 0 7 6q-3 6 -3 14h-7q-8 -1 -8 -7zM862 873v-13h3q0 7 4 13h-7zM640 856l-4 -13q7 0 7 10v3h-3zM812 853v-10h14q0 4 -10 10h-4zM865 853l-3 -7v-7h10v7q0 7 -7 7zM781 836l7 -4l3 7v4h-3q-7 -1 -7 -7zM837 832l-4 -6v-4h11
v4q0 6 -7 6zM693 710v-6h3v6h-3zM20 700v-7h3v7h-3zM640 619v-10h3v10h-3zM696 605h4v-10q0 -7 -7 -7l-4 7v3q1 7 7 7zM249 578v-13h7v13h-7zM590 571q0 -3 -3 -10h3q7 0 7 7v3h-7zM640 531l-4 -17v-7l11 7q-4 5 -4 17h-3zM242 524v-10h7v10h-7zM280 520q0 -3 -3 -10l7 -3h3
v7q0 6 -7 6zM340 520v-6q7 0 7 6h-7zM587 510v-3h3q7 0 7 7v3h-3q-7 -1 -7 -7zM305 493v-3h11v10h-4q-7 -1 -7 -7zM330 470v-14q5 0 10 10v7q-7 -3 -10 -3zM305 459l-4 -17h4q5 0 11 14l-8 3h-3zM256 456v-3q1 -7 7 -7l3 7l-7 3h-3zM608 449v-7h3q8 0 8 7v7h-4q-7 -1 -7 -7z
M689 459h7v-3h-7v3zM217 398l7 -3v10q-7 -1 -7 -7zM664 405l-3 -7v-6h7q0 3 3 10zM256 392v-4h7q0 4 3 10h-3q-7 -1 -7 -6zM604 398v-6h7q8 0 8 6h-15zM668 375v-7h3v7h-3zM668 364v-6h3v6h-3zM608 351v-7h7v7h-7zM234 327v-3h8v10q-8 -1 -8 -7zM312 317v-7h4v7h-4zM611 310
v-7h8v7h-8zM319 300l7 -10l-10 -7l-4 7v3q1 7 7 7zM206 273v-7h7v7h-7zM611 239v-7h4v7h-4zM182 188v-10h3l4 17q-7 -1 -7 -7zM224 161v-7h3v7h-3zM185 158v-7h4v7h-4zM185 141v-7h4v7h-4zM562 134v-10h4v10h-4zM562 120q4 -6 4 -10h3v10h-7zM164 110v-7h7q0 7 -7 7zM601 93
v-10h3v10h-3zM175 56h7v7q-7 -1 -7 -7zM587 29h3q5 0 11 10v24h-4q-8 0 -10 -34zM153 59v-7h4v7h-4z" />
    <glyph glyph-name="I" unicode="I" horiz-adv-x="398" 
d="M218 1535l4 -8v-4h-8v-8l8 4l16 -128q0 -4 -4 -4l4 -20v-48q0 -9 4 -16q-4 -12 -8 -12l4 -20v-96q0 -8 -8 -8q0 4 -4 4v-12h8v-28q0 -10 -8 -36l8 -4q-12 -129 -24 -164l8 -4q-4 -52 -12 -84q4 -8 4 -12q0 -28 -12 -28v-8q8 0 8 -4q-8 -96 -16 -96v-12l8 -12
q-3 -28 -8 -28l4 -8l-8 -20q0 -4 4 -4q-5 -120 -16 -120l4 -8v-4q0 -4 -4 -4q4 -8 4 -12q0 -16 -8 -48l4 -8q0 -5 -8 -44l4 -8l-8 -28l4 -8q-3 -44 -12 -44q-4 7 -4 20h-4q-4 -21 -4 -24q8 -4 12 -4v-12q0 -12 4 -12q-3 -45 -16 -56l4 -20h-8v-4l12 -16v-36h-4l-20 4
q0 -4 -4 -4q0 -5 28 -24l4 -8q-29 -28 -44 -64q4 -8 4 -12l-12 -8l-16 28q-11 0 -16 36q0 4 4 12l-4 24l4 8l-4 8q0 4 4 12q-4 16 -4 28q0 4 4 12l-4 24v48q0 4 4 4l-4 8v16l8 12q-8 15 -8 32v16q0 6 12 12l-12 36q4 22 4 36l-4 24q3 16 8 16l-4 24q0 33 4 148h4l-4 8
q0 4 4 4q0 4 -4 4q8 140 28 252l-4 8l60 508q7 120 40 120q12 16 16 16zM182 1495v-8h4v8h-4zM210 1211q1 -8 8 -8l4 16h-4q-8 -1 -8 -8zM214 1167v-8h4v8h-4zM214 1111l-4 -8v-8h4q8 0 8 8t-8 8zM194 963v-4h8v12q-8 -1 -8 -8zM158 935v-8h4v8h-4zM146 691q4 -8 4 -12h4
q0 20 20 20v12h-4q-16 -5 -24 -20zM90 635v-4h8v4h-8zM94 543l-8 -12v-8q6 0 16 16zM154 467h4q6 0 12 12v8h-4q-9 0 -12 -20zM118 443v-12q8 0 8 8v12q-8 -1 -8 -8zM150 411h8l4 20v4q-8 0 -12 -24zM122 351l-8 -12v-16q16 6 16 12v8q0 8 -8 8zM122 235v-12h4v12h-4z
M126 167v-8h4v8h-4z" />
    <glyph glyph-name="J" unicode="J" horiz-adv-x="742" 
d="M608 1503q32 0 37 -4q46 4 72 4h123q40 0 300 -31l9 4q50 -9 50 -13l9 5q82 -6 82 -23h5l13 9q41 -3 41 -13q-9 -1 -9 -9l5 -9l-10 -4h-13l-32 4v-9q5 0 14 -4q8 4 13 4v-4q0 -6 -27 -13q0 -9 -9 -9h-9q-9 0 -9 9q9 14 9 22h-23q0 -5 -4 -13q4 -8 4 -18h-4l-14 9l-18 -14
h-9v5l4 31h-13q-10 0 -14 -36h9v-8l-23 -5l5 22v5q-10 0 -23 -27q-31 -9 -54 -9l-10 5q0 -14 -9 -14l-9 5q-120 -36 -209 -49q-149 -26 -168 -35q0 -56 -132 -510q-54 -167 -109 -522q-74 -292 -173 -479q-104 -236 -104 -252q-27 0 -27 -13q15 0 22 -5q-31 -59 -31 -66
q18 -34 18 -53v-18q0 -4 -5 -4q5 -9 5 -14q0 -75 -114 -110l-50 -27q-9 0 -9 9l-23 -5q-75 20 -77 45q-161 167 -168 279q-36 104 -36 279q0 4 -5 13l5 27v35q1 9 9 9q0 -5 4 -5v14l-9 13q27 17 27 75h5q9 -1 9 -9q0 -11 -9 -53l9 -4h5v13q0 10 4 18l-4 9l9 57h4q9 0 9 -26
h9q5 60 5 88v9q0 5 4 5l-4 8l4 31q32 -8 32 -48q18 -170 78 -337q88 -213 127 -283h9q50 150 182 487q109 336 109 394q41 103 100 483q59 283 82 350q0 22 4 22q0 4 -4 4q12 84 27 84l-5 9l5 22h-5q-7 0 -18 -26q-9 4 -14 4q-4 0 -13 -4l-73 13q0 -4 -4 -4l-5 9l-23 -5
q-36 0 -36 18h-5l-13 -9q-109 11 -109 53q-5 0 -5 5l9 17q-6 0 -13 14h13q0 6 -27 22q21 8 23 17v5h-19l-4 26q18 9 18 14l23 -5h32l27 5q9 -5 14 -5q4 0 4 5l23 -5h4q16 0 23 5q5 0 14 -5q76 5 118 5h41q10 0 18 -5q17 0 77 18zM1135 1450v-18h19l9 13v5h-28zM1213 1441v-9
h9q9 0 9 9v9h-9q-9 -2 -9 -9zM1004 1445v-4h9v4h-9zM1363 1450h4l23 -5v-8h-18q-9 0 -9 8v5zM1072 1437v-9h4q9 0 9 9h-13zM1158 1423l-4 -9q9 0 9 -13h13v9q0 7 -18 13zM1126 1419q0 -5 -4 -13l9 -5h9v18h-14zM1054 1406q1 -9 9 -9l9 13v4h-9q-9 -1 -9 -8zM1226 1414v-8h9
v8h-9zM1376 1419h9v-9h-9v9zM1099 1406v-9h5v9h-5zM1031 1401l-5 -9v-9h9q0 5 5 14zM1063 1392v-9h9q0 9 -9 9zM1135 1392l-4 -9h14q0 9 -10 9zM504 1184v-9h4v9h-4zM-260 55h5v-9h-5v9zM-264 -43q6 0 13 -17q-4 -9 -4 -14h4q9 0 9 9v40h-4q-15 -4 -18 -18zM-255 -87v-4
q4 -32 4 -36h9v18l-4 22h-9zM299 -96q2 -9 9 -9l5 9v5q-9 -5 -14 -5zM-283 -127v-13h10v13h-10z" />
    <glyph glyph-name="K" unicode="K" horiz-adv-x="988" 
d="M173 1552l18 -4v-3l-3 -7q11 0 11 -15q7 -25 10 -25l-3 -7v-4h3v8h4q19 0 40 -90q-4 0 -4 -4q16 0 29 -154q4 0 4 -25h-4q3 -6 7 -43q-3 -20 -3 -29l3 -25l-7 -18l4 -14q-4 -75 -7 -79l3 -7l-3 -25q3 -20 3 -32q-14 -22 -14 -33v-3l7 -11v-4q0 -12 -11 -25v-10
q7 -9 7 -22q23 6 160 169q96 88 155 168q124 142 214 212h4v-4q-104 -114 -112 -115q0 -12 -19 -25v-7q2 -7 8 -7q16 31 32 36q0 10 22 25q0 8 33 32q0 11 25 11q0 3 -4 3q8 22 15 22q1 -7 7 -7q0 5 11 11v-4q-10 -17 -44 -39q-5 -18 -25 -18l4 -18q-27 -29 -29 -29v4
q11 13 11 21q-60 -56 -69 -86h7q0 15 25 43q0 7 22 14v-3q-29 -37 -29 -40l7 -3q20 28 26 28q9 9 47 54h3v-3q-95 -130 -112 -144v-3q4 -7 4 -11q-29 -7 -29 -36q-24 -15 -36 -61h-4l-7 4q0 -15 -8 -15l4 -7q-7 -9 -7 -18h-4l-11 7h-3q-6 0 -11 -14q11 0 11 -14
q-4 -11 -7 -11q-12 7 -19 7l-3 -7q7 -1 7 -7v-7q0 -22 -36 -54q0 -25 -7 -25h-4v3l4 25q-11 0 -22 -39q11 0 11 -7q-52 -73 -66 -108q7 -5 19 -46q3 0 3 -4l-11 -14q20 -45 29 -47h4l7 18h7q0 -32 19 -32q0 5 10 10l8 -10q0 -7 -11 -7v-15q4 -27 14 -29v4q-3 7 -3 11l11 7
l3 -7l-3 -7l10 -33q-3 -31 -3 -39l7 -4h4l-4 25h7v22h8q0 -6 7 -14l-4 -33l7 -3l15 7l7 -11q0 -7 -7 -7q3 -18 11 -25l7 3h4q7 -1 7 -7l-7 -10l-8 3h-3q0 -18 -11 -21q3 -7 3 -11h4q15 9 15 25q5 0 14 -18v-4l-7 -10v-18q14 5 14 18h8q10 -21 10 -25q-7 0 -10 -25
q7 -12 7 -22v-4q0 -3 -4 -3q4 -7 4 -11q9 7 14 7q0 9 -7 33l18 10q0 -3 4 -3q0 -4 -4 -11q4 -32 11 -43q-5 0 -11 -11q4 -7 4 -11h11v8h3q8 -2 8 -8v-25q1 0 14 4q7 -4 11 -4v-10q0 -8 43 -76v-3l-11 7h-7q0 -18 -7 -18v-4h11l18 15q11 -13 11 -25q-7 -2 -7 -8l3 -18h7
q0 11 8 11q18 -51 18 -57v-4q-11 0 -11 -7q7 -32 7 -47l-3 -7q3 0 10 -3l4 25q-4 0 -4 3h4q-7 12 -7 22l11 7q7 -12 7 -21v-11l-4 -7q37 -19 37 -54q-4 0 -11 -4q-8 24 -8 33h-3q0 -9 -7 -18v-11q1 -7 7 -7h3l8 3l11 -39q0 -7 -8 -7h-7q0 15 -7 28l-7 -3q-15 7 -15 21h4
q0 15 -29 25l-4 15h4q-4 39 -11 39h-7q0 -7 -4 -7l4 -7v-4h-8q-7 23 -7 29q7 0 7 7v4q0 5 -11 10q-7 -1 -7 -7q4 -7 4 -11h-4q-5 1 -14 18q3 7 3 15q-23 0 -32 25l-44 50q0 8 -32 36q-69 97 -98 129q-110 133 -163 244q-31 61 -36 61q-22 -13 -22 -32q-28 -11 -36 -36
q-8 0 -29 -25q-5 0 -26 -36l-10 -7l3 -18q0 -22 -7 -22q0 -4 4 -4q-4 -28 -11 -28h-4l-7 3v-14h11q3 -7 3 -11q-11 -46 -14 -46l3 -7q-7 -40 -21 -58h-4v-7q15 0 15 -14q-26 -46 -26 -54h7v11h8l-22 -112l-7 4h-4l4 -18q-4 -7 -4 -11h7v-7q-9 0 -14 -32q0 -23 14 -36v-7
l-7 -11q7 -1 7 -7v-4h-3q-11 4 -11 8l-18 -11q-25 0 -37 100h4q-11 19 -11 86v47l-3 18h3l-3 7l3 21q-3 31 -3 47q0 3 3 22q0 3 -3 3l3 18v83q0 4 -7 39q29 239 29 412l4 25q-4 7 -4 15l4 7q0 4 -4 4l7 50l-3 7q3 32 7 39l-4 8q9 73 15 86q0 3 -4 3l7 47l-3 7q22 259 47 323
q19 32 25 32zM227 1448v-7h8v7h-8zM811 1398h3q0 -7 -7 -7h-4q2 7 8 7zM818 1344l4 -7l-11 -7v7q1 7 7 7zM796 1319l4 -7l-11 -7h-4v3q0 5 11 11zM640 1215v-4l4 -7q-7 -1 -7 -7q1 -7 7 -7l15 25l-11 7q-8 -1 -8 -7zM677 1193v-3h7v11q-7 -2 -7 -8zM622 1190v-7q8 0 8 7v7
q-8 -1 -8 -7zM644 1179v-7h4v7h-4zM604 1147l15 -11l7 4q-11 14 -11 21q-5 0 -11 -14zM590 1143v-11q5 0 11 11v11q-6 0 -11 -11zM648 1154v-11q7 0 7 7v4h-7zM586 1122q4 -7 4 -11h11v7q0 7 -8 7zM622 1125v-7h4v7h-4zM611 1104v-11h11l-3 18q-8 -1 -8 -7zM554 1100v-7
q1 -7 7 -7h7v14q0 7 -7 7q-7 -1 -7 -7zM528 1071v-7q1 -7 7 -7q4 11 8 11q-4 7 -4 11h-4q-7 -1 -7 -8zM586 1071q4 -6 4 -10h11v14h-8zM514 1064v-3h7v3h-7zM535 1039l8 -3l3 14q-5 0 -11 -11zM557 1043q1 -7 7 -7h4v14h-4q-7 -1 -7 -7zM539 1018v-7h4v7h-4zM144 1011v-4h7
v4h-7zM452 1000v-7h7v7h-7zM434 971v-3h7v3h-7zM510 917v-7q7 0 7 7v7q-7 -1 -7 -7zM456 892v-7h3v7h-3zM376 871v-7q7 0 7 7h-7zM456 849v-11h11q-4 7 -4 11h-7zM354 846v-8h4v8h-4zM434 824l-4 -7q0 -5 11 -11q6 0 11 14zM380 788v-7h3v7h-3zM409 756v-4h7v11q-7 -1 -7 -7
zM405 745v-3q5 -15 11 -15q0 4 3 11zM329 738v-7h4v7h-4zM383 720v-7h4v7h-4zM398 699v-8l7 -3q-4 7 -4 11h-3zM441 677h7q8 0 11 -29h-7q0 9 -11 22v7zM300 659v-7q1 -7 7 -7q0 5 7 14v11h-3q-5 0 -11 -11zM430 634l8 -4q7 0 7 8v3h-7q-8 -1 -8 -7zM445 605v-10q5 0 14 -11
l4 14zM492 605v-7h4v7h-4zM249 598l-3 -18h7l3 18h-7zM434 577h11v10q-5 0 -11 -10zM477 577v-4q2 -7 8 -7l3 7v14q-5 0 -11 -10zM503 552q5 -15 11 -15l3 22l-7 3q-7 0 -7 -10zM481 530q4 -21 11 -21q-4 19 -4 32q-7 0 -7 -11zM506 516q0 -8 -3 -15h3q8 0 8 8v7h-8z
M535 491v-18h8v18h-8zM481 483v-14h7q0 8 4 14h-11zM564 483v-3q4 -6 4 -15q-5 0 -14 -10q5 -15 10 -15q6 9 11 29q-5 14 -11 14zM151 469q0 -8 -3 -14l7 -4l4 7v4q0 7 -8 7zM506 465q0 -3 -3 -10q3 -7 3 -11q7 4 11 4v10q0 7 -7 7h-4zM485 462v-7h3v7h-3zM86 440v-3h7v3h-7
zM535 426v-4q2 -7 8 -7v11h-8zM557 412v-4q1 -7 7 -7h4q0 8 4 14l-8 4q-7 -1 -7 -7zM159 415v-7h3v7h-3zM144 408q1 -7 7 -7l4 7h-11zM586 383v-4q4 -7 4 -10h7v14h-11zM532 369v-7h3v7h-3zM166 365q0 -7 -15 -7v-11q11 4 11 7l8 -3h3v7q0 7 -7 7zM604 354v-10q1 -8 7 -8h4
q0 12 4 18q-4 0 -4 4q-7 -4 -11 -4zM611 301v-4h8v4h-8zM640 301v-8q2 -7 8 -7v7q0 8 -8 8zM590 286l-4 -7v-4h11v4q0 7 -7 7zM633 286v-14q7 3 11 3q0 6 -11 11zM713 279q7 -1 7 -7v-4h-7v11zM662 258q6 -15 11 -15l4 7v11h-8zM608 254v-4q1 -7 7 -7v11h-7zM122 250l-3 -18
v-14h3l4 18v14h-4zM680 229l8 -11q0 -4 -4 -4q5 -14 11 -14h3v4h-7q7 23 7 32l-7 4q-5 0 -11 -11zM713 207q0 -3 -4 -10q4 -7 4 -11h11l3 18q-8 0 -14 3zM662 204v-7q1 -8 7 -8l4 8v7h-11zM115 164q5 0 11 11v18q-11 -2 -11 -29zM691 182l-3 -18q5 0 10 15zM720 161
q-3 -19 -3 -22l7 -3q5 14 11 14q-4 7 -4 11h-11zM749 146q0 -5 -7 -14v-14l3 -8q8 4 11 4v7l-3 25h-4zM115 118v-4h4l3 14q-7 0 -7 -10zM764 96v-7q10 -9 10 -18h4l4 32l-8 4q-5 0 -10 -11zM811 21v-4q7 -11 7 -18h4v4q-5 18 -11 18zM858 -37q4 0 14 -28v-7q-14 5 -14 25v10
zM858 -76h3q8 -1 8 -7v-4h-4q-7 0 -7 7v4zM876 -80q7 -1 7 -7v-3q-7 0 -7 7v3zM887 -115h7v-4h-7v4z" />
    <glyph glyph-name="L" unicode="L" horiz-adv-x="1037" 
d="M598 1535l10 -4l10 4q49 0 95 -124v-5q0 -85 -60 -226q-81 -228 -146 -319q0 -23 -55 -111q0 -19 -80 -156q0 -38 -41 -57q-5 -27 -15 -27q0 5 -5 5q-43 -76 -65 -129q-20 0 -25 -27h-10v14h-10q-15 -32 -15 -40q10 9 30 9l5 -9q-34 -57 -50 -111q-10 -2 -10 -9h5
q38 0 100 9q26 -5 50 -5h30q12 0 21 5q20 -9 35 -9q11 0 20 4q195 -14 241 -31l25 5q90 -19 90 -36q10 5 15 5q51 -24 51 -45l-5 -26l10 -5q15 22 15 31q20 -25 50 -48v-18l-5 -22l10 -5q1 9 10 9h10v-27h-5l-20 14q0 -9 -10 -9l-15 18l-10 -5q-20 0 -20 27q-27 -5 -30 -5
q-19 14 -81 23q0 13 -10 13t-10 -13l-25 4q-22 -25 -156 -40l-130 -9l-10 5q-35 -5 -56 -5h-10q-5 0 -5 5q-5 0 -5 -5l-20 5q-73 0 -180 -27h-5q-33 0 -81 53v14l5 8q-20 7 -20 14l5 31l-5 26l10 18q0 12 -40 36q0 51 90 62q36 82 61 182q160 420 266 732q10 7 50 146
q30 74 40 155q49 37 91 58zM402 705v-8h10v8h-10zM377 665v-17h5q10 0 10 9q0 8 -10 8h-5zM326 563q5 -8 5 -13q8 0 15 13q-10 0 -10 14q-10 0 -10 -14zM276 537v-9h5v9h-5zM196 501v-9q10 0 10 9h-10zM311 501h10v-9h-10v9zM236 444h10v9q-10 -2 -10 -9zM231 435v-14h5v14
h-5zM146 342l10 -5v13q-10 -1 -10 -8zM181 324q0 -10 -5 -18q5 -8 5 -13h10l5 22zM166 275l-15 -44v-9q6 0 20 31v22h-5zM121 213h10l5 22q-12 0 -15 -22zM698 164v-9h15v9h-15zM874 71v-4q1 -9 10 -9l5 9v8q-10 -4 -15 -4z" />
    <glyph glyph-name="M" unicode="M" horiz-adv-x="1570" 
d="M1260 1622h23q23 -16 55 -59v-9q-16 0 -16 -10v-15q16 0 16 20h6q0 -12 16 -30l-5 -24q22 -36 22 -59q-11 -1 -11 -9v-20q22 0 22 -34h6q0 23 11 34q-6 9 -6 20h12q0 -6 5 -15l-5 -10q11 -41 11 -53q-6 -10 -6 -15l6 -10l-6 -10l11 -24q-5 -9 -5 -20q0 -4 22 -29v-39
q0 -55 -6 -142q6 -9 6 -14h-6q0 -5 6 -5q-4 -29 -11 -29l5 -10q-5 -64 -5 -103h-6q0 -5 6 -5q-7 -48 -17 -48q11 -20 11 -30q-16 -77 -33 -322q0 -11 5 -19q-5 -45 -11 -250h-5l5 -9v-74l6 -29q-6 -9 -6 -14q6 -44 6 -54l-6 -34q11 -78 17 -176l-6 -10q12 -19 17 -122
l-5 -24l11 -83h-6l-17 9h-27v-24l-12 -15q12 -1 12 -9v-10q0 -10 -12 -10h-11q0 29 -33 29q0 28 -33 54l-45 137q-6 6 -6 34v15l6 9q-13 0 -17 39q6 27 6 44q-11 0 -11 15q11 30 11 49q-6 14 -11 14q5 53 11 64q-11 0 -11 10q0 9 11 34l-11 34l11 122l-6 10q8 102 17 102
q0 5 -6 5q6 106 17 147v10q0 9 -11 9q6 25 22 25v14q0 5 -11 39v5l11 15q0 5 -5 5l5 19l-5 25q5 48 22 63q0 14 -11 30q5 72 17 122l-6 19q6 37 11 49q-5 9 -5 20q0 8 11 24l11 -5h5q0 10 -16 10v15q16 17 16 34l-16 24q0 17 16 39v15l-11 14q0 5 11 40v19l-11 15
q11 18 11 39v5l-11 14q0 8 11 44q-13 47 -39 83q0 22 -33 39q0 -9 -11 -9q-11 4 -17 4l-5 -9l-12 5h-5l-11 -44h11v-5q-11 -48 -33 -78q11 -2 11 -10q0 -12 -34 -44q0 -9 -11 -59l6 -9q-12 -54 -39 -54l5 -49q0 -16 -33 -54l-6 -9q6 -27 6 -44q-29 -112 -45 -122q-5 0 -5 -5
q11 -2 11 -10q0 -10 -11 -10v10h-6v-10q11 -1 11 -10v-5q0 -18 -33 -63q17 0 17 -10q-23 -39 -39 -93q11 -1 11 -9q-22 -47 -50 -88l11 -25q-6 -19 -39 -53v-5h17v-5q-23 0 -23 -10l11 -15v-4q0 -8 -16 -54l5 -10q-3 -34 -39 -68l11 -5q-11 -55 -27 -83q11 -18 11 -39h-6
l-11 5v-5q6 -10 6 -15q-15 0 -23 -34q6 -10 6 -15q-11 -16 -11 -24h-11v24h-11l-6 -24l6 -10q-12 -30 -28 -34h-6v5l11 14v5q-16 0 -16 25q-9 0 -23 -20l6 -10h-6q-11 0 -11 15h-17l-11 -5l-33 64v44l33 39v9l-11 15q0 6 6 49q-6 27 -6 39q22 8 22 34v5q0 4 -16 15l22 39
l-6 10q0 4 6 4q-8 20 -17 20q0 4 28 63q-11 37 -11 40q11 16 11 29q-11 0 -11 10q11 0 11 9q0 6 -5 15l5 44l-5 24q5 19 5 39l-5 30q11 21 16 63q-11 0 -11 10l17 20l-6 24q13 0 17 24q-11 31 -11 39q11 15 11 35l-6 34q6 24 12 24l-6 10v29l6 30q-6 8 -6 24h6l-6 10v102
q0 10 -11 10h-17q-50 -83 -78 -166q-16 0 -44 -98q-22 -24 -39 -88q0 -13 -117 -288q-28 -62 -28 -97q-78 -136 -106 -391v-5l6 -10q-19 -92 -95 -92h-39q-117 47 -117 171q-16 0 -16 9v20q16 15 22 34q-6 9 -6 15q17 44 17 73v5q0 11 -6 19q0 5 6 5l-11 93l5 20
q-11 123 -11 141l6 10q-4 8 -11 58l5 10q-7 78 -11 88q0 5 6 5l-17 190q0 5 6 5l-6 25v49q0 331 89 400q22 0 22 15q60 0 117 -103q50 -305 50 -493v-29q37 41 95 171q83 138 134 239q91 134 105 185q22 0 56 30h6l16 -10h17q0 29 17 29l22 -14h6l22 14h11v-10l-6 -9l17 -10
v5q-5 9 -5 14q5 10 5 15h6q11 -1 11 -10l-6 -34q11 0 22 -29q-5 -10 -5 -15q27 -13 28 -19v-10l-6 -29l17 -30v-24q13 0 17 -25q-12 -15 -12 -24q6 -35 6 -39l-6 -20l6 -19q0 -10 -11 -34q0 -5 5 -15q0 -32 -44 -352l5 -9l-5 -10l5 -20q-11 -16 -11 -29l11 -5
q78 188 117 342q39 69 67 161q45 124 78 191q11 10 28 102q3 0 28 29l-6 30v5q31 4 45 44l11 -5h5v5h-11v4q9 20 39 20zM1327 1515q0 -7 17 -15v5q0 10 -11 10h-6zM1299 1510q0 -15 -16 -15q22 -28 22 -34h5v5q-5 18 -5 44h-6zM1388 1490h11v-10h-11v10zM1249 1476v-5
q2 -10 11 -10v15h-11zM1177 1461h11v10q-11 -2 -11 -10zM1327 1466v-5q8 -20 17 -20v5q-9 20 -17 20zM1277 1446v-14q2 -10 11 -10v24h-11zM1388 1436h11q0 -9 -11 -9v9zM1288 1417v-10h11q0 10 -11 10zM1116 1334h5q11 5 17 5v10l5 34q-14 0 -27 -49zM1333 1383
q1 -10 11 -10v10h-11zM1355 1373v-5q3 -29 17 -29h5q-13 34 -22 34zM1316 1339v-20q11 0 11 10t-11 10zM848 1319v-14h6v14h-6zM1121 1295v-5h6q0 10 11 10v9q-8 0 -17 -14zM659 1295v-5h11v15q-11 -2 -11 -10zM1121 1285v-10h6v10h-6zM1405 1270v-19q11 0 11 10v9h-11z
M843 1266v-10h11v10h-11zM843 1241l11 -5v15q-11 -2 -11 -10zM1394 1207v-10h5v10h-5zM826 1202v-19q10 0 28 -15l5 34h-5l-17 -10h-5v10h-6zM1088 1178v-10h5v10h-5zM525 1173v-10q12 0 12 10h-12zM1065 1173v-15h6v15h-6zM848 1109v-9h6v9h-6zM1054 1095q-11 -18 -11 -39
h17l-6 34q6 0 6 5h-6zM542 1060v-9h6v9h-6zM1394 1051v-5h17v14h-6q-11 -1 -11 -9zM821 997v-10h5v10h-5zM1015 963v-10h6v10h-6zM1372 934v-5q5 -9 5 -20h6q0 11 5 20q-6 0 -16 5zM960 919h11v10q-11 -2 -11 -10zM821 890v-10h5v10h-5zM1366 875v-5q11 -12 11 -19h11
q-11 15 -11 24h-11zM1299 865v-5q2 -9 11 -9v4q0 10 -11 10zM821 855v-9h5v9h-5zM1372 836l-6 -20q11 0 11 15v5h-5zM1366 807v-15h11q-5 9 -5 15h-6zM837 772v-9h6v9h-6zM882 719l11 -5v14q-11 -1 -11 -9zM960 719v-5q11 0 11 10v4q-11 -1 -11 -9zM821 719v-5h11v5h-11z
M1377 704v-10h6v10h-6zM787 689q2 -9 11 -9v9h-11zM882 660v-10h5v10h-5zM815 655q2 -10 11 -10v10h-11zM1333 645v-9h5v9h-5zM1377 641v-10h11q0 10 -11 10zM926 626v-10h11v10h-11zM1372 587q5 -10 5 -15h6v15h-11zM1377 567v-9h6v9h-6zM787 548v-5q2 -10 11 -10v5
q0 10 -11 10zM893 538v-10h5v10h-5zM1372 533v-5h11v5h-11zM1372 523v-5h11v5h-11zM843 504v-10h5v10h-5zM837 426v-10h11v19q-11 -1 -11 -9zM1366 396v-9h6v9h-6zM843 357v-9h5v9h-5zM1288 260v-10h6v10h-6zM1360 260v-10h6v10h-6zM1355 216v-5h11v5h-11zM809 211v-10h6v10
h-6zM776 157v-10h6v10h-6zM687 99v-10h11l6 24q-8 0 -17 -14zM637 89h11v-10q-11 0 -11 10zM1372 -160v-5q1 -10 11 -10v5q0 10 -11 10zM1366 -219v-5q0 -7 22 -19h6q0 6 -28 24zM1360 -268v-14q12 0 12 9v5h-12zM1294 -292v-5q1 -10 11 -10h5q-5 10 -5 15h-11zM1333 -375
v-15h11v5q0 10 -11 10z" />
    <glyph glyph-name="N" unicode="N" horiz-adv-x="890" 
d="M509 1503q32 -20 43 -36q37 0 64 -182q6 0 17 -65q5 0 5 -4l-5 -28q8 -26 18 -125h-5q4 -9 9 -53l-4 -8q8 -104 13 -230q0 -4 -5 -4l5 -20v-44q0 -10 4 -17q-4 -7 -4 -12q7 -21 13 -109l-5 -20q0 -152 65 -565q-4 -7 -4 -20l8 -17q0 -12 -13 -12q6 -20 13 -20l-4 -8v-4
q18 0 30 -48l-9 -5q0 -4 5 -4l-5 -20q5 -8 5 -12q-13 0 -13 -4q4 -8 4 -12h-4q-177 170 -233 347q-34 136 -34 360l-5 8q5 7 5 16v4q0 24 -5 24l5 40v122q0 32 4 84q-4 7 -4 21q4 22 4 44q0 4 -4 4l4 20v109q0 22 -4 57q4 8 4 12q-4 35 -4 60v13q0 9 -5 16l5 8
q-17 99 -30 133q-13 0 -31 -97l-8 -4l4 -16q-30 -95 -47 -230q-26 -66 -56 -315l-30 -109l4 -20v-16q-67 -441 -103 -441q-35 -44 -87 -44q0 -4 -4 -4q-42 0 -52 56q-23 0 -34 45q22 7 22 32v41q0 10 25 48l61 380q4 28 4 109v20q0 4 4 4l-4 8v4q0 21 4 36l-4 29l4 36
q0 3 -4 24l4 28q-4 36 -4 45q0 4 4 4l-4 20v4q0 26 4 53l-4 20q0 8 4 8l-4 48v81q0 4 4 4l-4 8v81q0 14 4 36q-4 6 -4 24q12 57 69 57h4q91 0 91 -117q0 -15 4 -36q10 3 65 117q16 0 38 88q61 57 117 57zM534 1398v-4q9 0 9 8v4q-9 -1 -9 -8zM565 1309v-8h4q9 0 9 8v4
q-9 -4 -13 -4zM384 1289v-4h8v4h-8zM565 1140v-4q1 -9 8 -9v13h-8zM608 1035v-4h13v4h-13zM565 922l-5 -17h5q8 0 8 8v9h-8zM578 849v-8h4v8h-4zM573 804l-4 -8v-8q6 0 13 12zM578 756v-8h4v8h-4zM582 352v-8h4v8h-4zM659 207v-8h9v8h-9zM672 122v-8h5v8h-5zM664 -23v-4h8
v12q-8 -1 -8 -8zM737 -136v-17l13 -8v8q-9 0 -9 17h-4z" />
    <glyph glyph-name="O" unicode="O" horiz-adv-x="996" 
d="M789 1540q13 -39 42 -73l4 -21q-4 -8 -4 -12l8 4q9 -11 9 -32h-4v-13l8 4h4l13 -48q-4 -8 -4 -13l8 4q50 -133 50 -150q0 -14 -4 -21q4 -27 4 -44v-45q-25 -15 -25 -21q-8 -28 -8 -48v-9q0 -8 12 -8v-4q-12 -15 -12 -36v-9q1 -8 8 -8q-8 -20 -8 -28l4 -25q-4 -35 -4 -61
v-16q0 -8 -9 -8l4 -8v-41h-8v-29h8q0 -12 -8 -32q4 -7 4 -16q0 -13 -12 -41l4 -20q-4 -13 -8 -13l4 -8q-10 -73 -25 -73q-3 0 -13 -25l4 -8v-8q-8 -49 -33 -73l4 -8q-38 -69 -38 -86h5v-4q-53 -78 -155 -175q-171 -167 -380 -167q-54 0 -126 49l5 8v4q-43 32 -71 82
q-38 65 -38 122q0 3 4 24q0 4 -4 4q0 186 150 558q68 166 239 375q0 13 125 130q132 147 142 147q20 24 50 24h13q30 0 62 -16v28q0 18 -8 33zM810 1467v-8q9 0 9 8v8q-9 -1 -9 -8zM685 1454v-8h4v8h-4zM839 1385l-4 -16v-4h4l5 16v4h-5zM129 237q5 -94 59 -94q0 -15 62 -20
h13q131 0 284 118q105 65 188 187q104 161 104 391v118q0 9 -4 17q4 7 4 12q-25 152 -33 167v28h8v8l-8 -4q-66 111 -67 147h-4q-214 -201 -297 -318q-146 -205 -288 -598q-17 -96 -21 -159zM844 1279v-4h8v4h-8zM898 1239v-8h8q0 8 -8 8zM898 1173v-8q8 0 8 8h-8zM898 1161
v-8q1 -8 8 -8v8q0 8 -8 8zM898 1125q1 -9 8 -9v9h-8zM898 1096h8v8q-8 -1 -8 -8zM852 1092v-4q8 0 8 8v4q-8 -1 -8 -8zM860 1068v-17h5v17h-5zM865 1043h8v8q-8 -1 -8 -8zM848 1035l8 -4v12q-8 -1 -8 -8zM852 1015v-21l4 -28h9v4l-9 12l4 16q-4 8 -4 17h-4zM869 950
q0 -7 -9 -17h9q0 5 4 12v5h-4zM873 835q0 -4 -4 -12h4l4 8v4h-4zM865 766h4q8 0 8 8v9q-6 0 -12 -17zM839 571h9l4 20q-7 0 -13 -20zM839 567v-21q9 0 9 8q-4 8 -4 13h-5zM810 526v-16h9v8q0 8 -9 8zM819 493v-8h4v8h-4zM773 440v-8q1 -8 8 -8v16h-8zM810 388h9v-5
q0 -8 -9 -8v13zM798 363h8v-4q-11 -20 -17 -20v8q9 10 9 16zM785 339h4v-8h-4v8zM25 314v-8h4v8h-4zM722 278h9v8q-9 -2 -9 -8zM83 241v-12q9 0 9 8v12q-9 -1 -9 -8z" />
    <glyph glyph-name="P" unicode="P" horiz-adv-x="882" 
d="M597 1568q78 0 159 -96q23 -53 23 -112v-16q0 -130 -34 -196q0 -23 -34 -89q-69 -146 -103 -181q-82 -114 -133 -170q-75 -85 -80 -85q-7 0 -49 -54q-22 0 -57 -46q-41 -26 -92 -73v-39l-3 -23q3 -8 3 -12q-7 -99 -7 -131q-8 0 -8 -11v-12h-4v-8h8v-15q-6 -9 -15 -39h7v8
h8v-27q0 -8 -8 -8l8 -34q-4 -21 -4 -35q4 -20 4 -23q-4 -12 -8 -12l4 -8q0 -16 -7 -30q3 -8 3 -12q-3 0 -3 -4q7 -1 7 -8v-3q-7 -28 -7 -31h-8q0 15 -23 15v-8q15 -17 15 -19l8 4q8 -1 8 -8v-11q0 -8 -8 -8l-4 8q4 0 4 4q-16 0 -27 23q-7 0 -26 23q7 0 7 8q-15 0 -15 11v4
q0 4 4 4q-11 14 -23 116q0 3 4 3l-4 20v50q0 22 4 62q-4 7 -4 11q8 34 8 93v38q-8 16 -12 16q-33 -24 -156 -47q-26 10 -26 16q71 41 190 131q0 6 8 15v74q0 22 3 61q-3 7 -3 16q0 11 3 11q-3 46 -3 66v154q0 14 3 35q-3 6 -3 23q0 15 3 15l-3 47v42q0 59 3 162
q-44 -14 -110 -89h-27q-7 0 -7 8l-8 -4h-11q-14 15 -84 39q0 21 -15 42v12q34 79 110 112q404 231 624 231h7q9 0 16 4zM547 1549v-12h15q0 6 -11 12h-4zM498 1545v-12h7v4q0 8 -7 8zM562 1533v-7q14 0 23 -8q8 0 8 8v7l-8 12q-17 -12 -23 -12zM524 1529h8v8q-8 -1 -8 -8z
M635 1533v-11q0 -6 11 -12h4q-8 13 -8 23h-7zM452 1529v-7q8 0 8 7h-8zM600 1529l-3 -7q0 -9 19 -12v16zM471 1526l-8 -12q16 -2 16 -12h7v8h-7l3 8v4q-4 0 -11 4zM505 1526q0 -7 -11 -20v-4h4q9 8 15 8v16h-8zM517 1518q1 -8 7 -8h8v4q-4 7 -4 12h-4q-7 -2 -7 -8zM551 1522
v-4h15v4h-15zM433 1514q0 -4 4 -4q0 -10 -27 -15v-4q27 0 27 -8q11 4 11 8q-7 12 -7 19q3 0 3 4h-11zM661 1510v-4q4 -7 4 -11h4v11zM608 1502v-7h4v7h-4zM384 1499v-12h15q0 6 -12 12h-3zM308 1475l-4 -7q1 -8 7 -8l4 8q0 7 -7 7zM357 1472v-8q4 0 11 -4v12h-11zM566 1460
l-7 4q-115 -15 -350 -178q-41 -31 -46 -38q12 -45 38 -247h-4l4 -8v-46l4 -23q0 -4 -4 -4l4 -23q0 -28 4 -89q0 -4 -4 -11q4 -27 4 -43v-54q0 -27 -4 -85h4q58 47 110 124q13 1 46 61q114 134 140 182l61 96q0 10 53 108q38 88 38 127q12 20 12 54v31q-8 70 -61 70
q-37 -8 -42 -8zM330 1464v-12h4q0 4 4 12h-8zM330 1448l-7 -11q1 -8 7 -8h4l8 4q-6 15 -12 15zM273 1441v-8h8q0 8 -8 8zM224 1437l-4 -8v-4h4q8 0 8 8zM311 1429v-4q8 0 8 8v4q-8 -1 -8 -8zM270 1406q4 0 11 -4l4 8v11h-4q-6 0 -11 -15zM190 1410v-4q1 -8 7 -8l4 8l-7 4h-4
zM247 1406v-8h11v8h-11zM216 1391v-16h8q8 0 8 8q-4 7 -4 11q-8 -3 -12 -3zM186 1379v-4h11v12h-3q-8 -1 -8 -8zM190 1360v-16h7q8 0 8 8t-8 8h-7zM114 1325v-8h7v8h-7zM695 1221v-8h4v8h-4zM471 812v-8q8 0 8 8v8q-8 -1 -8 -8zM414 808h8v8q-8 -1 -8 -8zM444 770l-3 -16
q7 0 7 12v4h-4zM368 727v-7h4v7h-4zM384 727v-4q1 -7 7 -7v11h-7zM418 704v-11h4v11h-4zM361 646l7 -4l4 8v4h-4q-7 -1 -7 -8zM308 650v-8h7v8h-7zM281 619v-7h4v7h-4zM330 592v-11h4v11h-4zM220 569q0 -4 -4 -11l12 -8l7 11l-11 8h-4zM277 561v-7h8v7h-8zM247 538v-4
q4 -7 4 -11h3l4 15h-11zM228 534q0 -4 -4 -11h8v11h-4zM83 446v-12h4v12h-4zM91 423v-8h4v8h-4zM91 411v-12h4v12h-4zM3 403v-7h8v7h-8zM34 396v-8h7v8h-7zM-23 384q6 -15 11 -15v3q-4 8 -4 12h-7zM-54 369v-8h4v8h-4zM148 272q4 -7 4 -11h4v11h-8zM140 14v-8q2 -8 8 -8h4
v27q-6 0 -12 -11zM133 -9v-12q7 0 7 8v4h-7zM144 -33h8v8q-8 -1 -8 -8zM140 -40q2 -8 8 -8l4 8h-12z" />
    <glyph glyph-name="Q" unicode="Q" horiz-adv-x="964" 
d="M665 1564h5q69 -32 98 -100q-9 -29 -9 -35q75 -150 81 -235v-15l9 -12v-15q0 -4 -5 -4l5 -8v-27q0 -11 4 -11l-4 -20v-77q0 -8 -5 -15q0 -4 5 -4l-14 -77q5 -8 5 -12q-3 -27 -9 -27l4 -7v-20q0 -4 -4 -4l4 -7q0 -4 -4 -4q0 -4 4 -12q-10 -72 -18 -92q5 -8 5 -12
q-18 -33 -45 -123q5 -15 5 -27q-67 -179 -157 -320q-15 -17 -27 -65q9 -28 9 -58l-4 -8q9 -14 9 -31q-5 -7 -5 -11q10 0 32 -62q4 0 4 -15h-9v-20q10 0 67 -30q0 -6 -13 -12h-5q-33 0 -36 12l-22 -4q-14 7 -22 7l-9 -3q-34 10 -130 96l-9 -4q0 4 -4 4q-40 -50 -67 -69
q0 3 -5 3l5 8v4q-8 0 -14 -19l-8 4h-14v-8h-9q-4 0 -4 4q-24 -3 -41 -20q-76 0 -187 124q-40 81 -54 123q-27 115 -40 274l4 7q-4 8 -4 12h4l-4 8v100q0 4 4 4q0 4 -4 4q4 172 103 396q132 273 344 459q90 75 174 85q6 19 13 19l9 -4q2 8 9 8zM741 1452v-7l9 -4q-4 7 -4 11
h-5zM697 1352q-15 8 -27 8q-52 -8 -255 -197q-133 -128 -170 -358q-11 0 -40 -235q-3 -62 -9 -62l5 -19v-27q0 -9 -5 -16q5 -6 5 -15v-4q0 -16 -5 -31q0 -89 58 -242q8 0 40 -47h18q32 16 99 85q-18 82 -18 243l-5 27q5 6 5 23l-5 27h5l-5 8v46q0 49 63 69q8 4 18 4l13 -19
q-4 -8 -4 -12l9 -4h22l36 -150q-5 0 -5 -4q5 0 23 -23q98 187 98 228q27 62 76 601q0 4 4 11l-4 23v66q0 8 -9 8q-16 -12 -31 -12zM723 516v-8h5v8h-5zM701 489v-12h5v12h-5zM688 446v-7h9q0 7 -9 7zM656 385v-4h5q0 10 13 23v8q-18 -4 -18 -27zM603 300q0 -13 -5 -19v-4h5
l9 23h-9zM442 46v-8h4v8h-4zM411 22v-7h4v7h-4zM652 -12q6 0 13 -12h-4q-9 0 -9 8v4z" />
    <glyph glyph-name="R" unicode="R" horiz-adv-x="1205" 
d="M575 1540q18 0 81 -27q70 -7 70 -24v-39l8 4h8v-19q-8 -12 -16 -12v-11h4l16 23l8 -4q6 4 15 4l19 -55q-3 -6 -3 -15q11 -20 11 -39l-4 -27q12 0 16 -35q0 -68 -27 -172q-13 -1 -27 -66q-5 0 -28 -43q-35 -28 -35 -54l-58 -78q-14 -10 -50 -55q8 -10 46 -27q0 -5 62 -39
q16 0 66 -47q39 -16 39 -39q12 0 31 -15q22 0 28 -35q32 0 167 -160q10 -29 50 -97q27 -71 35 -129q0 -58 -47 -109q0 -11 -23 -23q-39 -50 -50 -51l-8 -4h-8l-12 8h-3q0 -19 -8 -19h-4q-8 0 -8 8v3h8v12q-4 0 -4 -4q-8 4 -12 4q-12 -8 -19 -8l4 -7v-8h-8q-16 27 -16 35
q4 7 4 12q-55 179 -124 338q-36 65 -85 137l7 11h-7v-8h-4l-43 51v20l-19 -4l-16 35l-8 -4l-19 31l-12 -8q-8 0 -11 31h-4l-12 -7h-4q-31 29 -78 54q-37 -23 -62 -23h-35q-4 0 -4 4l-7 -4q-6 0 -12 11l4 8l8 -4h4q7 0 7 8v8q-4 0 -11 4q-20 0 -20 -8q-4 0 -4 4l-19 -4l-12 8
l4 7v4q-19 0 -19 8q0 6 11 12q8 -4 12 -4l4 8q-8 0 -8 8v7q47 53 97 63v-4l24 11l7 -3q17 0 125 124q98 131 124 265l-4 8q4 40 8 46q-8 89 -23 121h-8q-143 0 -272 -175q-30 -24 -70 -90l-43 -74q-39 -92 -39 -120q0 -12 4 -28q0 -182 -58 -564q-5 -31 -12 -31l4 -20
q-8 -92 -8 -156l-3 -15q3 -7 3 -16l-3 -7q3 -7 3 -16t-3 -16l3 -7q0 -8 -3 -8q3 -53 19 -109q-8 -55 -27 -55q0 -9 -31 -19v-4h-8q0 7 -8 19q-7 0 -23 -23q0 22 -35 43q-12 20 -16 35q8 13 8 23h-11v4l3 8q-10 0 -15 43q-4 0 -4 4v4q0 29 19 35q0 11 4 11l-4 8v35q2 8 8 8
l-8 19q4 27 4 43q0 13 -4 20q6 62 8 70q0 4 -4 4q4 21 4 31q8 171 8 210v129q0 3 4 3l-4 8v86l-4 39h4q-4 7 -4 11q0 115 -15 433q-4 7 -4 11h4q-11 25 -16 55q0 65 89 109h8q51 -41 51 -78q-4 0 -4 -4q14 -20 35 -101h4q188 244 326 272zM590 1505v-8h8v8h-8zM684 1485v-7
h7q0 7 -7 7zM699 1462l-4 -15q8 0 8 11v4h-4zM536 1450v-3q8 0 8 7v4q-8 -1 -8 -8zM672 1450v-7h4v7h-4zM427 1423q0 -4 -4 -4q4 -7 4 -11h8v7q0 8 -8 8zM486 1415v-7h7q0 7 -7 7zM730 1404v-8h4v8h-4zM396 1392q4 -8 4 -12q8 0 8 8v4h-12zM454 1373v-8h4v8h-4zM427 1365v-8
h8q0 8 -8 8zM699 1345v-7h4v7h-4zM338 1341v-3q1 -8 8 -8t7 8l-7 3h-8zM311 1318v-8h4v8h-4zM342 1275h8v8q-8 -1 -8 -8zM287 1279v-4h8v4h-8zM140 1162h8v8q-8 -1 -8 -8zM621 866h4q20 18 20 32h-4q-6 0 -20 -32zM493 870v-4h8v4h-8zM377 847v-8h4v8h-4zM307 750l19 -4v4
q-7 14 -7 31q5 0 11 11h-8q-9 0 -15 -42zM369 773v-8h4v8h-4zM408 761v-4h8v4h-8zM435 750v-8h4v8h-4zM602 738v-8h8q0 8 -8 8zM489 726q2 -8 8 -8v8h-8zM540 718v-11h4v11h-4zM684 718q0 -8 -4 -15l8 -4h3l-3 19h-4zM625 715v-4q4 -8 4 -12h8v8q-8 0 -8 8h-4zM148 703v-4
l7 -12l-4 -7h4q2 7 8 7q-8 13 -8 24q-7 -2 -7 -8zM707 683h8v8q-8 -1 -8 -8zM93 683v-7h4v7h-4zM598 680v-8h4q8 0 8 8h-12zM144 668l7 -4v12q-7 -2 -7 -8zM754 672v-8h3v8h-3zM738 648v-4h4q4 14 4 16q-8 0 -8 -12zM765 641v-12q8 0 8 8zM151 637q2 -8 8 -8v8h-8zM109 629
v-12h4v12h-4zM804 617v-8h4v8h-4zM148 613v-11h3v11h-3zM792 598v-4h4l4 15q-8 0 -8 -11zM684 606v-12h4q0 4 3 12h-7zM66 590v-8h4v8h-4zM124 559v-8h4v8h-4zM101 520v-16q6 0 12 12l-8 4h-4zM66 512v-8h4v8h-4zM804 508v-8h4v8h-4zM750 497h7v7q-7 -1 -7 -7zM909 504v-7
q8 0 8 7h-8zM74 497l-4 -16v-4h4l4 16v4h-4zM93 489v-12h4v12h-4zM50 485l-3 -8l7 -4h4v4q0 8 -8 8zM74 434l-4 -23v-8h4q0 10 8 31h-8zM50 415q4 -8 4 -12h4v12h-8zM70 395v-8h4v8h-4zM43 314v-8h4v8h-4zM47 275v-16h3v16h-3zM74 263v-16h4v16h-4zM132 193v-8h4v8h-4z
M998 193v-8h4v8h-4zM50 169v-7h8v7h-8zM136 158v-8h4v8h-4zM136 103v-8h4v8h-4zM963 84h8v8q-8 -2 -8 -8zM998 88v-8h4v8h-4zM940 84v-8h4v8h-4zM971 76l-4 -23v-4h4q0 6 8 15q-4 8 -4 12h-4zM940 57v-8h8q0 8 -8 8z" />
    <glyph glyph-name="S" unicode="S" horiz-adv-x="939" 
d="M758 1515q7 0 7 -19l8 4q26 -9 26 -15q-5 0 -11 -15h4q7 4 11 4l8 -12l-8 -3q8 -13 8 -19h-12v7h-3v-11q0 -6 15 -15v11q7 0 11 -22q-7 -4 -11 -4l7 -11v-8q-19 -4 -22 -4q-4 7 -4 19h-4q0 -10 -11 -22v-4h11v-8q0 -7 -8 -7h-3q-8 0 -8 7v19l8 12v3h-4q0 -11 -8 -11
q-15 6 -15 23h-4q-8 0 -15 -4q-7 4 -15 4l-15 -15h-8q-7 0 -7 7l7 15h-4q-11 -4 -11 -7q4 -8 4 -12q-8 0 -8 -11h-4l-7 4q-12 -17 -12 -23h-7v4q4 7 4 11h-16l4 -19q-16 -15 -23 -15q0 8 -7 8l-4 -8v-18h-11l-8 18q-7 -1 -7 -7q3 -21 3 -30q-7 -17 -15 -19h-4l4 8q-4 0 -4 3
h8v4h-4q-23 -5 -23 -11v-4h12v-7q-9 0 -15 -4l3 -8v-7h-7q0 15 -8 15l-11 -15q7 0 7 -4l-3 -8q3 -6 3 -15q-38 -40 -38 -56l8 4h4l-8 -11q8 -2 8 -8q0 -7 -8 -7l-15 11h-8l4 -8q0 -26 -7 -26l-8 4q-7 -4 -11 -4q1 -8 7 -8q-7 -9 -11 -56h-8q-7 0 -7 8v3q6 0 11 8q0 4 -4 4
l4 18v4h-8q-6 0 -11 -19l4 -7l-4 -8q8 -12 8 -18l-23 -19h-4v7l12 15v4l-8 -4h-8v4l8 11q0 8 -8 8q-3 -5 -3 -23h3q0 -13 -15 -30v-3l8 3h4q0 -5 -8 -34l8 4v-7q-8 -17 -16 -19l-3 7q3 0 3 4h-3q-6 0 -16 -15q0 -37 91 -67v-4l-3 -8h3l23 4q61 -16 61 -30h4q8 0 15 4
q15 -3 61 -38q2 0 15 4q15 -6 15 -11l-4 -8q9 -22 15 -22h4q0 18 8 18l7 -11l-7 -15l15 -11h4q0 4 4 11q19 0 38 -38l-4 -18l19 -12v8h11l-4 -19v-11q9 0 15 -4q8 4 12 4v-4q0 -4 -4 -4q2 -12 30 -30q0 -11 8 -11h4l7 4q8 -16 8 -23h-4q5 -29 12 -37v-4h-8q0 -9 4 -15
q-4 -7 -4 -15v-4l8 -11q-13 -30 -19 -30q0 3 -4 3v-7q7 0 7 -4q-7 -36 -53 -90q-25 -47 -129 -158q-6 0 -79 -71q-26 0 -46 -38l-102 -75q-3 -11 -46 -30q-54 -44 -68 -101q-32 -13 -50 -27q-11 0 -49 -7l-8 15q8 0 8 7v4h-15q-14 0 -57 26q-4 0 -4 -3v-8h-8q0 11 -3 26
l-19 -3l7 -12v-41h-4q-18 11 -26 11l-23 -26h-4q-24 0 -41 68h3q9 0 12 -19q4 0 15 34q4 0 4 3v8l-12 15v4l8 11v8l-8 11l8 11v26l4 19q-8 0 -8 8q0 26 8 41l7 -4h4q0 19 8 30h-4l4 8l-8 11q0 21 12 30q0 28 -12 49l8 4h4v-8h3v8q-3 0 -3 4q11 0 22 37h4v11h-7
q-8 -15 -8 -22h-8q0 7 -7 7v4h7v4l-7 11q23 0 23 38v3h7v8l-7 11v4q6 8 11 34q-4 6 -4 15l4 15h7q0 -4 -3 -4l3 -7q-3 -7 -3 -15q3 0 3 -4q-3 0 -3 -4q7 0 7 -11h4q0 4 4 11q-4 0 -4 4q6 0 11 15q-7 12 -7 22v15q11 0 11 23q-4 0 -4 4q4 0 4 3l8 -3l15 11l11 -15v-8
q0 -5 -11 -11l-11 8h-8v-38q0 -10 8 -22q-4 0 -4 -4q7 -1 7 -8l-3 -7v-8h3q0 15 23 23q0 -4 4 -4q-8 -15 -8 -22q35 -26 35 -31v-7h-8q-4 0 -4 4q-6 -4 -15 -4v-11q0 -9 19 -12q1 8 8 8h3v-8q-9 0 -11 -15q13 0 19 -41q-11 0 -19 -15q6 0 23 -26v-15q0 -9 -4 -15q4 -7 4 -15
v-23l-15 -15q11 -4 11 -23v-7q-15 -17 -15 -19q11 0 11 -22q71 48 220 188q102 89 145 135q77 78 121 161q0 50 -125 132q-164 43 -217 90q-76 34 -76 53q4 6 4 15q-18 10 -19 15v7l8 -3h4l-4 26q7 12 7 22q-7 0 -15 23q0 29 42 98q5 22 11 22h8v-7q19 9 19 33h8l7 -3
q8 17 8 30h7v-8h4q0 3 12 34l-8 11q15 8 15 12q8 -4 12 -4l-4 -8q4 -7 4 -11h3v15q8 0 8 -11h4v19h-12v7q35 53 42 53l4 -8l-4 -7q11 0 11 -8l-7 -15h11q8 28 8 30h4l7 -4l12 19l-4 19q-17 -7 -19 -15q4 -7 4 -11h-4q-6 0 -12 11v4l38 41h4v-7l-4 -8h12v-7l-4 -8q4 0 4 -4
q15 2 15 30q-7 4 -11 4v8q0 5 11 11v-11h4q23 7 23 18l15 19v8q-15 0 -15 -19h-12v4q38 43 38 56h4l4 -19q-6 0 -12 -11v-4q9 0 16 4q6 -4 15 -4l3 19q-7 0 -7 8q0 24 53 41q0 13 30 19q4 7 4 11h4l8 -4q9 20 22 23q2 -8 8 -8q0 34 42 34zM780 1462q0 -5 12 -11v11h-12z
M682 1451v-4l4 -7q7 4 11 4q0 7 -8 7h-7zM743 1432v-3h7v3h-7zM765 1421v-11h8q-4 7 -4 11h-4zM655 1410q8 0 8 -11h7q0 7 4 7q-4 7 -4 11h-7q-8 -1 -8 -7zM602 1410v-11q8 0 8 -12h3q0 4 4 12zM583 1365v-8q8 0 8 8h-8zM754 1365h7v-4h-7v4zM811 1365l4 -8l-12 -7h-4v3
q0 6 12 12zM769 1353h4v-18q0 -16 -12 -30q8 -16 8 -23l-8 -4h-7q-8 0 -8 8v4q12 10 15 60zM515 1346h4v-8h-4v8zM511 1338h4v-7h-4v7zM534 1320q0 -6 -8 -15v-4q12 0 12 15v4h-4zM488 1241v-4h4v7h8v-3l-4 -8h11l4 26v4h-8q-5 0 -15 -22zM758 1267h7v-19l-26 -15v-11l4 -19
h-4l4 -7q0 -4 -4 -12l4 -22v-4q-8 -27 -8 -30v-19q-10 0 -19 -7h-4v7q12 26 19 26v8l-4 8l-7 -4h-4q15 58 15 71l-4 8q8 15 8 26h4l7 -4q1 19 12 19zM526 1241h8v-8h-8v8zM765 1237v-11h-7v3q1 8 7 8zM412 1203h4l-4 -19q19 15 19 38l-7 4q-12 0 -12 -23zM469 1226v-4
q0 -9 4 -15q-4 -7 -4 -11q12 3 12 22q0 8 -8 8h-4zM507 1222h8v-8h-8v8zM761 1214h8v-3q0 -4 -4 -4l8 -15l-12 -26q4 -7 4 -15t-7 -8l-4 8l4 26l-8 4q4 33 11 33zM443 1173q4 0 11 -4v30q-6 0 -11 -26zM720 1196v-8q0 -7 -8 -7v7q1 8 8 8zM712 1181v-8h-7q1 8 7 8zM416 1151
q4 -8 4 -12q-8 -1 -8 -7q1 -8 8 -8q1 8 7 8l-3 7q3 21 3 30q-6 0 -11 -18zM705 1166h7v-8h-7v8zM439 1154l-4 -7h4l4 7h-4zM393 1139q4 -7 4 -11q-10 0 -15 -30q6 4 19 4q-4 7 -4 11q8 12 8 22v12h-4q-8 -1 -8 -8zM363 1120v-7h8v7h-8zM446 1124h8v-4h-8v4zM458 1120v-3
q0 -8 -8 -8v4q1 7 8 7zM352 1098q5 -15 11 -15q0 15 11 15v4h-3zM333 1098v-8h7v8h-7zM336 1083l-3 -8l15 -7l4 7v8h-16zM367 1079v-4q7 0 7 8v4q-7 -2 -7 -8zM355 1072v-8h4v8h-4zM344 1060q0 -7 -8 -7v-4h8l4 8v3h-4zM355 1060q0 -6 -7 -15v-3q7 0 7 -15q9 0 12 30l-8 3
h-4zM314 1057v-8h3v8h-3zM306 1045v-7h4v7h-4zM340 1038q0 -7 -11 -19v-8h7q0 12 12 12v15h-8zM279 1023v-4q8 0 8 8v3q-8 -1 -8 -7zM302 993q4 -7 4 -19q7 0 11 19q-3 5 -3 22q-6 0 -12 -22zM355 1015v-7h8q0 7 -8 7zM333 959h7v7q-7 -1 -7 -7zM317 951v-7h4v7h-4zM363 951
v-11q8 0 8 8zM336 936v-3q4 -7 4 -15h8v7q0 5 -12 11zM367 936v-3h7v3h-7zM393 929v-4l8 -11q-11 -15 -11 -23l7 -4q0 15 12 38q-9 0 -16 4zM401 872v-7h4v7h-4zM450 872v-11h15q0 6 -11 11h-4zM507 872l-4 -7v-4q7 4 16 4v4q-4 0 -12 3zM526 872v-7h4v7h-4zM594 846v-7h4v7
h-4zM530 827v-3q7 3 11 3v8h-3q-8 -1 -8 -8zM557 816l-4 -15q7 0 7 11v4h-3zM621 812l-4 -7l8 -4h4v4q0 7 -8 7zM538 797v-7h3v7h-3zM591 786l-4 -7v-8q7 4 11 4v4q0 7 -7 7zM697 782v-11h8q-4 7 -4 11h-4zM689 771v-8h4v8h-4zM610 745l7 -4l4 7v4h-4q-7 -1 -7 -7zM674 752
v-7h8v7h-8zM720 737v-7h4v7h-4zM727 722v-7h4v7h-4zM720 707q5 -15 11 -15l4 8q-8 0 -8 11zM670 707v-7h4v7h-4zM743 707q0 -6 15 -15h3q-11 9 -11 15h-7zM716 692v-4q6 -15 11 -15v4q-5 15 -11 15zM648 688v-7h7q0 7 -7 7zM750 685l-4 -8q0 -6 15 -15q8 0 8 8q0 5 -19 15z
M777 677v-7q0 -9 3 -16q-3 -6 -3 -15l3 -18h8l-8 11q8 15 12 15l-4 7v4q0 4 4 4q-3 11 -15 15zM727 666v-12q8 0 8 8v4h-8zM746 654v-11h4v11h-4zM807 647v-15q8 0 8 7q0 8 -8 8zM746 639v-7h4q8 0 8 7h-12zM792 639l-4 -7v-4q6 0 15 -7v7q0 6 -11 11zM834 636q5 0 11 -12
l-11 -7v19zM743 628q0 -5 11 -11v4q0 7 -8 7h-3zM105 609h7v-11h-7v11zM727 606v-12h4q0 4 4 12h-8zM746 606v-12h4v12h-4zM780 602q0 -8 -7 -8v-7q6 0 15 15h-8zM750 576v-12h4q0 7 7 19h-3q-8 -1 -8 -7zM773 576l7 -4v11q-7 -1 -7 -7zM807 572h11v7h-3q-8 -1 -8 -7z
M112 576l4 -8v-26h-4l-7 4l4 18l-4 8zM727 549h8v8q-8 -1 -8 -8zM773 534v-4q1 -7 7 -7v19q-7 -1 -7 -8zM720 538v-8h4v8h-4zM758 538q0 -15 -8 -26v-8h4q0 13 11 26v8h-7zM705 530l-4 -15q7 0 7 12v3h-3zM788 519v-7h8v7h-8zM784 497l-4 -8v-4h4q0 8 8 8v4h-8zM754 493v-8
h4v8h-4zM143 485q7 -15 7 -26q-7 -4 -11 -4q-7 4 -11 4v4q8 0 11 22h4zM758 482q0 -6 -8 -15v-12h8q0 3 7 23zM105 467h4v-8h-4v8zM166 452q7 -4 11 -4v-4h-11v8zM724 440v-7q5 0 11 11v4h-4q-7 -1 -7 -8zM93 425q2 -7 8 -7v7h-8zM701 422v-8q7 0 7 8h-7zM93 395q4 -9 8 -37
q-4 -15 -4 -30h8q0 11 4 11q-5 49 -8 56q4 8 4 11q-3 0 -12 -11zM128 384v-8h3v8h-3zM515 339v-4h4q0 6 7 15h-4q-7 0 -7 -11zM177 331v-7h4v7h-4zM97 324v-4q4 -7 4 -11h8v4q-4 7 -4 11h-8zM158 316q-4 -7 -4 -11l12 -7h3q6 0 16 15v7q-14 -4 -16 -4h-11zM97 301v-3h8v3h-8
zM431 275v-8h8v8h-8zM63 264v-19h4l4 19h-8zM181 256v-7h4v7h-4zM75 241q0 -7 -19 -7v-23h3q0 19 8 19l4 -8l-4 -7v-8h4q0 12 11 12v15q0 7 -7 7zM405 234v-4h7v4h-7zM188 230v-8h4v8h-4zM101 211q4 -7 4 -11h4v11h-8zM59 185v-8q4 0 12 -3l-4 -19v-12h8l3 19q0 20 -11 23
h-8zM298 177v-7h4v7h-4zM59 174v-12h4v12h-4zM44 158v-15q1 -7 8 -7l4 7q-8 10 -8 15h-4zM112 143l-7 -11h7q8 0 8 8zM298 143v-3q2 -8 8 -8v11h-8zM352 132l7 -4v12q-7 -1 -7 -8zM71 132l-8 -34v-3h12l3 26v11h-7zM207 91q5 0 19 22q-3 0 -3 4q-12 0 -16 -26zM97 113v-11
q15 0 15 -11h8q-3 13 -23 22zM44 102v-11q1 -8 8 -8h4q-5 19 -12 19zM242 95v-8q7 0 7 8h-7zM59 83q10 -18 16 -18l3 7q0 5 -11 11h-8zM352 65v-8q7 0 7 8h-7zM71 61q0 -9 -4 -15l8 -4l7 11v8h-11zM56 53q0 -7 -8 -7v-12q0 -27 11 -30q0 20 4 34q-4 7 -4 15h-3zM97 53
q4 -7 4 -11h4v11h-8zM317 38v-7h4v7h-4zM67 31v-27h4l11 8q-7 17 -15 19zM-9 23h8v-11h-8v11zM52 -11v-7h4v7h-4zM67 -14v-12l8 -3q-4 6 -4 15h-4zM260 -14v-4h8v4h-8zM44 -22l-7 -11q1 -8 7 -8h4l4 15zM21 -44v-8q4 -7 4 -11h4v4q-4 6 -4 15h-4zM207 -52v-4h12v4h-12z" />
    <glyph glyph-name="T" unicode="T" horiz-adv-x="1000" 
d="M1182 1560q8 -2 8 -10l-8 -5q-9 0 -9 10zM1182 1540q9 -36 16 -36h4q0 26 8 26h4q8 -2 8 -10v-5l-8 -16v-5h8l16 21q11 -21 17 -21v-10h-12q1 -10 8 -10q0 -20 -45 -40q-4 9 -4 20h-12q-8 0 -8 -15q4 -10 4 -15q-8 -2 -8 -11v-5h20v-10q-41 -15 -53 -35l-12 10
q-12 -5 -12 -10q4 -10 4 -15q-13 0 -69 -41q-166 -91 -334 -91l-109 -30q-4 0 -4 5l-94 -25l4 -10q-12 -34 -12 -46t29 -25v-5h-9v-10q14 0 17 -30l-4 -26q61 -330 61 -429h-4q8 -26 8 -41q-4 -26 -4 -30q0 -11 4 -20q0 -171 -78 -435q-4 -40 -32 -85q4 -10 4 -16
q-6 0 -24 -40q0 18 -25 51v15l-8 -5l-8 5q-8 -5 -12 -5v15l-4 25h-8q0 -15 -9 -15q-8 0 -8 10h4l-4 10q7 14 17 56q-7 5 -17 5v5q0 10 25 15q0 5 -4 15l4 46l-4 30q4 44 4 76v65q8 0 8 26h-8q0 43 8 65q-4 28 -4 46v15l8 15v10l-8 -5h-4l4 10v96q0 5 4 5l-4 10v51q0 11 4 20
l-4 10q4 43 4 71v5q0 5 4 5l-4 10v25q1 11 8 11q4 -10 4 -16q-4 -9 -4 -15l8 -5h4v5l-4 10q8 20 8 56l-8 5q3 35 8 35l-4 10v36q0 12 8 45h8v-15l-4 -25q18 -20 21 -20v5l-8 15q0 22 12 66q-6 0 -12 15q1 42 32 86v25q0 10 -8 10q-6 0 -12 -15l-8 5q-48 0 -171 -76
q-77 -56 -85 -56q-10 -22 -53 -45l-73 -81v-20h4q0 20 8 20l16 -15q0 15 8 15h8q6 0 13 -15q-54 -43 -65 -61q-11 0 -21 -10h-4q-4 0 -4 5q-8 -5 -12 -5v-5l12 -20l-8 -5q-3 0 -28 35q0 -5 -4 -5q-18 20 -33 56v10l12 -10q5 0 21 71q26 63 44 75v-10q-14 -40 -20 -40
q0 5 -4 5q0 -9 -8 -30v-5h4l4 25h4l12 -10h8q0 15 4 35h8v-10h9q20 20 20 45q-8 0 -8 5q6 21 12 21h4v-5l-4 -26l8 -5h4q8 0 8 15q-4 10 -4 16l8 5l-4 10v10h8v-20h8l21 40q16 0 16 30q37 0 37 61h8q0 -25 16 -25q0 10 4 10l-4 10v10l8 15q7 -5 16 -5l-12 -20q9 0 16 -5v20
l-4 10h4l-4 10q6 21 13 21l20 -6q0 6 4 6l-4 10v5q1 10 8 10h4l-8 -56h4q5 0 20 41q-4 0 -4 5h8v5l-4 25l17 15h8q8 -1 8 -10q-8 -2 -8 -10q4 0 4 -5q4 0 4 5l20 -5h8v25q2 10 8 10l17 -15q8 0 8 10v15h-17v5q0 5 21 26q7 -5 16 -5l8 15q-4 0 -4 5l8 5h4v-10l-12 -20h4
q15 0 33 20q8 -2 8 -10q8 5 12 5l-4 10q37 34 37 45q29 0 32 -15q-16 -7 -16 -15v-10h4q12 0 12 25h8l4 -20h4q0 11 4 20q-4 0 -4 5q6 0 12 20l9 -5h4l20 31h4q8 -2 8 -10q-4 0 -4 -5q4 0 4 -6q-8 -5 -12 -5v-10q4 0 12 -5q0 17 25 20q17 36 24 36q0 -9 20 -15v5
q-4 10 -4 15q12 10 29 15l8 -15q-8 -2 -8 -10q12 0 32 -20l8 15q-6 0 -12 15v5q13 0 28 20q5 0 13 -5q27 5 44 5h4l13 -10h4q12 20 20 20q11 0 28 -15h9l24 30q24 -30 28 -30h4l25 30h4v-10h12l16 21v-6l-4 -10q4 0 4 -5q-4 0 -4 -5h12q14 31 25 31l8 -5q13 10 24 10l4 -10
l-4 -11h8l17 11q1 -11 8 -11l16 16q6 0 12 -16q-8 0 -12 -40l12 -10h4l-4 10q4 46 17 66q-5 0 -5 5zM1259 1520h4q8 -2 8 -11v-10q0 -10 -8 -10q0 4 -4 31zM983 1515h4v-11h-13q2 11 9 11zM1206 1474v-5h12q8 0 8 10v5h-12q-8 -1 -8 -10zM1035 1479v-5q4 -10 4 -15h9v5
q-5 10 -5 15h-8zM808 1454v-10q6 0 16 -10l4 10q-13 10 -20 10zM1125 1398v-5h4l28 5q0 -5 4 -5q8 19 8 41v5h-8zM1080 1383q8 0 8 10l20 -5h5v5l-5 26q5 0 5 5h-5q-28 0 -28 -41zM1023 1403q1 -10 8 -10h12l5 20l-9 6h-4q-5 0 -12 -16zM572 1419q8 -2 8 -11l-8 -5h-8v5
q1 11 8 11zM901 1403v-5q8 0 8 10v5q-8 -1 -8 -10zM1031 1333q2 -10 8 -10l4 10h-12zM365 1307h8v-10h-8v10zM353 1247q0 -8 -8 -20h16v5q-4 9 -4 15h-4zM292 1216v-10h4v10h-4zM284 1196q0 -11 -4 -20q12 0 12 -10l-4 -10h8q0 5 -8 40h-4zM467 1115h8v-15h-8v15zM527 1110
h9v-15h-9v15zM462 1095l5 -10v-5q-8 5 -13 5q2 10 8 10zM458 1075q4 -10 4 -15l-8 -20q4 -10 4 -16h-12v16q0 5 4 5l-4 10q6 20 12 20zM495 1065q1 -10 8 -10v10h-8zM479 1060v-10h4v10h-4zM523 1030v-11h4v11h-4zM467 898v-5q1 -10 8 -10v5q0 10 -8 10zM426 883h8v-25
q-8 0 -8 10h4l-4 10v5zM76 853v-5h9v5h-9zM24 843v-11h4v11h-4zM60 843v-11h4v11h-4zM434 782q0 -7 12 -15v25h-4q-8 -2 -8 -10zM438 731v-15l8 -5v5q-4 10 -4 15h-4zM438 661v-21h8q-4 9 -4 21h-4zM442 615v-10h4v10h-4zM438 580q0 -7 12 -15v5q0 10 -8 10h-4zM438 514v-10
h8q0 10 -8 10zM438 403v-10q8 0 8 10v10q-8 -1 -8 -10zM434 373q4 -20 4 -36h4l4 26zM434 322l-4 -30l8 -5q8 0 8 10q-8 0 -8 25h-4zM438 211h8v10q-8 -1 -8 -10zM499 216v-15h4v15h-4zM503 135q0 -5 -4 -15h4l4 10v5h-4zM491 95v-10h4v10h-4zM381 54h4v-10h-4v10z" />
    <glyph glyph-name="U" unicode="U" horiz-adv-x="1095" 
d="M361 1523h32q43 0 101 -111v-4q-13 -21 -23 -102q-11 -13 -41 -144q-32 -107 -129 -380q-86 -277 -137 -486h-9v-5q0 -53 -9 -91q19 -24 23 -24h13q89 69 156 183q113 141 133 202q77 121 87 168q40 57 73 144q77 91 87 164q15 0 41 106l37 115q19 64 46 125q-5 9 -5 20
q22 0 50 86q5 0 5 5q64 0 64 -19h5l9 5l4 -10v-77h14q-32 -137 -46 -265h-4q0 -4 4 -4q-32 -303 -78 -477q-105 -284 -105 -519l5 -10l-5 -24q0 -3 5 -62l-5 -20l14 -24l-14 -19q3 -39 14 -39h4v5q-9 0 -9 5q5 9 5 15h9q0 -14 23 -77l-14 -10q0 -6 41 -39v-14h-22
q-107 55 -161 159q-73 167 -73 332q-4 0 -4 5q4 26 4 43v38h-9q0 -11 -50 -86q0 -16 -78 -92q0 -9 -73 -53q-104 -129 -174 -144l-83 -19h-4q-22 0 -37 29q-64 46 -64 134h5l-5 10q26 278 82 472l92 341q9 67 18 87q-4 9 -4 14q11 6 64 231q27 59 27 116l-4 9q1 17 32 39
q0 32 50 43zM951 1509h5q7 0 14 -15v-9h-9q0 7 -10 19v5zM942 1465v-5h9v5h-9zM956 1436v-9h9q0 9 -9 9zM951 1379v-10h10q0 10 -10 10zM924 1210v-5q1 -9 9 -9v5q0 9 -9 9zM301 1119v-10h5v10h-5zM251 806v-10h5v10h-5zM205 772v-9h5v9h-5zM768 489v-15h5v15h-5zM150 445
v-9h5v9h-5zM709 388v-10h4v10h-4zM105 354v-10h4v10h-4zM114 267v-14q9 0 9 9zM105 205q4 -10 4 -15h9q-4 10 -4 15h-9zM723 200v-15h4v15h-4zM736 152v-10h9v10h-9zM41 147v-10h4v10h-4zM723 137v-9h4v9h-4zM663 65v-14h9v5q0 9 -9 9zM732 -7v-10h9v10h-9zM759 -118l14 -9
h4q0 11 -4 19q4 9 4 14h-4q-11 0 -14 -24z" />
    <glyph glyph-name="V" unicode="V" horiz-adv-x="951" 
d="M861 1671h4q-7 -76 -17 -76q0 5 -4 5q7 71 17 71zM810 1628h8v-13h5l8 4q4 -8 4 -13q-4 -14 -8 -14l4 -8l-8 -14v-4q12 0 12 -9q-67 -216 -79 -313l8 5q0 -5 4 -5q-11 -47 -21 -111q-8 0 -25 -103q-46 -150 -91 -272q-76 -118 -155 -366q-67 -279 -83 -331
q-35 -36 -71 -94l-9 -4q0 9 -21 9q0 -9 -8 -9q-9 36 -38 36v-5l-33 14l-21 -5l-16 27v4l4 9q-7 0 -17 32l4 9q-8 20 -8 44q0 6 21 49q-21 113 -59 433q-46 210 -71 402q-11 19 -46 228h5q-5 7 -9 44q0 5 4 5l-8 67q0 82 46 111h37q93 -65 109 -138q0 -20 -4 -98
q8 -72 8 -107q0 -5 -4 -5l4 -22v-5q0 -110 50 -223q75 -243 75 -384h5q77 231 129 349q79 159 192 415l8 -5h9v9q0 9 -9 9q17 63 34 63q6 0 12 13q-8 0 -8 9v4q0 17 21 50q15 58 25 58l4 -9v-14h-8v-9q21 13 21 40q-9 0 -9 14q9 45 30 45l-5 22q21 0 21 40h4q8 -4 17 -4
q0 4 4 13l-4 27v4zM802 1575l-9 -36q13 0 13 -13h4v13q-8 0 -8 9q8 18 8 27h-8zM760 1508q4 -9 4 -14h13l8 5q-4 22 -8 22zM802 1512v-9h4v9h-4zM793 1481v-5h9v5h-9zM777 1472v-9h4v9h-4zM768 1450l-4 -9q1 -9 9 -9h4v9q0 9 -9 9zM764 1383q1 -9 9 -9l4 9v9h-4q-9 -2 -9 -9
zM739 1387q0 -5 -4 -13h8v13h-4zM731 1356l-4 -9v-9q4 0 12 -4l4 8q0 7 -12 14zM685 1320v-9h4v9h-4zM739 1316v-9h4v9h-4zM706 1204l-4 -9q1 -9 8 -9l4 9q0 9 -8 9zM735 1182v-5h4q0 9 8 9v9q-6 0 -12 -13zM714 1155v-9h4v9h-4zM388 369v-9h5v9h-5zM297 276v-9h4v9h-4z
M363 217v-8h5v8h-5zM242 17l-4 -9q5 0 13 -5v5q0 9 -9 9zM272 12v-9h12q0 9 -8 9h-4z" />
    <glyph glyph-name="W" unicode="W" horiz-adv-x="1251" 
d="M1148 1687h8q0 -18 4 -24l-4 -24v-24q-8 0 -27 -68q3 0 12 -12q0 -9 -23 -20q-12 -38 -12 -52l8 -4q-21 -71 -31 -71v8l8 15h-8l-4 -15l4 -20h-4q4 -8 4 -12q-11 -21 -15 -60h-8v8q-8 -2 -8 -8v-8h8v-12q-15 -52 -15 -68h-12v8h-7v-4q0 -8 11 -8v-24h-4l-7 4l-4 -8h7v-8
l-7 -12v-4l7 -12l-30 -112v-12q-8 -1 -8 -8q5 0 11 -12q-11 -19 -11 -52v-16q-8 -12 -12 -28q4 -7 4 -16v-8q0 -8 -7 -8l3 -20q-7 -13 -7 -24v-4q0 -9 4 -15q-8 -29 -23 -136q3 -8 3 -12q-46 -286 -103 -455q-41 -106 -77 -232q-30 -36 -77 -36h-15q-46 41 -46 60
q-15 3 -96 200q-77 202 -77 347l-23 128h3l-3 8v72q0 22 3 56q-3 7 -3 11q10 40 15 40l-4 8v4q12 11 12 100l7 4l4 -8v-16q0 -4 -4 -4q4 -8 8 -36l-4 -8q3 -17 16 -24v-4h7l-4 8v4h8q0 -9 4 -16q-4 -7 -4 -12q0 -9 27 -79q0 -18 12 -52q3 -16 3 -28q-3 -8 -3 -12
q10 0 34 -124q0 -4 -4 -4l31 -144h-4q15 -35 15 -48q-3 -7 -3 -16q16 0 50 -163q4 0 11 -36q9 1 46 143q50 136 73 268q31 129 73 363l42 160q62 240 139 403q46 101 103 184v8zM1145 1651q0 -9 -4 -16h7v16h-3zM1110 1539v-8h8v8h-8zM1072 1443q1 -8 7 -8h8v8q0 8 -8 8
q-7 -1 -7 -8zM1052 1376v-4q8 0 8 8v4q-8 -2 -8 -8zM1002 1356v-8h4v8h-4zM1026 1332v-12h11v4q0 8 -8 8h-3zM1060 1332v-8h4v8h-4zM1002 1280v-16h4v16h-4zM1026 1272q7 -28 7 -32q-4 0 -4 -4h4q8 20 8 32l-8 4h-7zM976 1248v-8h3v8h-3zM65 1220q49 -48 69 -144
q50 -161 50 -224v-8q0 -100 -34 -287q0 -11 30 -204h-3q3 -7 3 -12q10 3 70 136q125 306 184 539q8 16 11 16v-12q0 -32 -23 -80l4 -24h8v28h4q7 -1 7 -8q-7 -28 -7 -32l4 -20q0 -27 -20 -56q-3 0 -3 -12q0 -7 11 -7l-11 -56v-8l7 -12q-27 -149 -103 -396
q-77 -182 -112 -315q-26 -28 -54 -28h-27q-80 30 -80 116v8q27 220 27 235q-4 7 -4 16l4 16l-31 188q-8 37 -8 60l4 8q-8 13 -8 24v16q0 13 4 20q-19 264 -38 315q-4 38 -4 84v16q0 58 46 100q20 4 23 4zM972 1160v-8h7q0 8 -7 8zM1002 1140v-12l8 -4v4q-4 8 -4 12h-4z
M991 1088q0 -4 -4 -12h12v4q0 8 -8 8zM918 1080v-8h4v8h-4zM465 1080h4v-20l3 -48h-7l-4 40h-8q0 -20 -8 -20v16q15 32 20 32zM979 1072v-8h4v8h-4zM465 1000h7v-8h-7v8zM949 916l-4 -8l8 -4h3v4q0 8 -7 8zM910 884v-8h8v8h-8zM488 876q0 -8 -4 -8q4 -7 4 -12h7l-3 20h-4z
M415 868v-12h7v12h-7zM511 785v-4q1 -8 7 -8v4q0 8 -7 8zM127 761v-8h3v8h-3zM123 705v-8h7q0 8 -7 8zM399 693v-8h4v8h-4zM342 613v-8h7v8h-7zM307 525v-4h8v4h-8zM515 417v-8h3v8h-3zM868 393v-4q8 0 8 8v4q-8 -1 -8 -8zM810 397v-8q8 0 8 8h-8zM127 325v-8h3v8h-3z
M127 313v-8h3v8h-3zM618 309v-4h8v4h-8zM184 78v-8h4v8h-4z" />
    <glyph glyph-name="X" unicode="X" horiz-adv-x="1091" 
d="M681 1654q27 0 76 -78q0 -13 4 -19l-8 -85l4 -8q0 -69 -83 -349q-19 -36 -64 -194q-53 -141 -53 -144q-6 -12 -22 -73v-4q8 -11 18 -39l-3 -19l7 4h4q10 0 15 -35q18 0 30 -43q8 -1 8 -8l-4 -8q23 0 26 -31q-7 -3 -11 -3q4 -7 4 -16q12 8 19 8q7 -8 7 -31l8 4
q62 -72 82 -105q-7 -4 -11 -4v-4l4 -27h-8q15 -22 15 -31l-15 -16q-15 18 -15 28l8 4l7 -4v7q0 6 -15 16q0 -16 -11 -16q-5 0 -41 43v4q4 0 11 4l-4 8l4 7q-5 1 -15 20v4h15v11q0 17 -15 43h-8q12 -14 12 -27l-12 -8q4 -35 12 -35q-4 -6 -4 -19h-4q-5 0 -19 19q0 3 4 23v4
h-4q0 -11 -7 -11q-6 0 -12 11v4l4 20q-8 0 -15 -4q-5 0 -53 66q-26 27 -26 46q15 0 15 8v4q0 6 -15 15q0 -23 -7 -23q-9 0 -15 31h-12l-124 -314q-9 -7 -19 -47q-79 -142 -79 -182q-26 -37 -26 -116v-4q0 -8 -8 -8h-4v4q0 12 4 12q-4 13 -4 38h-3q-4 -27 -12 -27l4 -8v-3
q-13 0 -22 -24v-4q1 -7 7 -7l8 19h3v-12l-3 -7q3 -8 3 -12h-3l-12 8v-8h-7q-12 61 -19 78v11q0 20 11 20v11q-7 0 -7 -11h-8q-7 38 -7 77v31q0 163 158 574l45 105v12q0 18 -30 62q-95 196 -245 407q-94 124 -94 202q9 23 15 23h8q0 -16 7 -16l19 4q0 -4 45 -31
q72 -70 83 -70l90 -112q0 -13 34 -70q39 -46 68 -155q14 -9 38 -82q14 -23 18 -23q68 171 170 481l53 159l7 4l-4 8q0 36 30 58zM670 1623v-8q1 -8 8 -8q0 5 3 12l-7 4h-4zM719 1553q0 -6 -11 -15h4q5 0 15 15h-8zM651 1491v-8h4v8h-4zM30 1472q0 -10 -7 -31h11q0 10 11 23
v8h-15zM56 1437v-4q6 0 12 12h-4q-8 -2 -8 -8zM678 1414h7v7q-7 -1 -7 -7zM34 1410v-4q7 0 7 8v3q-7 -1 -7 -7zM87 1417q0 -6 -8 -15v-8h8q0 15 7 23h-7zM625 1402h8v8q-8 -2 -8 -8zM655 1394q0 -6 -7 -15h7q0 4 4 11v4h-4zM113 1390v-8q7 0 7 8h-7zM602 1390v-8h4v8h-4z
M139 1355h8v8q-8 -1 -8 -8zM117 1340v-4h7v4h-7zM162 1332v-8h4v8h-4zM629 1320q0 -8 -4 -15h8l3 15h-7zM139 1317l-3 -8v-4h3q8 0 8 8zM576 1317v-8h4v8h-4zM192 1293v-11l8 -4v4q-4 7 -4 11h-4zM166 1289l-4 -15q7 0 7 12v3h-3zM143 1262v-7q8 0 8 7h-8zM203 1262v-7h4v7
h-4zM629 1251v-4q7 0 7 8v3q-7 -1 -7 -7zM572 1255v-8q8 0 8 8h-8zM196 1247l-4 -20h8v20h-4zM166 1235v-8h3v8h-3zM222 1235v-8h8v8h-8zM196 1200h7l4 16q-6 0 -11 -16zM245 1204v-8h3v8h-3zM218 1181v-4h8l4 15q-6 0 -12 -11zM282 1189v-8h4v8h-4zM275 1177l-4 -8v-4h4
q0 8 7 8v4h-7zM271 1150l8 -4v12q-8 -2 -8 -8zM520 1150v-8h3v8h-3zM279 1134v-11h3q8 0 8 7l-8 4h-3zM301 1095v-3q8 0 8 7v4q-8 -1 -8 -8zM523 1095v-3q8 0 8 7v4q-8 -1 -8 -8zM282 1084v-8h4v8h-4zM602 1072v-4h8v4h-8zM271 1057q1 -8 8 -8v8h-8zM286 1030l-4 -16
q8 0 8 12v4h-4zM331 1026q0 -6 -11 -16h4q5 0 11 12v4h-4zM493 1014v-8q6 0 12 12v4h-4q-8 -1 -8 -8zM369 1006q0 -5 -11 -23v-19h3q0 19 12 35v7h-4zM301 987v-8h4q0 10 8 20v3q-10 0 -12 -15zM328 967v-11h7v19q-7 -1 -7 -8zM542 967h8v8q-8 -1 -8 -8zM369 952v-16h4v16
h-4zM523 940v-7q8 0 8 7h-8zM361 936l-3 -7v-16h7l-4 8l8 12zM388 913v-4q7 0 7 8v4q-7 -1 -7 -8zM369 902l-15 -35l7 -4h4q0 18 8 27v12h-4zM523 894v-8h4v8h-4zM463 882v-4q8 0 8 8v4q-8 -1 -8 -8zM388 878q0 -15 -8 -15q4 -8 4 -12q6 0 11 16q-3 7 -3 11h-4zM437 863v-4
q7 0 7 8v4q-7 -2 -7 -8zM467 836v-8h4v8h-4zM523 832v-8h4v8h-4zM407 774h7v7q-7 -1 -7 -7zM467 727v-8h4v8h-4zM520 673v-16h7q8 0 8 8v19h-4q-6 0 -11 -11zM418 680v-7h4v7h-4zM361 665l-3 -16q7 0 7 12v4h-4zM520 653v-7q3 -8 3 -12h4v4q-4 7 -4 15h-3zM388 649v-3h7v3
h-7zM520 622v-15q6 4 15 4v11q0 8 -8 8q-7 -1 -7 -8zM546 630v-8h4v8h-4zM553 615l-7 -28q15 7 15 28h-8zM576 584l-4 -28l12 -7q0 3 3 23q-3 7 -3 12h-8zM414 572v-8h4v8h-4zM546 552v-7q1 -8 7 -8h4q8 0 8 8v7q0 8 -8 8h-4q-7 -1 -7 -8zM599 552v-11h7v11h-7zM591 525v-4
q1 -7 8 -7q0 4 3 4l4 -8l-4 -8q4 -7 4 -12h-4q4 -7 4 -11q-4 -8 -4 -12q4 0 19 20v7q0 14 -15 31l-7 -4zM576 518v-8h8v8h-8zM305 506h8v8q-8 -2 -8 -8zM328 490v-7q7 0 7 7h-7zM279 487v-8h3v8h-3zM625 475q4 -19 19 -19v3q-4 7 -4 20q-7 -4 -15 -4zM309 471v-8h4v8h-4z
M361 459v-7h8v7h-8zM681 440l-3 -8q7 -1 7 -8h-4q0 -3 4 -3q-4 -27 -7 -35q7 -2 7 -8v-8l-4 -8h16v16l-8 12v3h11q6 0 12 -11v-12l-8 4h-4q13 -23 19 -23h4v11q-11 0 -11 8q5 0 15 12q-30 43 -30 54zM305 409v-12h4q0 4 4 12h-8zM749 370q6 0 23 -23v-4l-11 -15l11 -8h4v8h7
q6 0 11 -12v-4q0 -8 -7 -8q4 -7 4 -11l19 3h3v-31l12 8h3q19 -15 19 -35h-4q15 -22 15 -27h4v8q-8 0 -11 19h4q38 -34 52 -66l-7 -11v-20q26 0 26 -27l8 -4q5 0 11 12q-7 0 -7 8v7q22 -12 22 -34q-7 -2 -7 -8l7 -12q-4 -7 -4 -11h-3l-27 31v-4l4 -20l-8 -4l-7 12l7 4
q-7 12 -7 27h-8v-15h-18v3l3 16q-3 7 -3 15l-15 -11q-19 11 -19 23q3 8 3 12l-7 -4h-4q-19 9 -19 35l-7 -4q-19 31 -23 31q-39 40 -53 66v8q3 0 23 3v-3q-4 -7 -4 -16l4 -8l19 4q7 0 7 -11v-12q6 -4 23 -4l-4 -19q15 -4 27 -12l3 8l-105 116l15 16q-4 6 -4 15zM309 362
q0 -4 -4 -11v-8h4q0 9 4 16v3h-4zM252 355v-12h4v12h-4zM279 331v-7h3v7h-3zM305 304v-8h4v8h-4zM226 285v-12h15q0 6 -15 12zM211 277v-8h4v8h-4zM825 254v-4h7v4h-7zM313 250q0 -4 -4 -12v-4h4q0 5 3 12v4h-3zM282 231q0 -5 -3 -12v-8h3q0 9 4 16v4h-4zM843 207v-15l8 4
q1 -8 7 -8h4v4q0 6 -15 15h-4zM866 207v-4h8v-15l-8 -12q8 -12 8 -23q-4 0 -4 -4h7q0 16 4 16l-4 7q0 8 12 8v8q0 5 -19 19h-4zM260 203l-4 -19q8 0 8 8v11h-4zM203 192v-4h8v12q-8 -2 -8 -8zM181 188v-4h7v4h-7zM230 169h7v7q-7 -1 -7 -7zM847 176v-7h4v7h-4zM915 165h4
l19 -24v-4l-8 4q0 -4 -4 -4q-11 15 -11 28zM203 145v-8h4v8h-4zM256 141v-7h4v7h-4zM233 122v-8h4v8h-4zM177 110v-4q7 0 7 8v4q-7 -1 -7 -8zM226 110v-4h7v4h-7zM200 87v-8h3v8h-3zM968 87h15q0 -4 3 -12v-11q16 0 23 -16l-4 -7q30 0 34 -39l-7 -4q-34 30 -34 39
q0 6 -27 23q0 6 -7 15q4 8 4 12zM184 72q0 -9 -11 -24v-4h4l11 24v4h-4zM200 68v-12h3v12h-3zM226 52l7 -4q0 6 8 16h-4q-5 0 -11 -12zM938 64h15q7 -1 7 -8v-8q-13 -4 -15 -4q-7 13 -7 20zM207 44q0 -7 -7 -7v-16h3q0 10 8 20v3h-4zM222 44v-15l8 -12v-15l-4 -8l7 -4
q4 12 4 43zM964 41h26v-16h-4q-22 4 -22 12v4zM200 9v-11h3v11h-3zM215 6v-8h3v8h-3zM1047 2h11v-8h-11v8zM203 -18v-11q1 -8 8 -8q0 4 4 12q-4 6 -4 15q-8 -1 -8 -8z" />
    <glyph glyph-name="Y" unicode="Y" horiz-adv-x="886" 
d="M707 1507q4 -6 4 -14l11 7q41 -60 41 -129q0 -59 -30 -116q-105 -188 -138 -301q0 -14 -8 -14q0 -3 4 -3q-27 -106 -71 -179q0 -8 -86 -150q-26 -36 -26 -52q7 -13 7 -28v-11q17 0 23 -14v-17h-4q-20 21 -34 21q-9 -18 -14 -18h-4l-8 4q-63 -100 -101 -270
q-17 -97 -22 -101q-7 3 -11 3v-3q0 -3 11 -11q0 -19 -15 -38q4 -7 4 -11q-22 -59 -26 -59q0 3 -4 3q-9 -24 -15 -24q0 3 -4 3q11 29 19 39v28h-8l4 -18q-22 -54 -34 -66q-3 0 -3 3l-8 -3h-3v3l7 14q-7 14 -7 25l3 21q-3 23 -3 45q0 4 3 4q0 3 -3 3l7 60q-4 19 -4 38l4 18
q0 3 -4 3q23 163 71 287h8l-4 18q45 109 45 119q-41 88 -90 248q-37 48 -108 252q-75 184 -75 259l4 14q-4 24 -4 28q9 66 19 66q27 0 30 -14l7 4h11q87 -83 109 -193q15 -24 41 -220q0 -96 78 -221q38 -87 38 -101q18 12 78 178q111 363 194 483q34 84 57 84q8 0 37 14z
M692 1469v-7h4v7h-4zM38 1416v-7h4v7h-4zM636 1378v-7h4v7h-4zM580 1322v-7h4v7h-4zM606 1318v-7h4v7h-4zM38 1311v-7h4v7h-4zM584 1178v-7h3v7h-3zM528 1122v-17h3v17h-3zM498 1105v-7h3v7h-3zM528 1066v-14h3v14h-3zM184 1052v-7h3v7h-3zM554 1007v-7h3v7h-3zM471 979h8v7
q-8 -1 -8 -7zM475 940v-3h8v3h-8zM232 895l-3 -14v-11h3q0 16 4 21v4h-4zM262 884v-10h4v10h-4zM236 856v-7h4v7h-4zM442 846v-4q7 0 7 7v4q-7 -1 -7 -7zM311 758v-7h3v7h-3zM389 744v-3h4q0 5 7 14h-3q-8 0 -8 -11zM371 734v-7h3v7h-3zM314 727v-10h4v10h-4zM389 699v-10h4
v10h-4zM393 654l-4 -14q8 0 8 10v4h-4zM311 629v-7h3v7h-3zM341 591q8 0 11 17q-9 0 -11 -17zM311 573q1 -7 7 -7v7h-7zM262 482v-7q8 0 8 7h-8zM311 468v-3q5 0 11 10h-4q-7 -1 -7 -7zM232 440h8v7q-8 -1 -8 -7zM266 433v-7h4v7h-4zM314 426v-7h4v7h-4zM236 405v-3
q7 3 11 3v11q-5 0 -11 -11zM262 377v-7h4v7h-4zM243 367v-4h8v4h-8zM236 300h7v7q-7 -1 -7 -7zM236 279v-7h4v7h-4zM232 258v-7q8 0 8 7h-8zM180 199h7v7q-7 -1 -7 -7zM180 157v-11h4q0 4 3 11h-7zM232 153v-10h8v3q0 7 -8 7zM176 139v-10h4v10h-4zM229 136v-7q7 0 7 7h-7z
M176 101q1 -7 8 -7l3 7h-11zM232 90v-7h4v7h-4zM199 73h7v7q-7 -1 -7 -7zM184 55q0 -3 -4 -10v-4h4q0 4 3 11v3h-3zM176 38v-11h4v11h-4zM172 -15q5 0 15 21v4q-9 0 -15 -25z" />
    <glyph glyph-name="Z" unicode="Z" horiz-adv-x="1328" 
d="M1278 1589h13q0 -14 20 -20l-4 -9v-4l29 -4v8h4l9 -4q0 4 4 4l8 -12v-4h-4l-8 4l-5 -8v-8h9v-12q-27 0 -38 -21q9 0 9 -4q-4 -12 -9 -12q-8 4 -12 4q0 -16 -25 -16v-5h8v-12h-8l-8 4q-9 -54 -33 -90q0 -110 -257 -314q-144 -143 -158 -180q-31 -40 -79 -147
q-71 -99 -153 -233q-82 -114 -187 -237l-87 -139q47 -4 112 -20l8 4q122 -18 237 -45v-4q4 0 4 4q58 -10 58 -21l8 4q60 -16 174 -36q2 0 17 4q4 0 12 -4q29 4 46 4l17 -4q19 10 78 20q41 20 58 33h5v-8q-29 -18 -34 -37l-8 4q-6 0 -25 -25h-8l-13 8l-4 -20h-8q0 6 -12 25v4
h-5l-4 -21v-12l9 -12q0 -6 -13 -13q-8 17 -8 25v12h-17v-12l-12 -12l-8 4q0 -7 -9 -17v-16h9v-4q-6 0 -21 -16h-8q8 16 8 24h-8q0 -17 -25 -37q-4 8 -4 13h-5q-8 -2 -8 -8q4 0 4 -5q-17 -8 -25 -8q-8 4 -12 4q0 -4 -4 -4q0 8 -9 8h-8q0 -16 -12 -16l-21 8q0 -8 -8 -8
q0 6 -13 12q0 -6 -16 -16h-9l-12 8q-8 -4 -12 -4l4 8v4l-29 -16q-38 13 -38 29h-4q0 -12 -16 -21q-26 11 -104 25q-8 21 -8 32h-4q0 -8 -5 -8l5 -8v-8q0 -8 -9 -8l-16 12l-21 -4q-11 24 -17 24v-12h-4q-16 7 -16 25h-5l-8 -4l8 -17q-4 0 -4 -4q-25 5 -25 12l9 13l-9 4h-8
v-17h-8q-6 0 -13 13q0 4 5 4l-5 8v4q9 10 9 16v4h-4q0 -8 -13 -28q-4 0 -25 16l-8 -12q8 -1 8 -8v-4h-21l-8 4l4 8q0 8 -8 8h-4v-4q4 -8 4 -12h-12q0 11 -13 16l-8 -4q-8 0 -8 8v8q18 0 29 21h-13v-13h-4q-14 0 -29 13q0 -8 -4 -8l4 -9v-8h-17q-11 0 -12 21h-4q0 -21 -4 -21
q-17 0 -17 21q-3 0 -21 -21q0 4 -4 4l4 8v13h-8q0 -13 -25 -13v-8q17 0 17 -8l-9 -4h-4q-8 0 -8 16h-17v-12h-8q-8 0 -8 8l12 25q-10 0 -12 16h-4v-8q8 -1 8 -8q-12 -18 -12 -33h-9q0 18 -16 25q-3 -21 -13 -21h-4v8l8 13v8q-16 12 -16 24q-6 0 -13 -16l21 -4v-8
q-12 0 -12 -8l-17 4l-8 -4q-7 4 -17 4q0 -4 -4 -4q0 36 -16 36q0 -6 -9 -16q6 0 13 -12q-4 0 -13 -13q-16 5 -16 17l-13 -8h-4q0 12 -17 28q-8 -4 -12 -4q-8 4 -12 4q4 17 16 17l8 -4q23 9 63 20q0 4 4 4q0 -4 4 -4q-8 -13 -8 -20q27 49 78 49q15 13 92 183q84 161 323 487
q146 203 394 461q5 2 178 176q-278 -110 -377 -110q-29 0 -120 -4v4q-4 0 -4 -4q-143 0 -170 28q-14 0 -63 123v4h13l8 -4l-4 -16v-9h4q11 45 25 45l8 -4q0 8 42 13q20 -5 20 -9q5 0 5 4q105 -4 153 -4h41l13 -8l12 8h33l17 -12q0 6 13 12q18 0 45 -16q4 7 4 16h21
q12 0 37 -16q6 20 13 20h8l8 -4l-4 -8v-4h13q0 12 8 12h4q0 -12 8 -12h5l16 21h4l29 -9q9 17 25 17q43 -8 46 -8q0 5 20 16h5l16 -12q29 20 46 20q4 -8 4 -12l29 8l-4 8v4q4 0 12 4q0 -6 13 -12h8q2 16 12 16v-4q-4 -8 -4 -12q7 0 17 16q-4 8 -4 13l29 24h4v-16h8v8l-8 12v4
q1 8 8 8l4 -16q21 6 21 29v12zM1303 1552q0 -9 -4 -16q6 0 16 -8v12q0 6 -12 12zM1237 1532v-17h4v17h-4zM1299 1515v-8h4q8 0 8 8v5q-8 -5 -12 -5zM1266 1507h8v8q-8 -1 -8 -8zM1183 1479q0 -7 -9 -17v-4q13 0 13 17v4h-4zM1237 1458v-8h16l-4 8l4 21q-6 -1 -16 -21z
M1125 1475q0 -17 -13 -17q4 -7 4 -20h5q0 8 4 8l-4 8l12 21h-8zM967 1442v-12h4q0 12 25 12q0 -4 4 -4l9 16h-17q-16 -12 -25 -12zM1150 1454q0 -14 -5 -20v-4h5l4 16v8h-4zM1203 1446v-12h5q0 4 4 12h-9zM1083 1442v-8h4v8h-4zM1033 1438l-4 -8v-13h4q0 14 5 21h-5z
M1067 1434v-8h4v8h-4zM1116 1409h9q8 0 8 8v9q-7 0 -17 -17zM946 1421v-4h13v4h-13zM1232 1413h5q8 0 8 8h-4q-9 -1 -9 -8zM760 1413v-8q8 0 8 8h-8zM830 1409v-8h9v8h-9zM971 1405v-4h9v4h-9zM917 1397v-8h5v8h-5zM1203 1372q7 0 17 17v4h-4q-10 0 -13 -21zM1154 1389v-8
q8 0 8 8h-8zM1179 1360q0 -4 -5 -12h9v12h-4zM1062 1356v-8h5v8h-5zM1087 1327v-8h5v8h-5zM1038 1323l-5 -8v-4h5q0 4 4 12h-4zM1079 1274q4 -8 4 -12q6 0 13 12h-17zM967 1209v-12h4q0 4 4 12h-8zM1033 1209q2 -8 9 -8v8h-9zM992 1180v-8q6 0 12 12q-8 -4 -12 -4zM967 1152
v-8q8 0 8 8h-8zM880 1127v-8h4v8h-4zM938 1119v-4q6 0 13 12h-5q-8 -1 -8 -8zM909 1086v-4h4l13 25q-9 -2 -17 -21zM880 1058v-4h4l4 16q-8 0 -8 -12zM843 1037q1 -8 8 -8q8 0 8 8h-16zM731 1029v-8h4v8h-4zM789 923v-8h4v8h-4zM731 911v-8h4v8h-4zM644 890h8v8q-8 -1 -8 -8
zM735 858h4q8 0 8 8h-4q-8 -2 -8 -8zM731 849v-8h4v8h-4zM664 800v-8q9 0 9 8h-9zM553 792v-8h4v8h-4zM619 698l-8 -12v-8h4q0 16 12 16v4h-8zM553 686v-8h4v8h-4zM436 629v-4h9v12q-9 -1 -9 -8zM557 625h8v8q-8 -1 -8 -8zM374 527v-9h4v9h-4zM349 502q0 -9 -4 -16v-4h4
q0 4 4 12v8h-4zM474 502q0 -6 -9 -16h9q0 4 4 12v4h-4zM412 375v-8h4v8h-4zM254 343v-4h4q0 6 8 16h-4q-8 0 -8 -12zM312 347v-4q8 0 8 8v4q-8 -1 -8 -8zM295 343v-8q9 0 9 8h-9zM287 322v-8q8 0 8 8v8q-8 -1 -8 -8zM237 281q0 -4 -4 -12h4q9 0 9 8zM246 224h4q6 0 12 12v5
q-6 0 -16 -17zM200 236q0 -6 -8 -16v-4q6 0 16 16v4h-8zM316 228v-4q8 0 8 8v4q-8 -1 -8 -8zM225 204v-4q8 0 8 8v4q-8 -1 -8 -8zM287 208v-12h4q0 4 4 12h-8zM204 183v-8h4v8h-4zM229 155v-4q17 6 17 12v4h-4q-6 0 -13 -12zM287 151v-8q8 0 8 8h-8zM387 69v-8h4v8h-4z
M528 65v-8h4v8h-4zM291 49v-9h4v9h-4zM-86 49h8q9 -2 9 -9h-9q-8 0 -8 9zM-11 44l-5 -8v-16q6 0 13 12v4q0 8 -8 8zM192 36l8 -4v12q-8 -1 -8 -8zM229 32v-4h4l4 16q-8 0 -8 -12zM1158 49h8q0 -9 -8 -9v9zM407 40v-8q9 0 9 8h-9zM43 36v-8q8 0 8 8h-8zM109 36l-4 -8v-8h4
q0 9 4 16h-4zM283 28v-8q7 4 17 4v12h-9q-8 -1 -8 -8zM1141 32h9v-4q0 -6 -13 -12h-4q8 10 8 16zM204 24v-8h9q0 8 -9 8zM378 24q5 -8 5 -12q8 0 8 8l-8 4h-5zM582 20v-4h8v4h-8zM403 8v-9h4v9h-4zM494 8v-9h5v9h-5zM698 8q1 -9 8 -9v9h-8zM1112 4h9v-5h-9v5zM341 -13v-4h8
v4h-8zM470 -21h8v8q-8 -1 -8 -8zM494 -17v-8q5 -8 5 -12h8q-8 10 -8 20h-5zM938 -29q4 -8 4 -12q-4 -8 -4 -13h25l-4 21v12h-13q-8 -1 -8 -8zM515 -33l-4 -21v-4l17 -4l-5 8v21h-8zM644 -37v-8q8 -14 8 -25h4q0 4 4 12q-11 0 -12 21h-4zM399 -37l4 -8l-8 -5l-4 9zM673 -54
v-4l8 4h12l13 -8h4l-4 21h-8q-25 -3 -25 -13zM797 -50v-4q1 -8 8 -8v12h-8zM851 -58v-8q10 8 17 8v8h-9q-8 -1 -8 -8zM905 -50q8 -16 8 -24h9q0 3 4 24h-21zM992 -45h12v-9q0 -8 -8 -8q0 9 -4 17zM586 -66l-4 -16q5 0 12 12zM611 -66l4 -20h4q0 8 4 8q-4 8 -4 12h-8z
M669 -66v-4l4 -8q-4 0 -4 -4l8 -4h4l-4 8q4 8 4 12h-12zM880 -74v-4q8 0 8 8v4q-8 -1 -8 -8zM635 -74q5 -7 5 -16h4l4 20q-8 -4 -13 -4zM698 -78v-12q8 0 8 8v4h-8zM735 -78v-4q1 -8 8 -8h4v8q-4 0 -12 4zM797 -82v-8h4v8h-4z" />
    <glyph glyph-name="bracketleft" unicode="[" horiz-adv-x="849" 
d="M340 1699l24 -5v-4l-4 -10l8 -4h8q0 13 16 23h8l-4 -9l28 -24q0 19 8 19l20 -14l4 19h4q8 -2 8 -10q16 10 28 10q0 -7 32 -33l8 5h4q16 -10 16 -24h20v5q-4 9 -4 14h8q0 -9 20 -19q0 14 8 14q0 -6 12 -14l4 10l20 -5h8l8 5q4 -9 4 -14h12l12 9q0 -5 20 -33h-12l-8 5
q0 -8 -20 -33q8 -11 8 -18l8 4l-4 10v14q10 0 20 9v-5q0 -4 -4 -4q8 -22 8 -42q6 0 16 23v5l-12 18l8 5h8v-14h8l8 5q0 -13 8 -38h-4l4 -9q-33 -51 -56 -51h-20q-13 0 -20 4l-76 -9q-8 5 -12 5l-108 -24q-101 -237 -112 -364q-11 -43 -28 -205q0 -5 4 -5l-8 -51l4 -19
q-3 -46 -12 -46l4 -10v-42q0 -32 -8 -32q4 -9 4 -14l-4 -9l4 -10q-5 -23 -12 -23v5l-8 -5h-4v23l-4 10q-6 0 -24 -24q0 5 -4 5l-4 -9v-42q6 0 16 -10l4 10q-7 4 -16 4l4 33h4q20 -12 20 -19v-4q0 -5 -4 -5q0 -5 4 -5l-4 -32v-10l4 -9q-8 0 -8 -14h-8l4 47h-8q0 -14 -8 -14
q0 4 -4 4l-4 -46q8 -2 8 -10l-8 -14q4 0 4 -4q-28 -12 -28 -19v-5l8 5h4q28 -24 28 -28q-13 -14 -20 -14q-8 5 -12 5q-7 -33 -12 -33l4 -9q0 -10 -8 -10h-8v10h-4q0 -14 -12 -14v-10l8 5q0 -4 12 -14l8 5l12 -10q11 42 16 42l8 -18q-3 -28 -20 -28v-10q10 0 20 -9
q-5 -28 -12 -28h-8v14h-12v-23q1 -10 8 -10q1 10 8 10v-14q-10 0 -12 -19q4 -8 4 -19h-8v-32q0 -14 -12 -38q4 -8 4 -18l-8 -5h-4v5q0 19 8 46l-8 24q15 8 20 28q0 13 -24 23q0 3 -4 28q28 5 28 33q4 0 8 14h-4q-30 -42 -40 -42l4 -24v-14l-4 -32h8l-4 -33v-5q12 0 12 -9
q-16 -25 -16 -56h4l8 5l4 -10v-4l-8 -14l4 -33q-4 0 -4 -5q8 -1 8 -9v-5q-12 -20 -12 -32q12 0 16 -61h-4q8 -15 8 -23q-8 -2 -8 -10v-4q4 0 12 -5l-4 -23q12 -10 12 -89h4q0 20 12 28l-12 23v5q1 9 8 9q16 -19 16 -37l-4 -19l16 -14h4v10l-8 14v18q0 7 12 14h8v-4l-4 -10
q8 0 8 -18q8 4 12 4v10l-8 14v4h12l20 -4q1 9 8 9h4l12 -9l4 9q181 -19 208 -37q58 0 80 -42v-5h4q1 23 12 23q4 -9 4 -14l28 5q0 -10 32 -19l20 5l16 -9q7 4 16 4q4 0 4 -4l8 4h16q4 0 4 -4q93 18 104 28l4 -10l-16 -18q0 4 -4 4q-5 -19 -20 -28q-4 8 -4 19h-4
q0 -37 -24 -37q-26 -24 -40 -24q0 -9 -8 -9h-8v9h-4q0 -28 -36 -28q-25 -8 -32 -14h-24v-9l4 -9q30 9 56 9q0 -15 -100 -28h-240q-34 0 -184 79q-16 0 -20 24h-4v-14h-12q-52 49 -52 56v4q11 0 20 28v5q-14 -5 -16 -5q-13 10 -20 10l4 32h-4q-8 -4 -12 -4q-32 34 -32 51h-4
q0 -14 -8 -14v-5l8 -14h-8q-19 11 -36 38l4 23h-8q5 65 24 65v5q0 9 -8 9v-9h-8v5l-4 46q6 0 24 14q0 -10 20 -14v-18q0 -52 12 -52h4q0 12 8 24q-8 0 -8 42q2 0 12 18q-4 7 -4 28q-8 -1 -8 -9l4 -23l-8 -5q-8 0 -8 9v10l4 32l8 -4h4q0 17 8 28q0 9 -16 9v19q36 51 36 116
q4 0 12 42l-16 5v19q7 14 20 84h8v-19q8 0 12 28l-12 9l16 66l-4 9q8 15 8 28l-8 -5h-4v19h8v-9h4q0 17 8 28v4h-4l-12 -9q0 13 -24 42v5q3 0 12 14l-4 9q8 35 8 37l-4 28q8 0 8 14l-4 19q8 17 8 37q0 4 -4 28q0 14 12 14l-4 33v23q1 9 8 9q0 -4 4 -4v4l-4 10l8 28
q-8 0 -8 9q1 144 56 411q0 11 12 88l-36 117v5q0 30 56 84q46 51 96 51zM348 1662v-10h4v10h-4zM556 1666h8v-9q-8 0 -8 9zM616 1629l-12 -19h8l8 5q4 -9 4 -14q8 0 8 9q0 8 -16 19zM716 1634l8 -5q-4 -9 -4 -14h-12v9q1 10 8 10zM740 1629q8 -1 8 -9v-5h-8q-8 0 -8 9z
M580 1606h12v14q-6 0 -12 -14zM640 1620v-10h4v10h-4zM772 1620h4v-10h-4v10zM432 1601v-5h8v5h-8zM652 1601v-9h4q8 0 8 9h-12zM612 1587h8v9q-8 -1 -8 -9zM728 1578v-5h8v5h-8zM724 1554q1 -9 8 -9l4 9v10h-4q-8 -2 -8 -10zM676 1550v-10h4v10h-4zM280 1405q0 -7 -8 -19
v-4q6 0 12 18v5h-4zM332 1386v-9h4v9h-4zM240 1232v-23h4l4 23h-8zM336 1176v-14h8v14h-8zM268 1106h8q0 24 8 24v9q-10 0 -16 -33zM244 1097v-9h4v9h-4zM216 1078l-4 -18v-10h4q0 16 4 24v4h-4zM296 1041v-33h4v33h-4zM208 938v-9h4v9h-4zM192 915v-9q4 0 12 -5l4 23
q-10 -9 -16 -9zM240 901q4 -8 4 -23h8l-4 23q8 0 8 9v5zM300 906h8v9q-8 -1 -8 -9zM300 896v-42h4l4 24l-4 18h-4zM276 873h8v9q-8 -1 -8 -9zM196 878q0 -12 -8 -24v-32h8q0 4 8 37v19h-8zM240 840l4 -23q-8 -1 -8 -9v-19q12 0 12 -9h8v9h-8v23q0 11 4 19q-4 8 -4 19
q4 0 4 4h-4q-8 0 -8 -14zM276 850v-14q1 -10 8 -10h8q-10 24 -16 24zM296 845v-9q8 0 8 9h-8zM264 780v-14q12 0 12 -14q-4 -9 -4 -14l8 4q8 -4 12 -4v14q-12 19 -12 51q8 0 8 9v5q-8 0 -24 -37zM296 812v-28h4v28h-4zM184 766v-5h4l4 19q-8 0 -8 -14zM244 770v-14h4v14h-4z
M220 756v-23h4q6 0 12 14v5l-4 9q-8 -5 -12 -5zM164 747q16 -22 16 -28h4l4 23v5q0 9 -8 9h-8q-8 -1 -8 -9zM272 700l-4 -23h12v23h-8zM284 668l8 -5l4 23v14q-9 0 -12 -32zM156 673l4 -10v-9l-8 -14q8 -15 8 -23q-4 -10 -4 -14h8q7 37 12 37l-4 9l4 47q-18 -23 -20 -23z
M252 696l-4 -23v-5q8 0 8 9v19h-4zM216 677v-4q8 0 8 9v4q-8 -1 -8 -9zM216 659v-10h8q0 10 -8 10zM140 654l-4 -19q6 0 12 19h-8zM188 649l-4 -9v-5h4q0 5 4 14h-4zM256 626v-9h4v9h-4zM220 621q0 -9 -12 -9q1 -9 8 -9l8 14v4h-4zM264 621v-9h4v9h-4zM288 621q8 -1 8 -9
v-14q-8 -33 -8 -37h-8v14q0 9 8 46zM124 603h4q8 -2 8 -10q-12 -36 -24 -46v9l4 19l-4 9q6 19 12 19zM192 584q4 -8 4 -19h4l8 33q-16 -7 -16 -14zM168 575q0 -16 -12 -38v-4h12q0 21 8 32v10h-8zM112 547q12 -18 12 -33v-5q-24 0 -24 -23q0 -12 -4 -37q4 -19 4 -38
q-9 0 -28 -18h-4q27 77 36 149zM276 547h4q8 -2 8 -10v-4h-12v14zM128 533h4v-10h-4v10zM180 495v-37q16 0 24 23q-4 0 -4 5l-8 -5h-4v5q0 8 12 42h-4q-16 -8 -16 -33zM276 509l4 -9q0 -7 -16 -19l-8 14q0 8 20 14zM116 477h8v-28q0 -10 -8 -10h-4q-8 0 -8 10v18q12 0 12 10
zM268 477q8 -2 8 -10l-12 -9h-4v9q1 10 8 10zM184 430v-5h8l-4 10v9h8v14q-12 -5 -12 -28zM264 449h4v-19q0 -9 -8 -9h-4v18q1 10 8 10zM152 379l4 -19q-5 0 -24 -28l4 -9q-4 -9 -4 -14h8q2 18 12 18h4l-4 -23v-5h8l8 52q-4 25 -4 51l8 33q-17 0 -20 -56zM184 411q1 -9 8 -9
v9h-8zM124 374v-5h4l8 33v5q-9 0 -12 -33zM188 374l4 -23h8q0 5 4 14l-12 9h-4zM84 369q11 -2 16 -23l-8 -5h-4q0 7 -12 19q1 9 8 9zM60 341h4q0 -5 4 -14h-4l4 -9q0 -7 -24 -28v9q11 42 16 42zM76 304h8v-9q0 -10 -8 -10v19zM132 299q0 -14 -4 -14l4 -9l-12 -19
q2 -18 12 -18v-5q0 -5 -4 -5l4 -9l-4 -9l4 -10q-4 -8 -4 -18h4q6 0 12 18l-4 10q4 9 4 14t-4 14q0 9 8 32q-8 0 -8 28h-8zM92 299h8l-4 -28h-8v5zM148 295v-14h8q8 0 8 9v5h-4v-10zM48 281v-5q0 -9 -8 -9v4q1 10 8 10zM72 271v-4l-8 -14q4 0 4 -5l-8 -5l-8 14v5q10 0 20 9z
M156 229q1 -9 8 -9q12 3 12 37q-5 0 -20 -28zM84 257h8l-4 -32h-4v32zM28 239h8q0 -14 8 -33h-4l-8 5v-14h-8v4q0 24 8 24l-4 9v5zM60 211h4q-5 -33 -16 -33v19q0 6 12 14zM152 206v-9q8 4 12 4v5h-12zM112 197l4 -10q-16 -19 -16 -37l8 5h4v-14q-12 0 -12 -10h16v24h8v-33
h8q0 5 4 14q0 5 -16 61h-8zM164 187q0 -11 -12 -28q0 -4 4 -4l-4 -24l4 -18q-4 -9 -4 -19h8q8 32 8 56l-4 23q8 0 8 10v4h-8zM80 169v-5h8v5h-8zM24 169q8 -5 12 -5v-9q-8 4 -12 4v10zM44 155h8v-10h-8v10zM48 136l4 -9q-8 -12 -8 -24h-8v5q4 28 12 28zM96 103q4 -9 4 -14
l8 5v-9l-4 -10l8 -4v9q0 10 -4 19q8 15 8 23h-4zM8 99h8q0 -15 4 -33h-8q0 14 -4 33zM40 94v-5l8 5h4v-19h-8v10l-8 -5h-4v5q1 9 8 9zM128 89l-4 -9v-28h4q6 0 12 14v23l-8 -4q0 4 -4 4zM152 80v-19q8 0 8 10q0 9 -8 9zM176 61v-14h4v14h-4zM104 52q4 -9 4 -14h4v14h-8z
M156 47q0 -7 -8 -18l8 -5l4 19v4h-4zM168 47v-51h-4q-8 0 -8 23h-4v-9q4 -18 4 -37l12 9h4v-14h4q0 23 4 23q-4 56 -12 56zM40 33v-9h4v9h-4zM128 19v-23h4q0 9 4 9q-4 9 -4 14h-4zM156 -41v-5h8v5h-8zM128 -65v-4h4q0 7 8 18v5q-10 0 -12 -19zM176 -55q0 -19 -12 -19v-9
q6 0 16 -10q0 19 12 19v14l-8 -5h-4v10h-4zM44 -69q0 -10 -8 -10v-4q1 -10 8 -10q0 8 8 19zM152 -88v-9h4v9h-4zM188 -97v-10q6 0 16 -9v9q-6 0 -16 10zM188 -121v-23l4 -23h4v14q-4 9 -4 14h4l-4 9l4 9h-8zM60 -121h8v-4h-8v4zM336 -139q4 -9 4 -14h4q8 0 8 9l-8 5h-8z
M300 -153v-10h4v10h-4zM272 -158v-9h4v9h-4zM328 -167q0 -33 20 -33q-8 17 -8 42zM388 -158v-9h4v9h-4zM360 -163l4 -23q8 0 8 9v5q0 9 -8 9h-4zM292 -177q8 -11 8 -18q6 0 16 23zM216 -177q0 -21 -4 -28l16 -9l4 9q-12 16 -12 28h-4zM272 -177q3 -37 12 -37l4 9q-8 0 -8 28
h-8zM184 -200l8 -5v14q-8 -1 -8 -9zM360 -191v-9h4v9h-4zM388 -191v-9h8q0 9 -8 9zM116 -191h8q8 -1 8 -9h-8q-8 0 -8 9zM452 -195v-5h8v5h-8zM152 -200l-4 -9q8 0 8 -14q8 0 8 9q0 7 -12 14zM532 -205v-9h4v9h-4zM244 -209q0 -5 -4 -5l12 -23l-8 -14v-5h4q0 7 8 19v14
q0 6 -12 14zM180 -219v-9q8 0 24 -19v10l-12 23q-8 -5 -12 -5zM360 -214v-9h4v9h-4zM744 -214v-14q8 0 8 9zM216 -219v-28q4 -9 4 -14h8q-8 17 -8 42h-4zM272 -219v-23l-4 -23l8 -5q8 0 8 9q-8 12 -8 19l4 23h-8zM300 -219v-14h8q-4 9 -4 14h-4zM416 -219q1 -9 8 -9v9h-8z
M448 -219v-9h4v9h-4zM448 -233v-14h4v14h-4zM732 -233v-18h4q0 10 4 18h-8zM788 -237v-10h4v10h-4zM332 -242v-9h4v9h-4zM300 -247v-14h4v14h-4zM388 -247v-9h8q0 9 -8 9zM764 -247v-9h4v9h-4zM360 -251v-10h4v10h-4zM788 -251v-10h8q0 10 -8 10zM392 -261v-4h8v4h-8z
M416 -261v-9q4 -9 4 -14h4v5q-4 8 -4 18h-4zM360 -265v-10h4v10h-4zM328 -279v-10h4v10h-4zM372 -289v-9h4v9h-4z" />
    <glyph glyph-name="backslash" unicode="\" horiz-adv-x="569" 
 />
    <glyph glyph-name="bracketright" unicode="]" horiz-adv-x="660" 
d="M-117 1692q12 -4 12 -9l20 5h8q10 0 20 -32l8 5q-8 14 -8 22h4q7 0 20 -9l20 5q4 -9 4 -14v-13q12 0 12 -5q4 0 4 5l20 -5h4v9l-4 9q4 0 4 5q11 -2 20 -18l16 9q6 -18 12 -18h4l-4 9q1 9 8 9q6 0 24 -23q0 7 16 18q7 -22 24 -22q1 9 8 9q7 -5 16 -5q1 9 8 9
q18 -17 20 -17q0 6 12 13v-5l8 5h16q8 -2 8 -9l8 4h8q6 0 12 -13v-4l-4 -9q16 -5 16 -18h4v13l-12 18l8 13q28 -4 28 -13q-10 -9 -16 -9l4 -22l-4 -9l-8 4l-20 -4q0 6 -24 27v4h-4q0 -13 -4 -13l8 -23l-8 -4h-4q0 13 -16 13l-4 -9v-40h8v-4h-12v-5q0 -8 36 -13l4 9
q-4 0 -4 4l8 5q13 -18 36 -18v9h4q16 -18 28 -18l-4 9v9h4l12 -9q8 4 12 4q0 -9 16 -9v-13q0 -9 -8 -9h-12l-12 9v-4l4 -23l-12 -9q-6 0 -12 14q0 9 12 9q-4 8 -4 13l-20 -18h-4q-10 0 -12 18l-8 -4q8 -28 8 -36q-4 0 -4 -5q-80 8 -80 23q8 4 12 4v5q0 9 -8 9h-4l-12 -9
l4 -9v-5h-4q-20 8 -20 23h-8l4 -9v-14h-4l-16 23q-12 -12 -12 -18q-14 0 -32 18v-9h-4l-12 9l-12 -9q-13 0 -28 13v-9l-16 5l-16 -5q-20 3 -20 22q-16 -8 -28 -8l-20 4v9q12 0 12 9q-6 19 -16 36v8q1 9 8 9q0 -4 4 -4v4q-4 9 -4 14q4 0 4 4h-8q0 -9 -12 -9l4 -9l-8 -4
q4 -5 4 -36h4v9h4q8 -1 8 -9q-14 -27 -20 -27q-52 26 -52 67l12 9h8v-31q1 -9 8 -9q0 10 4 18q-4 8 -4 18q8 4 12 4v5q-28 0 -36 9q-3 0 -12 -14l4 -9v-9q0 -8 -8 -8q0 11 -20 22q0 -9 -8 -9h-12v9q0 9 12 9v4l-4 9l8 5q0 -18 8 -18q0 23 20 36q0 -11 4 -18l20 4l12 -9h4
q21 0 24 14v4q-4 0 -4 -4l-40 4h-12v5q4 8 4 13q7 0 24 -9l4 9v9q-20 0 -20 9l4 9q-16 0 -16 13q1 9 8 9zM-137 1688l16 -32l-20 -18q-8 2 -16 23q6 18 20 27zM-77 1643q0 -7 12 -13v13h-12zM-41 1643v-5q8 -10 8 -17q8 0 8 9v4q0 9 -8 9h-8zM-169 1638h8q0 -8 -8 -8v8z
M15 1634v-4h20v4h-20zM43 1634v-4h8v4h-8zM395 1638l24 -4v-18h-4l-20 14q-8 -5 -12 -5v-9q12 0 12 -9v-18h-8q0 11 -16 32v4q0 8 24 13zM79 1630l4 -23h8v5q-4 8 -4 13q4 0 4 5h-12zM99 1630v-18h4v18h-4zM327 1634q4 0 4 -4l8 4l24 -4v-9l-20 -5h-4l-8 5l-4 -9v-14
q12 0 12 -9l-8 -4q-10 13 -20 13v14q11 22 16 22zM135 1598q5 0 16 27h-4q-8 0 -12 -27zM251 1616h8v9q-8 -1 -8 -9zM-69 1607l20 -4v9q0 9 -8 9q-6 0 -12 -14zM159 1621v-5l12 -22v-5l-20 -4q0 4 -4 4q0 -4 -4 -4l-4 9q-7 -5 -20 -5v-13q4 0 4 4q24 -7 24 -13
q0 -18 -20 -18l8 -13q-4 -9 -4 -14l16 -17h4v8l-12 18q4 14 24 14q1 -9 8 -9h4v9q-28 22 -28 35h8l12 -9v9h4q24 -12 24 -17l-12 -18l8 -5h16v5l-8 13q4 8 4 18q-12 13 -28 18q0 4 -12 27h-4zM215 1621v-5q8 -20 16 -22v4q-8 21 -16 23zM439 1625v-9h-8q1 9 8 9zM-45 1612
l4 -9q6 4 24 4q0 9 -8 9zM191 1616l-4 -22h12q6 0 12 13q-12 0 -12 9h-8zM-9 1612l-4 -9h4l-4 -9l4 -9q-4 -9 -4 -14h8q0 4 4 36zM47 1612v-5h8v5h-8zM103 1607v-4l20 -5q-4 14 -8 14q-8 -5 -12 -5zM415 1612q4 -10 8 -49q-8 -2 -8 -9q-16 6 -16 13q0 4 4 4l-4 9v5
q11 27 16 27zM463 1612h4q48 -38 48 -63q12 0 12 -9q0 -4 -4 -4q4 -3 8 -76q0 -77 -28 -214q8 -2 8 -9v-9l-8 -14v-18l4 -26l-8 -32l4 -26q0 -9 -16 -45q16 -7 16 -13v-9q0 -23 -8 -23l4 -44v-67q0 -13 -20 -40v-9h4q0 18 8 18q8 -2 8 -9q-4 -31 -4 -50v-4q-36 -6 -36 -18
v-9q32 -3 32 -31q-4 -13 -8 -13l4 -9v-32q0 -10 -4 -17q4 -8 4 -18v-36q0 -6 -12 -13h-8l-12 9v-9q4 -9 4 -14q-4 0 -4 -4q6 0 16 -9h4l4 18h8v-32l-4 -26q8 -15 8 -27q-4 -24 -4 -27q12 0 20 -85q-4 -31 -12 -31v13h-8v-17l16 -14q0 5 4 5l12 -63l-12 -27l4 -9
q-4 -30 -8 -40l12 -22v-5h-8v-31q0 -9 -12 -9q0 -9 12 -9v-18l4 -26l-8 -18q12 -21 12 -54l12 9h4v-9q-16 -18 -16 -27q-4 0 -4 5q-12 -5 -12 -9v-13q-4 0 -8 -14q6 0 12 -13v-14h-12v9q-32 -21 -32 -31l4 -18q0 -13 -32 -35v-5q12 0 12 -9t-32 -13q0 -32 -28 -32
q0 -4 -4 -4q-8 4 -12 4l-8 -4l-20 13h-8q0 -13 -8 -13q-4 0 -4 4l-20 -4h-12l-12 9q-28 -3 -28 -9l-20 4h-16q-36 0 -68 9l-8 -4q-99 19 -112 27v9h-12l4 -9v-5h-4q-6 0 -12 14q4 0 4 4h-12v-13h-24q-9 0 -36 18q-8 -5 -12 -5l-8 14q0 7 28 22v13q10 9 16 9v5q-4 0 -12 4
l-24 -4v-5q12 0 12 -9v-4q0 -9 -8 -9v4l4 9q-16 0 -24 18l16 18q0 -5 4 -5q1 9 8 9h16q1 -17 16 -17q0 6 16 13q0 -5 4 -13q16 4 16 22h4q3 -22 12 -22h4l-8 22h8v-14h12l12 9v-9h16l-4 9l8 5h24q8 0 8 -14l8 5h28q0 -9 4 -9q6 0 36 9q35 -5 44 -5l28 5v-5l-4 -8h8l12 8h4
l12 -17h8l4 22h4q10 -9 16 -9q8 4 12 4l4 -8l-8 -14h16l20 5v4l-8 13q1 9 8 9l8 -13l-4 -9h12l4 22h8v-4l-4 -22q4 0 4 -5q24 9 24 14l-4 22h4l16 -14h4q3 0 12 14l-4 9v4q0 9 24 14q1 -9 8 -9q1 9 8 9l-4 9v4q8 0 8 13h8v-17h4q0 10 12 26l-28 41q4 7 4 22h8v-5l-4 -22
l8 -4q0 22 12 22q-16 15 -16 27h-4v-9h-8v4q0 5 4 5l-8 22l4 22q-4 33 -8 41q4 24 4 40v18l-8 13v18l12 18v4l-8 -4l-4 9h8q-8 10 -8 17l4 23q-8 0 -8 9q6 0 12 13q-6 11 -12 36q10 9 16 9v22q-8 0 -20 18l-4 -9q10 -9 16 -9q0 -8 -12 -40h-8l-12 85q4 8 4 13q-4 8 -4 18h4
q-6 27 -12 27l4 22l-4 18l4 9l-8 53l8 5l-8 27l4 22l-4 9q4 9 4 13v14q12 0 12 9v18h-12v35l-4 23h4q0 4 -4 4l4 18l-4 22q12 0 12 9v5l-8 13v58h8q-8 9 -12 54l8 4q-4 9 -8 49q8 0 8 14q-8 47 -8 62q0 10 4 18l-4 27v13q0 9 12 9v4q-16 0 -16 36q12 18 20 18v9l-12 -9h-4v5
q1 8 8 8l-4 23l4 9q-4 7 -4 18q8 0 8 8l-8 5q0 9 4 9l-4 45v71h12q-31 48 -40 49q-8 -24 -8 -27l8 5v-9h-16q-8 0 -8 9l12 18v4q-16 0 -16 18q13 9 24 9v-9h-8q1 -9 8 -9l32 49q1 9 8 9q10 0 16 -36v-35q12 0 12 -18q-8 -2 -8 -9v-5q16 7 16 14q-4 31 -12 31l4 9q-4 9 -4 13
q8 5 12 5q0 19 -8 35q4 14 8 14l-4 9v18zM15 1603q0 -5 -4 -5q4 -17 12 -31q-4 -9 -4 -13v-5h4q0 14 8 14l24 -23v23q-8 0 -8 8l-8 -4q-5 0 -20 22l4 9zM51 1603q0 -11 -8 -23l8 -4q8 15 8 27h-8zM-41 1598v-18q4 -8 4 -13h-4q4 -8 4 -18h16l8 5l8 -14q-8 -11 -8 -18v-4h4
q0 15 24 18v4q-20 0 -20 23l-8 -5q-18 9 -20 18q4 0 4 4q-8 0 -8 18h-4zM67 1589v-4q16 0 16 -22q-7 -5 -16 -5q1 -9 8 -9q4 0 4 5l20 -5h8q8 0 8 9q-26 0 -36 40h-4q-8 -1 -8 -9zM99 1585v-5q4 0 12 -4h4v4q-8 0 -8 14q-8 -2 -8 -9zM251 1580q24 0 24 -31h-4q-20 12 -20 18
h4l-4 9v4zM379 1576q0 -9 16 -9l-4 -9q-7 5 -20 5v4q1 9 8 9zM227 1571q16 -6 16 -13l-8 -4h-8q-8 0 -8 9q1 8 8 8zM283 1571h4q8 -1 8 -8h-4l4 -9v-5h-4q-8 0 -8 9v13zM475 1563v-14q1 -9 8 -9h4v5q-8 11 -8 18h-4zM307 1563h8v-5h-8v5zM323 1558h8v-4h-8v4zM327 1549
q8 -4 12 -4v-9h-20q-4 0 -4 -5l-8 5h-4l-8 -5l-4 9v5h32q4 0 4 4zM79 1531h8v9q-8 -1 -8 -9zM267 1545h4v-9h-4v9zM19 1536l-4 -9l8 -5l4 9zM43 1522h8q8 5 12 5v9h-4q-16 -7 -16 -14zM103 1536l-4 -18h20v4q0 7 -12 14h-4zM419 1536v-5l8 -13l-4 -22q6 0 12 17q-8 15 -8 23
h-8zM155 1531v-9h4q8 0 8 9h-12zM179 1531q1 -9 8 -9h12v9h-20zM483 1531v-4q4 -8 4 -18v-4h-8v-9h8l4 22q-4 9 -4 13h-4zM467 1518v-9h4v9h-4zM191 1513q1 -8 8 -8h12v8h-20zM471 1505v-9h4v9h-4zM247 1496l-4 -23q20 12 20 18v5h-16zM219 1491v-4q6 -18 12 -18v9
q0 6 -12 13zM467 1460v-5l4 -22h4q8 0 8 9v4q-6 0 -16 14zM443 1380q6 0 16 -18v-9h-8v9h-4q0 -20 -4 -27l8 -5h4q0 14 8 14v18l-12 18q0 6 16 31v9h-4q-20 -13 -20 -40zM475 1371v-14h4v14h-4zM495 1348v-9h8q0 9 -8 9zM443 1317q16 -21 16 -27h4v14q-10 0 -12 17z
M475 1313v-9q8 0 8 9h-8zM443 1281v-9h8v9h-8zM443 1255q1 -9 8 -9v9h-8zM459 1232q0 -18 -8 -18l4 -31v-18q0 -6 -12 -13q16 -27 16 -49q-4 -9 -4 -14q9 0 12 23q-12 26 -12 44l12 9v-9h4v5q-12 35 -12 44l4 23v4h-4zM447 1228v-9h4v9h-4zM431 1214v-9h4v9h-4zM443 1130
v-14h4v14h-4zM483 1125v-13h4v13h-4zM447 1071v-4h8v4h-8zM459 1049v-13h8v13h-8zM447 1031v-31h8l4 18q-8 0 -8 13h-4zM451 969q0 -23 -4 -23q4 -8 4 -13q8 0 8 13l-4 23h-4zM479 938v-14q8 0 8 9v13q-8 -1 -8 -8zM479 920v-9q4 -9 4 -14h4v5q-4 8 -4 18h-4zM447 884v-13
q7 0 20 -14v5l-12 18v4l4 9h-4q-8 -2 -8 -9zM463 853v-9h4v9h-4zM483 844v-18h4v18h-4zM455 830v-13h4v13h-4zM443 817v-9h4v9h-4zM443 763v-8h4v8h-4zM459 741l4 -22l-4 -9q4 0 12 -5q8 17 8 36l-8 5h-4zM443 701v-22h4v22h-4zM459 674h4l-4 -9v-13q1 -9 8 -9h4l4 22v9
q0 9 -8 9q-8 -1 -8 -9zM447 598v-13h4v13h-4zM447 571v-13h8v5q0 8 -8 8zM463 554v-14h8v5q0 9 -8 9zM475 540v-13h4v13h-4zM451 536v-18h8l-4 9l4 9h-8zM451 509q6 -18 12 -18h4q-8 11 -8 22zM459 478v-9q8 0 8 9h-8zM487 473q0 -13 -4 -31h4q8 0 8 9l-4 22h-4zM447 371h8
v-9h-8v9zM447 348h8v-9h-8v9zM487 339v-4q4 -9 4 -14h-4q5 -22 12 -22v5q-2 35 -12 35zM491 277v-18q8 0 8 9v9h-8zM491 205v-9h4l8 5q-4 9 -4 13q-8 -1 -8 -9zM491 192l-4 -9l8 -4l4 9zM475 188q4 -9 4 -14h4v14h-8zM487 156v-4q1 -9 8 -9v4q0 9 -8 9zM479 134v-9h4v9h-4z
M519 103h8v-14h-8v14zM451 -27v-18h8v9q0 9 -8 9zM-21 -40h4v-9h-4v9zM63 -49v-5h8v5h-8zM79 -49v-5h8v5h-8zM-73 -54v-8h4v8h-4zM519 -49h8v-5q0 -8 -8 -8v13zM-81 -58v-9h4v9h-4zM223 -58v-4h8v4h-8zM-113 -58h4v-9h-4v9zM47 -62v-5h8v5h-8zM287 -62v-9h8q0 9 -8 9z
M487 -58h8q0 -11 12 -22q-8 0 -8 -14h-12v18q0 5 4 5l-4 9v4zM471 -62h8v-9q-8 0 -8 9zM-21 -85q0 -13 16 -13l8 4q20 -9 28 -9l-8 23q-8 -5 -12 -5l-16 5q-7 -5 -16 -5zM-37 -94h8v9q-8 -1 -8 -9zM43 -89v-9h12v13q-8 -4 -12 -4zM475 -80v-9q0 -9 -8 -9h-4v4q0 7 12 14z
M63 -98q4 0 12 -5l4 9v5h-8q-8 -2 -8 -9zM95 -89v-5q1 -9 8 -9l4 9l-8 5h-4zM191 -98v-9h8v9h-8zM-33 -107l-8 -13q4 0 12 -5l4 9q0 9 -8 9zM391 -107v-9h4v9h-4zM475 -103h4v-9h-4v9zM347 -112v-4q9 0 16 -4l4 8h-20zM15 -116l-4 -9l4 -9q7 5 16 5q0 6 -16 13zM39 -116v-4
l20 -5l4 9h-24zM71 -116v-13h8q0 4 4 13h-12zM275 -116v-4h8v4h-8zM307 -116q0 -13 -8 -13v-5h8l4 9v9h-4zM399 -116q0 -5 -4 -13l8 -5h4q8 0 8 9t-8 9h-8zM103 -120v-5h16v5h-16zM219 -120v-5q4 -9 4 -13h20l20 4v5q0 9 -8 9h-4l-12 -9zM323 -125v-9q7 5 16 5v9
q-7 -5 -16 -5zM51 -129v-9h4v9h-4zM207 -129v-9h4v9h-4zM283 -129v-5h8v5h-8zM355 -152h12v9h-4q-8 -1 -8 -9zM311 -152v-9q1 -9 8 -9h4v18h-12zM391 -152l-4 -9h12q0 9 -8 9z" />
    <glyph glyph-name="asciicircum" unicode="^" 
 />
    <glyph glyph-name="a" unicode="a" horiz-adv-x="968" 
d="M841 1164q0 -5 40 -16l5 -8l-5 -20q0 -3 5 -24l-15 -68l5 -8v-20l-10 -28l5 -16q-10 -82 -60 -312q-11 -67 -25 -104l5 -8q-19 -56 -30 -68v-8h10v-12q-15 -14 -15 -40l5 -8l-40 -144h-15v-16q6 0 15 -4q-16 -59 -25 -80q5 -8 5 -12q-15 -61 -30 -96q5 -22 5 -32h-10v12
h-5q-10 -1 -10 -8q0 -12 15 -12q0 -14 -30 -76l5 -20q0 -18 -20 -32q4 -24 15 -24v-8h-15q-19 0 -25 184v20q0 22 5 56l-5 8q12 153 25 180q0 4 -5 12q50 300 105 548v4h-5q-35 -99 -55 -120q0 -11 -100 -212q-55 -93 -60 -132q-11 0 -20 -8l5 -8v-4q-49 -58 -49 -72
q-23 -29 -45 -80q-9 0 -65 -84q-77 -90 -130 -124q-31 -12 -65 -16q-85 29 -85 76q-30 38 -30 68q0 181 250 552q110 157 254 268q111 85 155 112q70 0 70 44q27 40 75 40q0 8 20 8zM681 944v-12h5q0 4 5 12h-10zM192 192q28 0 125 156l45 60q7 0 15 40h5q0 -4 5 -4
q20 42 79 136q43 88 55 92h5l10 -4v4l-5 28q45 71 45 84q20 0 20 4q0 3 -5 24q22 50 45 72q0 24 10 24q0 -4 5 -4l10 12q-10 10 -10 16q-159 -138 -214 -236q-140 -196 -225 -428q-20 -72 -20 -76zM536 576q0 -4 -5 -12h5q10 0 10 8v4h-10zM701 300v-12h5v12h-5zM646 72v-12
h15v12h-15z" />
    <glyph glyph-name="b" unicode="b" horiz-adv-x="804" 
d="M456 1499q32 -8 36 -21v-17q0 -106 -124 -567h10q16 46 150 146q9 -4 20 -4l5 8l-5 9l16 8h10v-4l-5 -9q10 -4 15 -4q10 4 16 4l-5 9l10 4h10l-5 -21q24 0 51 -29h6q10 0 10 8q0 22 -52 34v12h11q77 -26 77 -125q0 -24 5 -67q-14 -141 -31 -167l5 -8q-78 -238 -195 -396
q-23 -58 -268 -263q-9 0 -98 -54q-8 0 -20 -9q0 4 -5 4l5 9v4q-12 0 -21 4q-41 -63 -41 -75h-5q-15 4 -15 25v50q-17 9 -21 63l26 -4l10 12l-10 29q32 0 67 171q22 55 30 55q-5 8 -5 12q16 47 62 367h5q0 4 -5 4q46 272 93 426q84 276 169 367h6zM270 552q6 -8 6 -13
q-8 0 -16 -12l5 -17q-25 -51 -36 -112q-20 -13 -31 -13v-12l16 -21q-5 -14 -31 -34l5 -8v-8l-15 -17l5 -21q0 -11 -16 -29l5 -21q-4 0 -15 -12h-15q-6 -13 -11 -13l5 -8v-9l-15 -41q5 -8 5 -13h5q76 69 108 109l211 216q0 15 108 138q0 9 67 134q36 99 36 167q0 118 -67 137
l-10 -4l-10 4q-77 -15 -144 -121q0 -11 -124 -254q0 -35 -31 -92zM687 998v-8q2 -8 10 -8v8q0 8 -10 8zM430 952v-8h5v8h-5zM142 227v-9h5v9h-5zM95 122v-29h6q0 7 10 17l-5 21q-11 -2 -11 -9zM137 14v-4q30 9 30 25h-5q-7 0 -25 -21z" />
    <glyph glyph-name="c" unicode="c" horiz-adv-x="820" 
d="M513 1113q18 -8 18 -15q2 0 18 5q78 0 78 -20q33 -31 69 -82q32 -64 50 -137v-31q0 -40 -32 -66v-5h-23l-23 -5q-18 15 -18 26l-18 -5q-34 0 -46 76q-33 61 -69 61h-55q-44 -21 -59 -21q0 21 -14 21h-5q0 -6 -4 -15l9 -21l-9 -5h-5l-13 10q0 -10 -14 -10l9 -15v-15h-14
l-32 -5v-6q19 0 19 -10q-10 -20 -23 -20l-19 5q-18 -8 -18 -15v-5q23 -2 23 -10q-7 -21 -14 -21h-4l-14 10h-14q0 -5 -4 -15q19 -10 22 -10v-10q0 -4 -59 -81q9 -2 9 -11l-18 -15q-8 5 -19 5v-5l19 -25q-28 -82 -60 -82v-10l14 -20l-5 -10l-22 5q-10 -2 -10 -10v-5
q0 -16 23 -16q0 -21 -23 -51v-5q2 -10 10 -10q-7 -51 -14 -51l4 -25v-36q10 -74 10 -81v-15q7 0 68 -76q88 -51 160 -51q82 10 92 20l23 -5q0 7 14 15h4q5 0 5 -5l23 15h9v-10h4q21 34 51 41q0 20 36 36v-11q-31 -21 -50 -56l-9 6q-19 -36 -28 -36q0 5 -4 5q0 -7 -14 -15h-5
v5l5 10h-5l-18 -10l5 -10q0 -9 -23 -16l-23 11q-10 -26 -50 -26q-9 5 -14 5l-5 -10l-9 5h-4q-10 -1 -10 -10q-52 5 -59 10q-15 -10 -23 -10v5l-9 -5h-18l-19 15q-38 -20 -46 -20l5 10v5l-23 10q-9 -5 -14 -5l-50 61q-18 10 -27 36l-51 46q-10 0 -18 117h5l-5 10q0 5 5 5
q0 5 -5 5q10 122 18 122l-4 10q6 35 32 71l-5 10v16l5 10l9 -5q9 0 9 10v5l-9 15q3 14 41 81l14 72l-18 -16v5q7 28 18 41q15 -10 27 -10q0 5 5 15q-5 9 -5 20v6h23q11 50 18 50h5l14 -10v10l-5 11q9 20 9 30h10l9 -5q0 41 45 71l14 15h14q0 23 23 31q9 -5 14 -5
q11 32 22 35l10 -5q0 24 82 61q0 31 23 31zM384 961q5 -10 5 -16q7 0 14 16l-9 5zM412 940q1 -10 9 -10h9q0 5 5 15l-9 5h-5q-9 -1 -9 -10zM352 935v-10q2 -10 10 -10l4 10q0 10 -9 10h-5zM320 905v-16h14v16h-14zM247 844v-21h18v10q0 11 -9 11h-9zM211 788q4 -10 4 -16h5
l9 6l-5 10v5l9 15h-4q-5 0 -18 -20zM188 752v-15h4q7 0 14 15v15h-5q-6 0 -13 -15zM151 727v-10q1 -11 9 -11l5 11v20h-5q-9 -2 -9 -10zM220 727v-21q18 8 18 16l-9 5h-9zM92 701v-5q0 -26 -28 -61h-5v5q11 36 33 61zM197 676v-5q9 0 9 10v5q-9 -1 -9 -10zM128 676v-10h5v10
h-5zM156 656q0 -6 -5 -16h9v16h-4zM133 610v-10h4v10h-4zM46 605h9q0 -27 -14 -31v5zM151 584q0 -5 -5 -15h10v15h-5zM165 579q0 -5 -5 -15v-5h5q0 5 4 15v5h-4zM73 508v-5h9v5h-9zM55 457v-5l18 21q-4 9 -4 15q-14 -5 -14 -31zM23 427v-10h4v10h-4zM92 417v-10q9 0 9 10v10
q-9 -2 -9 -10zM82 366q5 -17 19 -20q0 5 4 15l-9 5h-14zM87 300v-5q1 -10 9 -10h5v20q-9 -5 -14 -5zM9 264v-10h5v10h-5zM398 30v-10h5v10h-5z" />
    <glyph glyph-name="d" unicode="d" horiz-adv-x="898" 
d="M924 1576q36 -12 36 -74q4 0 4 -4q0 -16 -36 -123v-14h-4l-8 4v-4l4 -19q-48 -153 -48 -177q-64 -287 -76 -305l8 -5q6 19 12 19v-9q-18 -28 -24 -88q-5 0 -56 -186l4 -35q-14 -9 -20 -29q4 -10 4 -14q-52 -142 -72 -392q6 0 12 -14v-35q-7 -40 -16 -53q6 0 12 -15
q0 -10 -8 -10t-12 39h-4l-8 -4q0 -6 4 -6l-4 -29h-8q0 15 -8 15l-12 -11h-8q-30 35 -36 35l4 25v4q-16 19 -16 45l8 4q0 -4 4 -4q0 4 4 4q-6 20 -12 20q0 -5 -4 -5q-8 20 -8 54l20 -5q-6 20 -12 20l-8 -6q0 23 -4 64q6 39 12 39l-8 20q8 14 16 127q-8 10 -20 49l42 76
q-42 -20 -98 -129q-6 0 -28 -59q-85 -135 -144 -201q-52 -69 -128 -113q0 -12 -60 -64q-30 0 -48 21l-12 -10h-4q-13 2 -48 63h-4q0 99 80 254q0 5 84 148q22 58 132 185q138 124 160 152l8 -5q37 29 84 49q0 4 56 34q7 -5 16 -5l28 20v15h12l8 -6l64 109q11 31 36 74
q36 148 44 148l-4 10q41 147 76 195q0 22 4 29q-4 10 -4 14q40 45 40 84zM143 150q110 112 144 137q43 45 94 98q75 81 151 212l152 215l-111 -50l-150 -95q-144 -148 -222 -314q-42 -67 -58 -203zM516 494h8q8 0 8 9v8h-4q-6 0 -12 -17zM540 226h8v9q-8 -1 -8 -9zM540 213
v-9h4v9h-4z" />
    <glyph glyph-name="e" unicode="e" horiz-adv-x="730" 
d="M504 1062h15v-11h-15v11zM540 1062q89 -9 89 -26q0 -12 -5 -22q11 -17 11 -31v-16l-16 -32q10 0 21 -31q-21 -8 -21 -48q10 0 10 -16q0 -3 -15 -53q5 -10 5 -16q-5 0 -5 -5l-11 5q-8 0 -16 -21q11 -1 11 -10q-13 -74 -26 -74q0 5 -6 5q-13 -23 -26 -90q6 -10 6 -16
q-19 -1 -42 -37l5 -10v-16q0 -11 -11 -11q0 11 -10 11q-25 -90 -31 -90q-20 0 -37 -63q-59 -90 -79 -90q-6 0 -73 -106q45 -46 178 -68q28 5 47 5h32v-5q-6 -10 -6 -16h6q0 -18 -89 -37q0 -11 -16 -21l-11 5l-20 -11q-6 0 -6 6l-26 -6h-5q-12 0 -21 6q-9 -6 -21 -6h-5
q-11 0 -11 11l-21 -5q-28 0 -52 26l-31 -5q-6 16 -32 16h-5q-23 -13 -31 -43q-85 -68 -100 -68l-10 5q-112 -58 -121 -58v5q0 13 21 16l-5 11v16h-21v5q0 7 16 16q5 -11 5 -16h26q0 16 42 58q-5 10 -5 16q-14 0 -32 -11q0 5 -5 5l11 22q-9 0 -32 10q0 -21 -10 -21l-11 5
q0 4 21 43q18 0 42 -16h5q23 28 68 47q0 13 53 53v21q-32 15 -32 48q-13 42 -21 42l6 11v15h-11v32q0 13 -10 48q20 26 47 132q12 0 52 100v5h-5v-10q-11 0 -11 10q12 2 47 74q17 13 27 48q26 18 26 42h-5q-30 -37 -37 -37v11q0 21 47 47q0 11 31 53q0 32 48 32l-6 10v11
q31 0 42 42q22 0 74 69q16 0 47 16l10 -6q10 6 16 6q1 -11 10 -11l37 27l10 -6q14 0 21 32zM425 983l5 -11q24 10 27 21l-11 6h-5q-8 0 -16 -16zM404 967q-10 -17 -10 -26h10q0 21 11 21v5h-11zM352 919v-15q31 12 31 21l-10 5q-13 -11 -21 -11zM399 872v-16h5q11 0 11 11
v10q-10 -5 -16 -5zM279 851l-6 -11h16q0 11 -10 11zM430 782v-32q0 -6 -68 -26q-26 -23 -52 -74q-42 -42 -84 -180l-36 -116v-10q15 -21 15 -59h11q43 47 104 148l110 175q10 0 27 63q19 42 36 53v26h-5l-26 -5q-11 12 -11 37h-21zM200 766v-5h11q0 6 5 16h-5
q-11 -2 -11 -11zM242 734q2 -10 10 -10q11 0 11 10q0 11 -11 11q-10 -2 -10 -11zM127 476v-16q1 -11 10 -11h5v27h-15zM64 460v-11q10 0 10 11h-10zM106 444l-5 -26h15v26h-10zM101 349v-11h5q7 0 16 16v5h-11q-10 -1 -10 -10zM127 328l5 -27h5v6q-5 10 -5 15q5 0 5 6h-10z
M174 285v-15q2 -11 10 -11q11 0 11 11zM90 280q7 -32 16 -32v6l-5 26h-11zM137 243v-16q2 -10 11 -10h5v5q-11 13 -11 21h-5zM106 222v-16q1 -10 10 -10v16q0 10 -10 10zM258 148v-16h15q-5 11 -5 16h-10zM724 153h10v-10h-10v10zM666 138h5v-11q0 -8 -16 -16h-5v5
q8 22 16 22zM697 138h6v-11h-16q2 11 10 11zM226 122v-6q0 -17 115 -79h48q74 0 115 32l-11 5q-13 0 -36 -16h-32l-16 11q-28 -5 -41 -5q-90 25 -142 58zM624 127l11 -16v-5q-24 0 -105 -42v5q0 10 16 10v6l-6 10zM221 85v-6h10v6h-10zM179 69v-16h16v11q-6 0 -16 5zM252 69
v-5q0 -8 16 -16q11 0 11 10q-17 11 -27 11zM-15 21v-21h6q10 0 10 27q-10 -6 -16 -6zM-56 -58h5q6 0 42 16v16q-47 -24 -47 -32z" />
    <glyph glyph-name="f" unicode="f" horiz-adv-x="668" 
d="M626 1480h8q67 -28 67 -99l31 -109q-16 -63 -98 -137h-17q-30 0 -45 120h-4q-16 -7 -102 -106l-31 -42q-25 -60 -53 -60q0 -2 4 -21q-22 -49 -40 -49l4 -18q-35 -11 -35 -17q6 0 13 -11q-3 -33 -44 -66l9 -11q-22 -27 -22 -56h-5l-9 3l-9 -10l14 -18v-3q-18 -16 -18 -18
q0 -8 4 -14q-8 -25 -13 -25q5 -14 22 -14q258 23 258 39h8v-4q0 -3 -4 -3l4 -7q-22 -55 -119 -95q-20 -10 -49 -18q-28 -19 -155 -45q0 -5 -18 -11q0 14 -9 14h-13v-3q9 -9 9 -14h4l9 3q0 -9 13 -21v-10q-13 -49 -31 -57l13 -7l-13 -45q5 -6 5 -14q-5 0 -5 -4q9 -1 9 -7
q-4 -46 -18 -84q5 -7 5 -11q0 -42 -31 -42v-11h4q9 4 13 4l5 -7v-4q0 -16 -22 -38q13 0 13 -7q0 -53 -31 -53q0 -9 13 -25v-7q0 -8 -9 -31q9 -12 9 -18l-9 -28q5 -7 5 -10l-18 -11h-4l-14 7l-17 -14q-12 7 -23 7q9 32 9 39h-4l-14 -7h-8l4 24q-9 0 -31 32q18 47 40 74h13
l9 10q-9 0 -9 7l-9 -3q-9 0 -9 7q0 14 23 38v7l-9 11v11q13 14 13 28q-4 6 -4 10l9 4l17 -11l14 18v3q-9 9 -9 14q-9 0 -9 -14h-18q0 22 13 42l-4 18q5 0 22 28l-4 7v11h4l18 -11q0 6 13 18v10l-9 -3q0 10 -9 10q0 -14 -13 -14q-9 0 -9 7q14 15 14 28h8v-7h5q13 3 13 28
q-4 0 -13 4q0 -7 -9 -7l-4 7l26 39q-4 19 -4 31l4 18h-13q-16 0 -40 -4q-20 6 -36 25q0 3 5 3q-5 11 -9 11l4 25v7q0 3 -8 28h4l22 -11q21 28 76 28q0 4 4 4l9 -4l18 11l-5 7l31 74v10h14v-7h4q9 2 18 18q-7 0 -13 10l-9 -3h-5v21l58 35q-5 7 -5 11q5 0 5 3l-13 7h-9v-7h-5
q-9 0 -9 7q11 24 31 35l-4 14q12 53 31 53q0 -4 4 -4l5 8v7h-5l-8 -4l-5 7v4q24 17 27 49q7 3 22 3v14h-9v4q13 63 40 63v11q0 7 -9 7q0 -7 -9 -7v10l27 32l-5 7q14 35 58 95q0 13 13 24l-4 7q0 6 18 11l-5 7v3q17 0 27 39q6 0 35 28q74 32 94 67q24 4 40 4zM466 1339v-7h9
v7h-9zM359 1061q2 -7 9 -7h5v18q-7 0 -14 -11zM333 1037l9 -4v11q-9 -1 -9 -7zM293 1023v-4q0 -5 18 -14l4 18l-9 3q-8 -3 -13 -3zM324 991v-11q6 0 13 11v7h-4q-9 -1 -9 -7zM293 956l18 -4l8 11v7q0 7 -8 7h-5q-13 -4 -13 -21zM253 938v-7h9v14q-9 -1 -9 -7zM311 917v-7h4
v7h-4zM262 893v-14h4v7h9v-4l-4 -7v-3h4q0 8 13 21v10h-4q-15 -10 -22 -10zM213 861h4q9 -1 9 -7v-7h-4q-9 0 -9 7v7zM248 836q5 -6 5 -10h4q9 0 14 21h-9zM226 829l-4 -7v-7q9 -8 9 -14h4q7 0 18 14v4q0 7 -9 7l-9 -4q0 7 -9 7zM222 780v-7q1 -17 9 -17q11 0 17 21
q-8 0 -8 10q-11 -7 -18 -7zM191 752v-7q0 -5 18 -14q8 12 8 21q-7 0 -17 7q-9 -1 -9 -7zM191 699v-3h4q36 0 36 17q-9 12 -9 18q-6 0 -13 -21q-18 -5 -18 -11zM173 717v-11q9 0 9 7v4h-9zM155 559q0 -11 -9 -11h-8l-9 4v-4q5 -17 13 -17l9 3q9 -11 9 -21v-3q-9 0 -9 10h-5
q0 -10 -8 -24q4 -6 4 -18q14 0 44 49l-17 7q-9 -3 -14 -3v3l5 21v4h-5zM124 499v-7h9v7h-9zM146 474q5 -6 5 -10q9 0 9 7v3h-14zM129 453q9 -10 9 -24h8q0 6 9 28h-17zM129 401v-14h9l8 3l-4 21q-6 0 -13 -10zM160 380v-7h4v7h-4zM106 376v-14q18 5 18 11v3l-9 -3zM84 362
l-4 -25v-3q9 0 18 21zM98 334v-7q8 -9 8 -14h9v14q0 7 -9 7h-8zM106 292q0 -14 -17 -14v-7q9 -9 9 -18q13 2 13 28v11h-5zM124 288l-4 -17q9 0 9 7v10h-5zM102 228q1 -7 9 -7h13l-4 18q-18 -5 -18 -11zM80 176h9q0 10 9 35h-5q-13 0 -13 -35zM67 158v-3q1 -7 8 -7v10h-8z
M40 134v-7h9v7h-9z" />
    <glyph glyph-name="g" unicode="g" horiz-adv-x="824" 
d="M546 1106q78 -21 78 -36l-9 -18q12 0 17 -45q-21 -36 -56 -36h-8q-5 0 -5 5l-8 -5h-9q-21 0 -21 9q-35 -16 -73 -26l-104 -59h-4l-9 5q-81 -72 -81 -112q-35 -62 -69 -144v-4h8v9h9v-5q-112 -215 -112 -323v-36q0 -4 -4 -4q9 -93 34 -94q60 32 99 166q29 29 30 44h9
q8 -4 13 -4q0 45 39 72q77 112 94 121q35 37 35 58q18 0 25 36q63 67 108 152q11 0 21 41l9 4l-4 9q12 9 43 68q8 0 21 31q13 0 48 13h12q5 0 22 -31q-22 -12 -22 -36l5 -22q-22 0 -65 -278l-21 -54l4 -9q-30 -111 -95 -278l-47 -139l-43 -121q-8 0 -13 -45
q-28 -45 -38 -112q-19 -20 -52 -148q-12 -9 -52 -135q-25 -35 -47 -98q4 0 4 -5q-14 -3 -43 -67q-10 0 -17 -45q-7 0 -17 -49q-27 -42 -95 -117v-5q5 0 5 -4h-9v13h-4v-13h-9q0 22 -21 22l-18 -4q-4 9 -4 13h-4l-13 -9q-2 10 -60 41q0 5 -56 49h-5q32 -50 52 -54v-9h-9
q-96 66 -150 189q0 50 -9 71q0 5 5 14l-9 58q6 23 13 23l13 -45l13 9q1 -9 8 -9v4l-4 41h4l13 -9q9 4 13 4v5q0 2 -17 22v27q-13 0 -13 9v9h13v18h-9v18h30q0 3 5 58h8q9 -72 13 -81l-4 -9q25 -106 69 -161q0 -19 34 -67q0 -15 30 -41q0 -31 78 -62h4q50 0 86 116
q52 53 52 112q38 50 38 99q14 0 30 94q26 40 26 94q17 17 22 32l-5 22q0 12 31 72v4q0 5 -5 14q73 218 112 381q16 0 47 117q18 45 26 53q-13 0 -13 9q26 44 26 50q0 4 -4 4q0 18 26 90v18q-56 -69 -78 -126q-8 0 -47 -67q-9 0 -17 -36q-8 0 -22 -13l4 -9v-14
q-23 -28 -55 -85q-15 -9 -35 -54q0 -28 -100 -206q-52 -71 -153 -109q-51 83 -64 164q17 8 7 70q-7 0 -8 90v27q0 106 94 287q8 2 74 108q31 0 68 89l-17 -13v9q3 12 43 49q0 14 35 41q0 20 189 175h30q10 0 17 4zM602 859h9l4 23v4q-9 0 -13 -27zM232 828v-9
q-32 -45 -39 -45h-4q0 7 43 54zM546 752q0 -10 -4 -18h4q9 0 9 9v9h-9zM507 711v-13h9q9 0 9 9v18h-5q-6 0 -13 -14zM176 626v-4q9 0 9 9v4q-9 -1 -9 -9zM-155 -244v-13q0 -9 -8 -9q0 4 -5 4q-4 -9 -4 -13h-9v4q0 14 26 27zM-159 -329v-27h4q0 9 4 9q-4 8 -4 18h-4z
M-138 -356q0 -9 -4 -9q9 -15 9 -22h4q0 10 4 18q-4 8 -4 13h-9zM-224 -369h9l4 -18l-8 -5l-5 9v14zM-142 -482v-9q0 -6 13 -13h9q-9 15 -9 22h-13zM-163 -522v-9h4v9h-4zM-155 -540q4 -18 26 -18h9q-7 18 -13 18h-22zM-185 -544v-9h4v9h-4zM-112 -580l9 -5h8v14h-8
q-9 -2 -9 -9zM-155 -585v-9q10 0 13 -27l17 -13l5 9q0 6 -26 40h-9zM-116 -634v-5q0 -6 13 -13h8v9q-6 0 -17 9h-4zM-146 -639v-9h4v9h-4zM-52 -639v-13h5q8 0 8 9l-8 4h-5zM13 -643v-5h8v5h-8zM-13 -652q0 -5 -4 -13q4 0 13 -5v9q0 9 -9 9zM-125 -670v-9h5v9h-5zM-86 -670
v-4q8 -17 26 -23v5q-8 16 -26 22zM-47 -706v-4q6 0 17 -14v14q-5 0 -13 4h-4z" />
    <glyph glyph-name="h" unicode="h" horiz-adv-x="713" 
d="M271 1519h4q0 -29 44 -88q0 -4 4 -12q-5 -31 -16 -44v-8q6 0 16 -8q0 -13 -32 -80v-16q6 0 12 -12q-26 -25 -48 -168q0 -18 -48 -232q0 -4 4 -4l-4 -20q0 -4 4 -12q-11 -52 -16 -52v-4q0 -4 4 -4l-4 -20q0 -4 4 -12q-4 -28 -8 -28q0 -4 4 -4q-8 -32 -8 -52l4 -16
q-8 -16 -8 -44v-8h-8q0 20 -12 20l-12 -16v-8l28 -4q-4 -28 -12 -28l4 -8v-4q-20 0 -24 -40v-24q0 -6 12 -12l-4 -20l4 -20l-4 -8l4 -24q-8 -1 -8 -8v-12l8 -12q-4 0 -4 -4l8 -4q108 233 176 348q12 6 76 100q8 0 24 64q9 0 56 56l8 -4l32 28q8 -4 12 -4q0 6 16 16
q6 0 12 -16l8 4h8q20 -11 20 -32q-8 0 -12 -44l4 -8q-10 -40 -32 -40l4 -8q-11 -15 -16 -52h-4l4 -20q-7 -16 -24 -124q-4 0 -4 -12v-12l4 -8q-8 -1 -8 -8q0 -9 4 -16q-16 -31 -16 -52l4 -8q-15 -68 -20 -68l4 -20l-4 -20l8 -4q-8 -13 -8 -24q8 -4 12 -4q0 -8 -8 -8l-8 4
l-4 -8q5 -32 20 -32v-8q-20 0 -20 -40l8 -4q12 18 12 36h12v-8q0 -8 -8 -8q0 -8 4 -8l-8 -96q4 -22 4 -44q0 -10 -4 -60l4 -8q-4 -7 -4 -16h-4l-12 8h-4v-28q0 -28 -8 -28q0 -8 28 -32l-4 -8l4 -24q-10 -8 -16 -8v-12l8 -28h-20q-80 31 -80 88q-8 0 -12 28q4 8 4 12
q-8 0 -8 8v24l8 12v20q-12 0 -12 8v4l8 28q-8 26 -8 32q0 36 12 52q0 3 -4 24q0 6 12 44q0 4 -4 12q0 49 24 72l-4 8v4q0 9 4 16q-4 7 -4 16q0 8 16 48l-4 24l8 4l-4 20v4q4 27 12 28q0 4 -4 12q1 54 16 84l-4 8q4 49 12 76v8q0 8 -8 8l-72 -112q-22 -18 -36 -72
q-6 -2 -64 -148q0 -21 -32 -96l4 -8q-30 -81 -64 -132v-4q0 -12 4 -12l-4 -20v-48q-8 -56 -32 -56l-28 4l-8 -4q-112 24 -112 84q0 4 4 4q-4 28 -8 36q4 8 4 12l-4 28q28 9 28 44q33 40 44 92l12 28l-4 8q3 24 8 24l-4 8q3 29 16 52q-4 8 -4 12l4 16q-4 16 -4 28q10 8 16 8
v20q-12 16 -12 44q4 12 8 12l-4 20v8l4 8q-8 0 -8 8v36q0 4 4 4q-4 12 -8 12q5 36 8 44q0 4 -4 4q0 187 24 356q0 4 -4 4q24 217 72 340l28 52l8 12l-4 8q7 25 36 40zM587 915v-8h4v8h-4zM579 903v-16l8 -4h4v8q-8 0 -8 12h-4zM139 891v-8q1 -8 8 -8h4v4q-4 8 -4 12h-8z
M555 887v-12q8 0 8 8v4h-8zM579 851v-12h4v12h-4zM539 799v-4h8v4h-8zM163 767v-12q8 0 8 8zM167 727l-4 -20l8 -4q1 8 8 8q-4 7 -4 16h-8zM527 719v-8h4v8h-4zM135 659v-16h4v16h-4zM155 631v-20q8 0 8 8q-4 8 -4 12h-4zM147 555v-16l8 4q-4 8 -4 12h-4zM131 475h8v8
q-8 -1 -8 -8zM167 483l4 -8q-4 -28 -12 -28v28q1 8 8 8zM123 463l-4 -8v-20h4q9 0 12 20zM135 411v-20h-4l-8 4l-4 -20h4q13 12 20 12v16q0 8 -8 8zM519 391h8v-8h-8v8zM103 355v-4q1 -8 8 -8q0 6 12 12q-4 8 -4 12h-4q-6 0 -12 -12zM139 355l-8 -28l8 -4h4l4 28zM115 311
l8 -4h4q-4 8 -4 12q-8 -1 -8 -8zM91 287q0 -13 -4 -20h4q6 0 12 16l-8 4h-4zM75 255q1 -8 8 -8l4 8h-12zM475 235v-12h8v12h-8zM495 83q0 -4 -4 -12q4 -7 4 -16h4q0 4 4 12q-4 7 -4 16h-4z" />
    <glyph glyph-name="i" unicode="i" horiz-adv-x="525" 
d="M328 1499q3 0 3 -4l6 4q81 -22 81 -70q0 -49 -19 -62q-20 -5 -68 -91q-4 0 -60 -74q-25 0 -25 -29l-12 -17q0 4 -3 4q32 155 59 261v20l-6 13v12q31 20 44 33zM268 1222v-4h7v13q-7 -1 -7 -9zM162 954l16 -4h9q17 0 44 4l6 -4l6 4q69 -16 69 -103h-3l3 -9q0 -49 -41 -128
l-46 -210q-18 -90 -53 -157q0 -5 -13 -29l3 -8l-19 -46q4 -8 4 -12q-22 -17 -22 -21v-8h6v-4q0 -16 -16 -37v-4h7v-9l-13 -16v-17l16 -4q26 0 162 128q52 38 106 66h6q-20 -47 -59 -70q-4 0 -34 -45q-10 0 -25 -29q-14 0 -22 -46q-5 0 -44 -49q-18 -4 -25 -17l3 -8v-8h-9v8
h-3l-6 -4l3 -8q-3 -33 -10 -33h-6v4l6 12q-3 7 -3 17q-18 -3 -18 -13q6 -16 6 -25q-10 -8 -16 -8v4q3 7 3 17h-9q-6 -1 -6 -8q3 -8 3 -17q-22 0 -41 25q0 -6 -12 -17q-58 38 -75 91v33q12 281 22 281q0 4 -3 4q10 119 43 231q18 77 32 116q59 180 68 190zM159 619v-8h3v8h-3
zM296 190v-4q0 -6 -12 -17v9q0 6 12 12z" />
    <glyph glyph-name="j" unicode="j" horiz-adv-x="615" 
d="M436 1422q39 0 48 -112q0 -120 -80 -204q-13 -15 -36 -28q-18 -34 -52 -56v-4h-8v20q0 8 -8 8l-16 -24q0 -12 12 -12q0 -6 -12 -12q0 15 -16 20q0 -12 -20 -24h-8v12l4 8q-8 0 -8 8q92 105 92 176q8 85 8 96l-4 24l8 4l-4 20l4 28q-4 8 -4 12l8 -4q0 44 92 44zM352 1094
v-12q8 0 8 8v4h-8zM312 1074v-8q8 0 8 8h-8zM316 1038h8q9 0 16 32l-8 4q-10 0 -16 -36zM276 838h24q9 0 16 -4q7 4 16 4q45 0 96 -60q20 -50 20 -64q-46 -118 -64 -248q-60 -235 -84 -284q-16 -59 -36 -84q0 -50 -36 -76q4 -8 4 -12q0 -23 -32 -92q-9 -44 -28 -44v-32
q-40 -109 -40 -116q-11 -16 -20 -16l4 -28q-2 -26 -28 -56v-28q-28 -63 -28 -92q-28 -41 -28 -84h-8l4 -36l-24 -40v-16q8 -11 5 -19q-3 -20 -24 -24l-12 -30q-35 -51 -59 -67q-105 -23 -178 100q-55 85 -68 168q-3 0 -12 72h4q-4 8 -4 12q0 78 44 116q7 -4 16 -4l12 16
l8 -4h16l16 20h16q65 -276 128 -348l20 -16q23 33 44 160l112 508l76 336v4q0 4 -4 12q27 248 40 248q20 99 64 232q8 16 12 16z" />
    <glyph glyph-name="k" unicode="k" horiz-adv-x="771" 
d="M269 1490q37 18 76 3q17 -3 11 -28q-9 -19 -9 -27v-5h4v14h5q23 -12 23 -18v-14q-14 0 -37 -27v-9q14 0 14 -9q-20 -59 -28 -59h-5v-23l10 5h4q0 -34 -23 -50v-14q14 0 14 -9q-14 -31 -14 -36l9 -32q-9 0 -18 -32q9 -1 9 -9l-23 -68q-7 0 -14 -13v-10l19 -4v-5
q0 -8 -14 -40q0 -5 4 -14q0 -32 -27 -86l4 -23q-14 -32 -14 -45q10 -2 10 -9q-12 -9 -19 -9l5 -9v-28q0 -9 -14 -9l5 -31q-9 0 -14 -41q-7 0 -14 -14v-9q9 0 9 -9h9q40 80 56 86q7 0 18 9l-4 9v9q34 52 78 87q0 14 65 68q0 8 65 63q0 12 60 59q0 22 46 32v9h9v-5
q0 -20 -9 -41h14l-5 -9v-4h9l5 23h14q4 -33 4 -37l-13 -9h-5l-9 5q0 -9 -14 -9q0 -7 9 -41q-7 0 -46 -32l-19 -4v9q-9 -2 -9 -9q9 -2 9 -10v-9h-9l-14 9q-27 -45 -41 -45q-13 -27 -19 -27h-23q0 -14 -4 -14l4 -9v-9h-4l-24 5l-4 -9v-28l4 -22q-45 -43 -50 -64q-24 0 -37 -68
q-13 0 -33 -59l-9 5q-7 0 -14 -18q0 -27 83 -73q34 -10 107 -86q26 0 46 -45q59 -61 74 -100q23 0 32 -64l-9 5v-5l9 -31h5l14 9h4q0 -11 -4 -19l18 -31l9 4h5v-18q0 -4 -5 -4l5 -10v-9l-19 14h-4v-5q0 -25 23 -31v22q9 0 14 -27l-5 -27h-9q0 14 -46 59h-5v-9h-9
q0 10 -14 36l-9 -4q-7 0 -19 22l-9 -4h-5q-10 1 -23 41h-14v-9h-4q-6 0 -19 36h-4q0 -9 -10 -9h-4q-9 0 -9 9q4 9 4 13q-7 19 -14 19h-13v-19h-5q-7 0 -14 14v9q0 5 5 5q-7 18 -14 18q-9 0 -9 -23h-5q-90 59 -97 59q0 12 -83 64l-19 -14q0 4 -4 4q0 -7 -10 -18v-4h10v-23
l-14 -23q4 -32 4 -36q-4 -41 -18 -41q-5 9 -5 14h-4q0 -9 -23 -27l4 -9v-18q0 -8 -14 -50q5 0 5 -5q-17 0 -23 -23q5 -8 5 -13q-11 -4 -37 -32l-19 14l-9 -5q-13 32 -19 32q-4 -24 -4 -27h-14q-9 54 -9 63q13 23 13 32l-9 -5h-9v5q0 10 5 18q-5 8 -5 18v9q1 9 9 9
q0 -18 9 -18h10v14q-19 0 -19 9q0 11 9 41q-4 25 -4 36q6 0 18 23v45q1 23 10 23q-5 8 -5 13t5 14l-5 23l14 45q-9 0 -9 9v9q9 18 13 18l-4 9q9 15 9 27q-14 0 -14 10l9 4q0 -4 5 -4v18l-5 9q14 0 14 36l-4 9q7 25 18 36l-4 9v5q0 9 13 9v14q-10 0 -18 4q13 45 23 55v9
l-9 13q0 7 23 68q0 9 -9 9q14 105 32 105q0 3 5 27q-10 0 -10 9q19 127 37 127l-4 27q9 38 37 73v4h-5l-5 -18h-9q0 10 -4 18q20 33 32 100q0 24 9 41h-9v4q20 30 37 78l-5 9q0 18 29 61zM319 1406v-5h9v14q-9 -1 -9 -9zM286 1324v-9q10 0 10 9v9q-10 -1 -10 -9zM286 1211
q2 -9 10 -9l4 9v14q-6 0 -14 -14zM254 1193l5 -23h4v23h-9zM282 1152v-9h9v18q-9 -1 -9 -9zM291 1093v-9q9 0 9 9h-9zM263 1061v-4h10v4h-10zM254 1002v-4q2 -9 9 -9v22q-9 -1 -9 -9zM152 984v-18l10 5q-5 8 -5 13h-5zM596 957q0 -7 -9 -18v-5h9q9 0 9 9v14h-9zM185 952
q0 -15 -5 -22h14q0 9 5 9q-5 9 -5 13h-9zM448 884v-13h5q9 0 9 9v18q-7 0 -14 -14zM226 848v-13h5v13h-5zM416 848v-18q6 0 14 14v4h-14zM120 825v-13q9 0 9 9zM494 830h10v-5l-70 -72h-4v4q0 14 64 68v5zM379 803h9q9 0 9 9v4h-4q-7 0 -14 -13zM157 789v-13q9 0 9 9z
M189 766l-4 -18q9 0 9 14v4h-5zM383 757l5 -31q7 0 19 18v4q-10 11 -10 18h-4q-10 -1 -10 -9zM356 721v-9q1 -9 9 -9l5 9v18h-5q-9 -1 -9 -9zM180 712l-4 -23v-9l18 -4l9 13v5q0 7 -18 18h-5zM180 639l-4 -9q0 -6 18 -13l5 9v9q-11 0 -19 4zM286 621q0 -8 -9 -22h5q9 0 9 9
v13h-5zM157 585h9q0 14 10 14q-5 8 -5 18q-11 0 -14 -32zM180 576q0 -5 -4 -14l9 -4l4 9v9h-9zM120 440v-9h9q0 9 -9 9zM92 417l-4 -9v-4q1 -9 9 -9l5 9v4q0 9 -10 9zM152 240l-4 -31q5 0 14 -5q0 26 4 32l-9 4h-5zM550 218v-14h9v5q0 9 -9 9zM116 195v-14h4q9 0 9 9v14h-4
q-9 -1 -9 -9zM582 204v-32h5q9 5 14 5v13q0 7 -14 14h-5zM65 190v-13q9 0 9 9zM513 190q0 -7 18 -18v18h-18zM92 163v-13q9 4 14 4v18h-4q-10 -1 -10 -9zM65 132v-14h9q0 7 9 18l-9 5q-9 -2 -9 -9zM587 136v-14q1 -9 9 -9h5v14q0 9 -10 9h-4zM28 113l-5 -18l9 -4h5l5 18
l-10 4h-4zM624 109l-5 -32l9 -4h10v9q0 23 -14 27zM51 77q7 -18 14 -18h9v23l-9 -5h-14zM688 14h5v-9h-5v9z" />
    <glyph glyph-name="l" unicode="l" horiz-adv-x="463" 
d="M284 1516q54 0 81 -65v-5q0 -18 -46 -178l-30 -199l5 -18q-10 -35 -10 -56l10 -5l-16 -30q0 -5 6 -13q-6 -23 -6 -26l6 -31h-6l6 -8q-11 -60 -21 -87q5 -24 5 -35q0 -38 -15 -56q5 -39 5 -48q-10 0 -15 -26q5 0 5 -4q-12 0 -26 -40q11 -17 11 -26q-21 0 -21 -91
q-10 0 -25 -56q-5 0 -5 -5q0 -9 5 -17q-31 -70 -36 -126h-5l5 -9l-10 -82l15 -148h-10q-10 55 -25 74v39l-11 13l-10 -4h-5v30h10v-4l-5 -9l10 -4q0 4 6 34l-11 5q0 -9 -10 -9h-5v18h-5q0 -7 -10 -18v-35h-5l-10 5v-18h20q5 -7 5 -17q0 -5 -5 -13q5 -8 5 -17q-5 0 -5 -5
q13 0 20 -39l-5 -9l10 -43h-10q-46 85 -46 126h5l-20 91l5 26l-5 22q10 0 10 9v13l-10 -5q0 5 -5 5q6 27 20 43l-5 44q0 3 5 26q-10 32 -10 39q1 19 21 39q0 19 -11 35q16 40 16 47v13l-5 26q0 5 20 27v43q0 40 25 69l-10 27q5 8 5 13l-5 8q14 48 21 48l-6 22l16 56
q-5 9 -5 13l5 9q-5 8 -5 13q0 11 20 39q-5 8 -5 13q5 8 5 13q-10 0 -10 9q15 31 15 35l-5 26l5 8q-5 8 -5 18v8q0 7 15 13q0 4 -5 26q0 18 15 87l-5 22q14 22 21 74h5l-5 9q0 26 20 39l-5 26q10 100 46 100q36 4 41 4zM136 717v-13h5v13h-5zM70 317v-13q1 -9 10 -9v22h-10z
M70 252q0 -6 15 -13v22h-5q-10 -2 -10 -9zM126 43h5v-4l-5 -22h-5q0 15 -5 22z" />
    <glyph glyph-name="m" unicode="m" horiz-adv-x="1111" 
d="M201 1114l18 -4q3 0 27 4q32 -10 32 -17q-7 -56 -18 -56l4 -18q0 -31 -27 -94q0 -17 -41 -164q-9 -69 -18 -95l5 -9q-14 -107 -23 -151h9q0 34 18 48l-4 8v5q0 21 31 94q9 64 37 117q9 0 18 34h4q0 -4 5 -4q13 102 252 280l68 9q18 -50 27 -138q5 0 9 -13q-9 -16 -9 -34
q0 -7 14 -13q-9 -37 -9 -65l9 -4q-8 -26 -14 -26l9 -22l-9 -52q5 -8 5 -12q-10 -74 -19 -74q5 -8 5 -13l-9 -56l4 -17q-18 -24 -18 -108q11 0 27 56h5q0 -30 9 -30q0 5 5 13q-3 17 -14 17q18 35 18 48q0 3 -4 34q7 30 31 43l41 104q0 25 36 86q0 22 9 22q8 -5 18 -5v5
q0 3 -5 34l82 108h4l9 -4q6 36 45 60q0 16 9 26l9 -4h5q6 0 13 21q3 0 59 4q9 -26 9 -77l-5 -9q5 -7 5 -17v-9q0 -30 -9 -47q4 -8 4 -13q0 -4 -4 -35l4 -21q-19 -160 -36 -160v-4l5 -22h-5l-9 5q0 -13 -13 -13v-5l9 -12l9 4h4q0 -12 -13 -39l-9 4h-5l-4 -17l18 -13
q-12 -52 -23 -52q-9 0 -13 -38q4 -9 4 -13q-17 -56 -22 -56l4 -22v-4q0 -5 -13 -61l4 -21q-13 -5 -13 -26l4 -22q-4 0 -4 -4q4 0 4 -4q-10 0 -13 -30l4 -9q-4 -8 -4 -13q4 -23 4 -26q-4 -17 -18 -17v-9l9 -13v-4h-13v-9h4l14 9h4v-4l-9 -13q5 -9 5 -13q-9 -5 -14 -5v-21
l-4 -9h18l-5 -17v-13q-9 0 -9 -30l14 9q0 -5 4 -5q-4 -4 -9 -56l9 -4q0 -9 -4 -9q4 -76 13 -103l-4 -30l9 -26q-5 -8 -5 -18q5 0 5 -4l-9 -4l4 -9v-8q-9 0 -18 38q-17 0 -36 121q5 17 5 30q-8 14 -14 39q9 0 14 26q-7 0 -14 13q0 4 9 34v9l-13 17q11 0 18 43v5q0 6 -14 13
q0 12 14 38q-5 24 -5 35q0 8 9 22q-9 28 -9 38v9l9 13l-4 30q0 8 13 39q-9 16 -9 34q23 48 23 61q-9 0 -9 8v9q13 0 22 173q9 0 9 8v4l-9 13l14 18q-5 38 -5 47q23 40 23 48q-7 0 -14 12q0 14 5 31q-5 69 -18 69l-32 -18q-35 -27 -41 -56h-13q-5 -7 -5 -17l5 -9
q-12 -47 -27 -60q0 4 -5 4q-6 -17 -13 -17l4 -8v-5q-12 -64 -31 -64q-5 -51 -14 -69v-13q-18 0 -18 -22q5 -13 9 -13q-15 -73 -22 -73q-34 -118 -45 -147l-28 -99l5 -17q-54 -72 -54 -87v-4l4 -17l-13 -9v9h-5v-4l5 -9q0 -20 -59 -60h-4q-14 4 -14 25l5 9q-32 0 -32 35
q-4 0 -9 86l9 17q-4 23 -4 39l9 30v13l-9 13q13 14 31 43l-4 22v4q1 24 13 47l-4 22v4q28 169 40 186l-4 21q0 21 4 43q0 9 -4 9l4 43v69q0 19 -9 35q5 21 9 21q-15 74 -27 74h-4q-65 -42 -95 -91q-24 -20 -72 -108q-20 -31 -32 -108q-17 -26 -36 -125l-22 -64l4 -22
q-14 -29 -14 -47v-9q-10 0 -18 -22l5 -8l-14 -52q5 -8 5 -17l-14 -9l5 -8q-15 -69 -27 -104l4 -9q-31 -80 -40 -125h-9q-63 22 -63 61q-9 0 -23 17q32 45 32 65q0 8 -9 30q6 10 18 112l-9 4q0 -4 -5 -4v9q14 11 14 25q9 0 9 9v9l-14 21q0 14 18 35v4l-4 22h-9v-13h-9
q22 61 22 64l-4 9l-9 -4h-5l14 43v4h-9v13q0 11 13 52l-9 13q5 29 5 47v5l-9 -5q0 5 -5 5q9 14 18 69q0 9 -4 17q13 97 13 112l-4 9q13 36 13 69q-4 8 -4 12q18 8 22 26l-4 18q0 35 22 82q12 0 59 47zM860 937h9v9q-9 -2 -9 -9zM972 760v-8h5v8h-5zM661 592v-17h5v17h-5z
M151 545l-4 -30v-9h9v39h-5zM138 463q4 -9 4 -13l-9 -4l5 -9q-5 -43 -14 -52v-43h5q22 89 22 147q-13 -5 -13 -26zM620 441v-4q2 -9 10 -9v13h-10zM918 424h9v-4h-9v4zM602 402v-4h9v4h-9zM70 355v-13h-9v4q1 9 9 9zM120 333l-5 -25v-5h5l4 17v13h-4zM869 230v-9h4v9h-4z
M43 217h9v-4q-4 -9 -4 -13h-9v4q4 8 4 13zM43 178h9v-8q0 -32 -13 -35v4q3 26 9 26l-5 9v4zM855 -145v-5q5 -7 5 -17h4v9q-4 8 -4 13h-5zM891 -244q12 -3 27 -31v-4h-4q-5 0 -23 30v5zM914 -244h9v-5q0 -8 -9 -8v13z" />
    <glyph glyph-name="n" unicode="n" horiz-adv-x="804" 
d="M561 1117h8l12 -8q1 8 8 8l8 -12q-4 0 -4 -4h20q0 12 8 12q12 -10 16 -56q-15 -27 -28 -108h-4l4 -28v-16l-8 -12l4 -28q0 -7 -8 -32l4 -24v-4q0 -28 -8 -28l4 -8v-12h-12v-12h8v-28q-20 -24 -32 -24v-4q8 -20 24 -20v-16q0 -8 -8 -8l-8 4q-8 -13 -8 -24l12 -8
q-12 -32 -12 -36q4 -28 4 -32q0 -7 -8 -24q8 -20 8 -32h-4q0 -4 4 -4q-3 -28 -8 -28l4 -8q0 -8 -8 -8l-8 4l-4 -8v-12l20 4q-8 -28 -8 -32v-68h-12v-16q1 -8 8 -8q0 4 4 4q0 -4 4 -12q0 -14 -20 -28v-20l16 12h4v-4l-4 -16q12 -32 12 -40l-4 -8q14 -76 40 -76l-8 -20
q27 -34 36 -64l-8 -20q5 -20 12 -20q1 8 8 8h4q8 -1 8 -8v-4q0 -4 -4 -4q6 -16 12 -16l8 4q0 -6 16 -24l-4 -8q0 -11 20 -20q1 8 8 8q0 -12 16 -12q24 0 24 16h8q0 -4 4 -12l-8 -16h8v-12l-24 -20q6 0 12 -12v-4q-6 0 -16 -12q-8 0 -8 8q8 0 8 12l-4 20l-20 -4l8 -12
q-4 -8 -4 -12q-15 12 -28 12l4 -8l-12 -8h-8l4 20v4q0 6 -12 12h-4l-4 -16h-12v16q12 0 12 4q-9 24 -16 24h-12v-4l8 -16l-8 -4q-5 0 -20 20q0 8 12 8v16q0 8 -8 8q-10 0 -12 -16h-8v28q0 8 -8 8l-8 -4q-16 19 -16 40q4 0 4 4q-16 0 -16 16q8 13 8 24q0 6 -16 12q0 -4 -4 -4
q0 4 -4 4l4 8q-12 22 -12 44q6 0 12 12v8q-6 0 -24 12h-4v12q0 17 -4 32l4 16l-12 160l4 20q-4 16 -4 32v24q-16 0 -16 12v4q12 0 12 8v32q-12 0 -12 8q9 24 12 24q-12 23 -12 40q7 0 16 28q0 4 -4 12q4 96 12 180q-4 7 -4 16q3 34 16 52q-16 0 -16 76q4 8 4 12q-8 0 -8 12
h-4q-8 -1 -8 -8q0 -11 8 -24q0 -17 -56 -96q-70 -118 -84 -176q-14 0 -52 -156l4 -8q-8 -15 -20 -84v-4q1 -8 8 -8q-20 -33 -20 -44l4 -16l-8 -4l4 -28v-4q-16 -14 -16 -28l8 -12q-12 -28 -16 -28l4 -8v-12h-4q-8 0 -8 12h-4l-44 -124q-28 -19 -28 -52l-36 -40v8l4 8
q-11 0 -12 20h-8l-12 -8l4 -8q-4 -8 -4 -12h-12q-22 19 -36 60q-8 0 -8 12q0 57 -12 124q0 4 4 4l-8 52l4 8q-9 88 -12 88l4 20v40q0 11 8 24q0 3 -4 24q0 12 8 32q0 4 -4 4q40 276 64 276l-4 20q40 92 40 120q5 0 20 20l-8 20h8q0 -9 24 -20v-8h-8v-4q1 -8 8 -8q0 6 12 12
q20 -14 32 -40q0 -25 -12 -60q0 -4 4 -12q-4 -22 -4 -36q0 -12 4 -28q-4 -15 -4 -32v-16q0 -9 4 -16q-4 -7 -4 -16t4 -44q-4 -8 -4 -12q4 -7 4 -16h8q39 106 72 144q5 36 20 36q0 17 60 92q9 20 12 20l-4 8v8q0 28 32 28q44 69 44 88h12v12q0 11 8 24q16 -4 16 -16l12 8
l-4 20l4 8q-4 8 -4 12l16 12l16 -20q0 4 4 4l-4 8v4q18 0 32 12zM401 925v-12h16v12q0 8 -8 8q-8 -1 -8 -8zM361 837v-8q8 0 8 8v8q-8 -1 -8 -8zM573 801v-8h4v8h-4zM325 573q8 -1 8 -8h-8v8zM537 493q1 -8 8 -8l4 8v8h-4q-8 -1 -8 -8zM253 437h8v8q-8 -1 -8 -8zM513 249
v-20h8l4 16q-4 8 -4 12q-8 -1 -8 -8zM537 221v-8q1 -8 8 -8q0 9 4 16h-12zM513 177q1 -8 8 -8v8h-8zM549 173v-8h4v8h-4zM145 153v-8h4v8h-4zM561 145q8 -25 8 -28h4v8l-4 20h-8zM537 109v-8l4 -20q8 0 8 8q-5 20 -12 20zM573 69v-16h8v16h-8zM81 57v-8h12v16h-4
q-8 -1 -8 -8zM601 57v-20h12v12q0 8 -8 8h-4zM573 25v-20q20 -10 20 -16v-4h4v12q-15 28 -20 28h-4zM605 -11v-8h4v8h-4zM629 -23q0 -12 -8 -12q7 -31 40 -52v4q-8 0 -24 32q8 0 8 8v8q0 6 -12 12h-4zM661 -63v-8h8q0 8 -8 8zM681 -79v-8h8q0 8 -8 8zM677 -103v-4
q4 -12 24 -12h4v4q-4 12 -24 12h-4zM713 -139h4v-8h-4v8z" />
    <glyph glyph-name="o" unicode="o" horiz-adv-x="824" 
d="M506 1142l46 -60q0 -113 -66 -152q-41 -57 -41 -78q17 0 26 -5q0 5 5 14l-5 28q16 0 45 23q21 0 86 69q10 0 31 18h15q71 -20 71 -55v-9q0 -5 -5 -5q0 -11 40 -41q0 -43 -76 -125q0 5 -5 5q0 -25 -10 -41q5 -26 5 -37l-10 -28q10 -15 10 -28q0 -9 -35 -64v-14q1 -9 10 -9
q0 7 15 14q0 -5 5 -5q0 -12 -30 -55v-9h-6q-10 0 -10 14h-10q-15 -36 -15 -51q10 -2 10 -9q-5 -65 -20 -65l-10 5l-10 -14v-9q15 0 15 -9v-14l-56 -83q-25 0 -45 -69q-9 -22 -112 -102q0 -10 -50 -46h-15q-5 0 -5 5q-14 -3 -26 -23l-25 5h-10l-10 -5l5 -9v-5q-38 -9 -46 -9
q-10 12 -10 23l-10 -5q-61 24 -76 37q-6 0 -56 69q5 8 5 19q-1 8 -25 37q10 15 10 27q0 7 -20 14l5 32v9q0 19 -5 37q5 18 5 37v28q25 33 25 50v14q0 11 -5 19l26 55l-5 41q23 0 30 69q5 0 5 5l-5 23q24 0 45 97q22 23 36 60q12 41 76 110q24 19 61 74q12 0 45 50
q84 54 91 65q0 12 41 23q15 23 35 23zM425 838l-20 -46q35 18 35 41l-10 5h-5zM332 743l53 -29l5 9v32h-5q-45 40 -53 -12zM688 746q10 -1 10 -9h-10v9zM308 725q-8 2 -21 -4l-22 -11l-20 -17l-56 -135l-46 -150q-26 -94 -17 -194q3 -35 45 -56l54 -3q130 72 183 181
q66 91 135 317q24 65 3 100q-8 23 -22 28l-16 5q-19 -10 -39 -25l-38 -28q-12 -51 -41 -51q0 -10 -10 -10l-11 5q-9 -5 -15 -5v5l15 23q-5 9 -5 14q-58 43 -56 11zM56 111v-10h5v10h-5zM86 101v-14h5v14h-5z" />
    <glyph glyph-name="p" unicode="p" horiz-adv-x="1010" 
d="M787 1125q40 -22 40 -89q20 0 35 -83q25 -73 25 -104v-37q0 -131 -105 -297q-99 -157 -217 -291q-96 -117 -227 -151h-5q-5 0 -5 5q-29 -26 -106 -42q0 5 -5 5q-5 -15 -10 -15l5 -11v-21q-20 -26 -20 -31q5 -28 5 -47q-22 -1 -60 -172q-35 -94 -61 -260l5 -21
q-5 -28 -5 -47q16 -29 16 -41q0 -13 -26 -99l5 -21q-52 -17 -75 -58h-10l-20 16q-16 -5 -16 -31h-10v21q0 30 -20 52v47q-10 12 -10 20l-15 -10h-5l5 26v5l-5 32q17 65 40 88l-5 26q24 47 51 198q25 44 70 302q25 35 25 84l86 359q15 31 45 172q29 114 56 167v5q5 0 5 -5
q20 8 20 15l-10 21q9 22 30 47q89 -47 91 -57q7 -21 15 -21q143 171 186 198q62 83 121 109q0 37 15 37q27 -5 30 -5q17 10 26 10zM651 832l-13 -14l-15 -7q13 -26 -4 -24q-7 -11 -17 -23q-37 -5 -33 -48q-23 -4 -30 -49q-10 5 -97 -116q-35 -52 -66 -124q-67 -132 -73 -172
l-10 -31l8 -2q45 11 82 17q39 24 78 66q30 36 53 72q87 107 140 194q78 136 78 190q0 56 -16 78q-14 7 -22 12l-21 -7q0 -6 -22 -12z" />
    <glyph glyph-name="q" unicode="q" horiz-adv-x="1000" 
d="M766 1109q71 0 108 -102l12 5q12 -1 12 -11v-6l-30 -45l6 -12q-12 -1 -12 -11v-45q28 -36 30 -46q-6 -11 -6 -17l6 -23q-2 -17 -30 -40q12 -1 12 -11q-40 -29 -48 -62q-12 0 -12 -40l6 -12q-34 -66 -54 -91l6 -11v-11q0 -33 -49 -97q0 -31 -24 -51q6 -11 6 -17
q-22 -44 -30 -85h-6l-18 11l-18 -23l12 -6l12 6l6 -11v-12q-29 -27 -36 -62q6 -10 6 -23q-24 -8 -24 -17q12 -2 12 -11q-6 -27 -36 -52l6 -28q-8 0 -30 -91q-10 0 -30 -102l-24 -12q0 6 -6 6v-23q12 -1 12 -11v-6q-30 -93 -42 -113q12 0 12 -18q-28 -50 -49 -176l6 -11
q-10 -21 -18 -57l6 -34q-12 -55 -12 -63v-45l-18 -23l6 -11q-36 -8 -36 -23q-36 7 -36 17l-12 -6h-18q-9 0 -18 17v6q0 6 6 6q-6 11 -6 17t6 6l-6 28v11l108 307q79 234 79 273q12 0 42 125q16 6 48 165q7 5 42 91v23h-12v6l48 91v22l-12 17q36 26 36 63l-12 23l18 34l-6 40
l6 28q-15 0 -48 -57l-60 -68q-14 -40 -24 -40h-18q0 17 -12 17l-18 -28q6 0 6 -6l12 6h6v-6q-9 -40 -24 -40q0 6 -6 6l6 11l-6 12q-24 -6 -24 -29l24 -11q-9 -23 -31 -34h-6v6q0 5 6 5q-6 17 -12 17q-24 -8 -24 -17v-23h12l12 6v-17q-10 0 -42 -57v6q-19 0 -30 -46h-6
q0 12 -12 12l-24 -40q-42 -37 -42 -51h-6q-6 0 -6 6l-84 -63q-12 0 -12 11h12v12h-18l6 -12h-6q-50 18 -121 86q-36 49 -36 142q61 270 253 472q126 165 277 221q51 29 223 63zM362 671l6 -11q-54 -27 -54 -34q18 0 18 -12q0 -8 -18 -17q-6 0 -6 6q-30 -7 -30 -17v-6
q18 0 18 -11v-6h-6q-12 6 -18 6q0 -7 -30 -29l24 -11q-25 -69 -72 -102v-17h12v-6q0 -11 -36 -17q0 6 -6 6l-7 -29h13l18 12v-12q-31 -90 -31 -136l31 -6l114 63q0 9 54 45q175 206 175 222q4 34 30 34q0 -6 6 -6l-6 -11v-17q9 0 18 23l-6 22q28 57 90 142v6l-12 17v12
q0 8 18 17q2 -12 12 -12h12q0 17 12 17l-6 12v17q16 28 24 28q0 -6 6 -6l-6 -11q6 -10 6 -23l25 17q-7 7 -7 35l31 -6q36 34 36 57q0 20 -18 57q-115 -32 -217 -103q-172 -149 -217 -199zM326 717v-6h12v6h-12zM639 683l-6 -29q2 -11 12 -11q12 0 12 11l-6 29h-12zM284 677
v-6h12v6h-12zM609 631l-12 -17v-11q6 0 18 -6l6 12v11q0 11 -12 11zM675 620v-11h12q0 11 -12 11zM200 580v-5q2 -12 12 -12h6v23q-12 -6 -18 -6zM663 546v-17q12 0 12 11v6h-12zM212 495v-6q12 0 12 12v5q-12 -1 -12 -11zM380 324q9 0 18 17v12q-13 0 -18 -29zM139 296v-6
q12 0 12 12v5q-12 -1 -12 -11zM338 296v-6h6q12 0 12 12v5h-6q-12 -1 -12 -11zM133 273v-23l12 6q-6 11 -6 17h-6zM597 228v-12h6v12h-6zM621 228v-12h6v12h-6zM501 -91v-11h6v11h-6zM489 -131v-11h6v11h-6zM422 -324l-6 -28h12q12 0 12 11v6q0 11 -12 11h-6z" />
    <glyph glyph-name="r" unicode="r" horiz-adv-x="656" 
d="M575 1195q69 -7 69 -32q0 -27 -35 -75v-6h-15q-36 0 -94 -123q-7 0 -89 -96q0 -18 -39 -54q0 -20 -40 -96q-69 -204 -99 -359q-15 -47 -20 -204q-37 -150 -94 -150q-60 44 -60 86q-59 20 -59 75q31 49 45 128q29 38 29 70q0 7 -10 129q5 10 5 16q-15 0 -15 59v10q0 6 5 6
q-14 17 -14 177v26q0 12 -5 22q5 9 5 21v97q14 80 14 102l-5 37q0 20 30 43q45 -36 119 -80l15 -33v-26q-35 -91 -35 -102q5 -38 5 -43q-10 -40 -10 -75v-11q98 186 119 209q153 213 278 252z" />
    <glyph glyph-name="s" unicode="s" horiz-adv-x="668" 
d="M545 1105h14v-7l-7 -10l10 -13l-7 -17q7 -11 7 -21q0 -7 -3 -13q0 -3 3 -3q-8 -55 -50 -183q-6 -108 -30 -122h-7q-17 9 -17 27q0 20 7 82l-7 13q0 3 4 3q-5 71 -20 71q-91 -21 -178 -115q-5 0 -50 -43q18 -15 208 -119q76 -58 76 -88q17 -8 17 -27v-10q0 -39 -27 -118
q0 -13 -23 -61q-4 -1 -40 -54q-97 -91 -151 -115q0 -10 -6 -10l-7 3q-72 -59 -94 -60q0 -5 -16 -17l-7 3q-17 -24 -20 -24q-4 0 -4 4l-40 -31q-8 -10 -43 -30h-10q-20 16 -20 57q-7 0 -7 14q0 4 3 10q-3 18 -3 31v13q0 46 87 169q86 95 161 132q17 13 46 20v-3q35 5 61 23
v-6q-66 -49 -77 -65q-42 -38 -91 -135v-13q94 68 181 179q30 47 30 78q0 34 -164 97q-97 45 -97 71q-7 0 -7 7q0 40 21 78l-4 7l4 17q-7 22 -7 30q10 67 164 230q81 57 130 57h4q54 0 70 -44q0 -4 17 -13q13 34 13 54q3 0 3 10zM271 933l7 -4l6 10v4q-13 -5 -13 -10z" />
    <glyph glyph-name="t" unicode="t" horiz-adv-x="570" 
d="M396 1433q86 -14 86 -40l4 -15q-16 -1 -67 -139l-51 -58l4 -8v-11q0 -10 -16 -10l4 -8l-35 -69q0 -19 -23 -51q4 -8 4 -11q-18 -7 -20 -15v-7q16 -2 16 -11l-24 -41q8 -1 8 -7q-8 -12 -8 -18q10 -7 16 -7q27 0 86 -4q129 41 129 62h8v-4q-71 -84 -102 -91l4 -7v-11
q0 -8 -8 -8q0 15 -8 15h-3v-4l3 -7q-43 -69 -97 -69q-71 -16 -71 -33v-19l8 4h4v-11q0 -16 -16 -29l4 -7v-15q-10 -16 -20 -44q-3 0 -3 -4v-29q-16 -53 -24 -62q4 -6 4 -15q-11 0 -20 -54v-8h-7q0 11 -8 11l-8 -11q0 -4 4 -11q-12 -41 -24 -102q-4 0 -4 -4v-11
q-11 -99 -11 -109l4 -8l-4 -14q0 -84 35 -84q35 -4 35 -8l47 11v-3l75 33h3q4 0 4 -4l47 33q6 0 98 84v-4l-31 -62q0 -21 -31 -55q0 -5 -8 -14l-8 3h-8q-3 -18 -12 -18v11h-7q-8 0 -8 -11l4 -7q0 -28 -71 -66q-8 0 -31 -22q-4 0 -4 4q-18 -11 -24 -11q-4 0 -11 3
q-30 -3 -40 -7l-23 4h-12v3l12 19v7h-27l-16 -11q-6 0 -16 15v3l8 -3h12v7h-16l-8 -4q-18 43 -23 44q-4 0 -4 4v3q0 4 4 4q-11 23 -20 91l8 15q-6 0 -16 15q4 11 8 11l-4 7v4l4 18q-8 0 -8 7v8q0 25 8 40q-8 0 -8 11l8 25l-4 15q23 169 36 186q-8 0 -8 8q15 15 27 91
q9 0 24 70q10 5 27 51q0 22 -63 25q-4 7 -4 11h-23l-12 8l-8 -4q-16 0 -31 25q0 21 24 26q1 8 19 15q7 -4 16 -4h4v4l-8 11h4l12 -8q103 30 133 30q43 85 58 149q10 5 28 81q9 2 23 80q24 72 32 84v8q0 85 51 124zM39 837v-4h8v4h-8zM317 823v-11h16v7l-4 7q-8 -3 -12 -3z
M153 424h8v-15h-8v15zM102 227v-8h4v8h-4zM309 88q2 -8 8 -8h4q6 0 12 15l-8 4q-16 -6 -16 -11zM290 73v-11q1 -7 8 -7q8 0 8 7v4q0 7 -8 7h-8zM259 62v-7q7 3 11 3v8q-7 -4 -11 -4zM172 22q4 0 12 -4l4 8v7h-4q-6 0 -12 -11z" />
    <glyph glyph-name="u" unicode="u" horiz-adv-x="1005" 
d="M376 1109h6q0 -8 53 -64l6 -21q-77 -157 -137 -304q-13 -68 -36 -99q-15 -64 -18 -97q-40 -51 -79 -117l-32 -115q-20 -176 110 -26q71 92 107 188q23 60 71 123q62 89 56 136q16 26 25 49l15 36q14 28 90 141q56 85 94 112l24 -22q0 59 18 59h11v-11q0 -5 -6 -5
q6 -10 6 -16h18v10l-6 27q9 0 18 16q112 0 112 -58q12 -76 12 -107v-111q0 -12 -6 -22l6 -10q-6 -57 -12 -69q6 -10 6 -22q0 -8 -12 -42l6 -21q-12 -40 -12 -48q6 -28 6 -32q-12 -40 -12 -48q0 -5 6 -5q-17 -118 -35 -181l6 -21l-30 -191v-6l6 -10q0 -6 -6 -6
q12 -139 30 -175h-6l6 -11v-5h-12v-11q2 -10 12 -10v10h6q8 0 17 -16q-11 -1 -11 -10q11 -2 11 -11l-11 -16l11 -16v-21l-11 -16q-54 20 -54 37l-11 -5q-48 57 -48 69l12 -5h12v16q0 7 -18 16q0 -16 -12 -16h-5q0 15 -36 90q0 16 -29 181q0 4 6 32q-12 19 -12 42v5
q0 11 17 11v16q-17 0 -17 11v31q2 11 12 11q-12 19 -12 48l12 37q0 4 -6 32l11 48l-5 21q5 39 11 48q0 5 -6 5q18 105 18 144v5q18 19 18 37q-12 0 -12 16q18 50 18 53q-12 0 -12 16q0 14 12 53q-12 22 -12 32h-6q0 -6 -47 -79v-16q-32 0 -59 -96v-16h-6l-12 5
q-20 -85 -59 -138h-6l-12 5q0 -12 -18 -42l6 -11q-4 -43 -47 -95q0 -31 -29 -43q0 -21 -54 -106q-46 -100 -141 -186q-69 -96 -113 -96q-106 0 -106 133q0 76 95 361q76 196 171 413q54 158 94 188zM560 679v-11h5v11h-5zM725 -7v-5q8 0 18 16h-6q-12 -2 -12 -11zM796 -129
q6 -11 6 -16q-6 0 -6 -6l18 -10q11 0 11 10v16l-11 16q-18 -5 -18 -10zM843 -172q2 -10 12 -10q8 0 18 16l-12 5h-6q-12 -2 -12 -11z" />
    <glyph glyph-name="v" unicode="v" horiz-adv-x="705" 
d="M660 1203l-23 -68l5 -9l-19 -47q0 -4 5 -13q0 -18 -41 -110q-129 -339 -129 -350l-105 -333q-21 -35 -41 -90q-60 -102 -64 -128q-25 0 -33 -51l-22 -4v4l-10 -4q-36 5 -36 17q4 0 4 4q-23 0 -64 47q-23 54 -23 73q5 13 9 13l-4 8q0 21 9 21l-5 9v17q2 9 10 9l-5 21
q0 4 5 4q-10 49 -10 60h5l-5 8v5q0 40 -4 81l4 30q-9 30 -9 47q0 4 5 12q-8 31 -19 214q-4 0 -4 21q0 3 4 26q-9 32 -9 34q5 12 9 12l-13 26l4 26q-9 0 -9 8q0 4 5 4q-14 29 -14 39l5 8q-28 63 -28 73q0 61 46 81l27 -4q32 25 37 25q26 0 46 -30q55 0 55 -42v-43q0 -4 -5 -4
l5 -9v-25q0 -37 9 -56q-5 -23 -5 -38q0 -14 5 -21q-27 -410 -50 -410v-9q0 -4 4 -12q-4 -28 -14 -43q5 -23 5 -34l-5 -17q45 63 161 371q70 158 142 264q0 24 188 282h9z" />
    <glyph glyph-name="w" unicode="w" horiz-adv-x="1033" 
d="M1078 1396v-4q-36 -93 -77 -164l5 -9v-13q-36 -70 -36 -80v-13q-23 0 -23 -17l5 -9q0 -27 -14 -27l5 -31v-4q0 -21 -31 -66l4 -18q-18 -71 -40 -71l4 -44q-7 -35 -13 -35l4 -9v-5h-4l-14 9q-9 -14 -9 -22q5 -31 5 -35q-9 -18 -9 -31q6 -18 13 -18q-15 -46 -45 -75
q0 -6 14 -13q-11 -75 -32 -75l9 -18q-3 -34 -49 -84l9 -13q0 -14 -36 -89q0 -23 -14 -26l5 -9v-4q-42 -48 -77 -133q-21 -34 -26 -35q-26 -58 -54 -58q-23 -27 -23 -39l-9 -5h-4q-9 0 -9 13l-9 -4l4 -9q-9 -14 -9 -22h-9q-2 0 -22 18q-9 -5 -14 -5q-31 35 -31 53h4l14 -9
l4 18l-9 5l-13 -9q0 4 -5 4l9 18q-9 18 -9 26h-9l-18 -13h-4v13q10 22 13 22q-13 36 -13 40l31 58q0 13 -18 13v22l32 53l-9 13q0 5 4 5l-4 9l18 26l-5 9v9q0 9 18 70l9 -4h5q0 9 4 9q-4 8 -4 17h-5v-8h-9q0 10 -4 17q22 38 22 45l-4 22q8 44 13 44l-4 9q4 28 13 48
q-4 8 -4 18q9 0 13 49q11 0 27 119q5 0 5 13h-9q0 -18 -23 -26q-4 -18 -18 -18q9 -11 9 -18q-7 -37 -36 -66v-40q-22 -40 -31 -75l4 -9q-9 -22 -9 -35q5 -8 5 -18l-23 5q0 -18 -9 -18q9 -15 9 -27q0 -10 -13 -39q4 -8 4 -18l-9 -4q0 8 -9 8h-4q0 -13 -9 -13q0 -3 4 -26
q-9 -40 -9 -58v-9h-4l-14 9l-9 -17q18 -5 18 -27q-9 0 -18 -18l5 -22v-9h-5l-22 5l-9 -18h9q0 -47 -76 -119q0 -5 -5 -13q5 0 5 -5l-9 -4q-5 8 -5 13q-6 0 -27 -27q5 -7 5 -17h-5l-9 4l-22 -40l-5 31q-51 -66 -76 -66h-5q-22 13 -22 27q4 13 4 35q-22 0 -22 13l4 9
q-9 16 -9 40l5 22q-8 0 -27 57q28 31 36 93q4 0 4 5q0 10 -4 17q18 43 36 186q6 2 18 79h4l-4 9v5q0 8 13 8q0 4 -4 27q0 20 13 40v40q7 44 18 44l-4 17q18 112 36 137q-5 9 -5 14l5 8l-5 9q23 32 32 124q-5 9 -5 13l5 9l-5 9q7 18 14 18q0 -7 31 -40v-22q0 -5 -4 -5
q4 -6 4 -26h5q3 0 22 22h5v-4q-23 -37 -23 -67h9v-13q-12 -35 -27 -35v-5l9 -13q-20 -64 -36 -80v-13q8 0 32 31v-4l-32 -80q9 -24 9 -26q-18 -9 -18 -27q7 0 14 -13v-18q0 -9 -9 -9l-5 9l9 5q-7 17 -13 17l-18 -13q0 4 -5 4v-4q14 -17 14 -40v-13l-14 -18l5 -22l9 5h13
l-4 -27h-5q-9 0 -9 18h-4q-13 -63 -32 -80l9 -4q18 17 18 35h5l13 -9q-45 -55 -45 -101l5 -9q-15 -53 -27 -53v-13l9 4h9v-4q-27 -50 -27 -102q-5 0 -5 -9h5q77 68 166 256q11 9 117 239l76 141q-4 38 -4 62q7 0 18 18l-5 44q14 21 50 40q0 13 27 26h4l9 -4l-4 -9v-13h4
q9 0 14 49l9 4q2 -22 27 -22l-5 9v4q0 10 49 18l5 -9l9 4h4q27 -16 27 -39q-4 0 -4 -5q4 0 4 -4q-6 0 -13 -13v-5q18 0 18 -9q-3 -13 -23 -35q0 -22 14 -22q-1 -20 -18 -40l4 -31h-13v9h-9q-14 -4 -14 -27l14 -8h4l14 8h4v-26q-13 0 -13 -13h-27q0 -10 -5 -18q5 0 5 -4
q-23 -27 -31 -27q0 -6 13 -13h4q11 0 18 35h9l9 -4q-9 -28 -22 -49l4 -22q0 -22 -27 -57l5 -27q0 -11 -49 -146q4 -7 4 -17h-9v13q-6 0 -13 -13v-18h9q0 13 9 13l4 -9l-4 -22q9 0 9 13l9 -4h4v4h-9v5q27 33 27 53v13q22 0 22 44q3 26 36 71q0 20 54 124q0 50 45 79
q0 22 18 22v23q0 28 45 83l18 40l45 80l27 57q57 112 153 230zM916 1082l-4 -17q9 0 9 13v4h-5zM530 1047v-9q0 -6 13 -13v4q-4 8 -4 18h-9zM912 1007q0 -6 13 -13q0 13 4 13q-4 7 -4 27q-13 -5 -13 -27zM503 1029v-13q9 0 9 9v4h-9zM530 1020v-4h9v4h-9zM233 1003v-9h5v9
h-5zM202 972v-18h4l5 18h-9zM673 967q0 -13 -13 -13v-13h4q7 0 18 18v8h-9zM880 906l9 -5l5 40q-14 -3 -14 -35zM624 923v-13h9q0 15 4 22h-4q-9 -1 -9 -9zM525 897v-9h5v9h-5zM853 892q0 -4 -4 -13h13q-4 9 -4 13h-5zM646 861v-4h9v13q-9 -1 -9 -9zM624 857v-5h9q0 5 4 14
h-4q-9 -2 -9 -9zM849 830v-13h4q9 0 9 9q-4 9 -4 13q-9 -1 -9 -9zM458 769v-14h13v22h-4q-9 -1 -9 -8zM170 742v-22q18 6 18 40v4q-6 0 -18 -22zM431 751v-13q9 0 9 8v5h-9zM615 751v-13q1 -9 9 -9h9q0 10 4 17zM597 698q14 4 14 26q-14 -4 -14 -26zM422 680l13 -9l9 14v4
q0 9 -9 9q-6 0 -13 -18zM817 685v-5q2 -9 9 -9q9 0 9 9v5q0 8 -9 8q-9 -1 -9 -8zM390 587q5 -8 5 -13q9 0 9 9v13h-5q-9 -1 -9 -9zM579 587v-13h5v13h-5zM363 508q0 -5 -4 -5q4 -8 4 -13h9v9q0 9 -9 9zM148 446h4v-9q0 -9 -9 -9h-4v9q1 9 9 9zM327 406q0 -6 14 -13v4
q0 9 -9 9h-5zM453 406v-17h9v17h-9zM134 375h14v-4q0 -9 -9 -9h-5v13zM125 309h9v-9q0 -6 -13 -13v4q4 8 4 18zM269 212l9 -5v14q-9 -2 -9 -9zM166 185v-9q6 0 13 18h-4q-9 -1 -9 -9zM238 194l-5 -18q7 0 14 14v4h-9zM197 168q0 -10 -4 -18l9 -5v23h-5zM399 154v-4
q2 -9 9 -9l5 9l-9 4h-5zM44 128l-4 -9v-4h13v4q0 9 -9 9zM143 123q-13 -31 -13 -44l9 -4h9v35l4 9zM76 84l9 -5h4l5 18h-5q-6 0 -13 -13zM103 62v-5q1 -9 9 -9l9 14q-5 8 -5 13q-6 0 -13 -13zM80 31l9 -5v13q-9 -1 -9 -8zM125 17h9v-4h-9v4z" />
    <glyph glyph-name="x" unicode="x" horiz-adv-x="845" 
d="M837 1292v-4q-76 -115 -76 -132l-32 -44q-8 -1 -8 -8v-20q-20 -3 -20 -20l4 -20h-4l-8 4q0 -40 -48 -100q0 -16 -20 -28l4 -8q-38 -54 -164 -292l-20 -32q56 -151 100 -292q17 -32 48 -132q5 0 32 -56q10 -27 48 -84v-4h-4q-47 60 -56 60v-8q16 -26 32 -64l-12 8v-4
q9 -24 16 -24h12l4 -20h-8q-70 65 -164 212q-83 143 -148 228l-184 -312q-44 -76 -112 -100h-4q-48 8 -48 60v4q0 46 68 228q53 158 164 324q-158 311 -160 392q-6 52 -52 92v8q0 6 12 12h32q0 10 60 48h8q8 0 60 -24q31 0 44 -52v-8q0 -9 -4 -16q20 -33 20 -44q0 -4 -4 -4
q19 -52 48 -100q31 -113 56 -136q111 164 408 480h4q0 -8 8 -8q0 -8 -8 -8l-8 4q-8 -16 -12 -16q8 -13 8 -24h4q74 84 84 84zM721 1200v-8h12v-4l-4 -8h4q8 0 8 12q-6 16 -12 16q-8 -1 -8 -8zM693 1132q0 -4 -4 -12h8q0 4 4 12h-8zM633 1104v-4q8 0 8 8v4q-8 -1 -8 -8z
M669 1096v-8h4v8h-4zM645 1056v-4h8v12q-8 -1 -8 -8zM593 1048v-8h4v8h-4zM665 1012v-12q8 0 8 8v4h-8zM589 80q6 -16 12 -16v4q-4 8 -4 12h-8zM609 48v-4q6 -16 12 -16v4q-6 16 -12 16z" />
    <glyph glyph-name="y" unicode="y" horiz-adv-x="865" 
d="M321 1122q18 -7 28 -24q0 -79 -52 -309q-12 -26 -109 -552l-4 -32q72 47 172 275q93 156 115 297q112 186 126 235q8 0 10 10l-2 9l2 3l5 3h-3h4q5 0 28 44l32 21q0 8 44 12q0 4 4 4h8q6 0 16 -16l-4 -8l4 -9l-4 -28q12 -38 12 -40q-8 -2 -8 -9v-52q0 -15 -4 -37
q4 -7 4 -16q-6 0 -12 -16q8 -2 8 -8q-52 -219 -96 -313l-195 -617q-30 -69 -105 -236q-31 -35 -54 -66l-16 -18l-11 -12l-12 -5l-7 -16l-8 -4l-7 -9q-8 4 -13 6q-7 -37 -16 -37l-8 4q-12 -42 -44 -69q-21 -21 -48 -65q-9 0 -16 -40q-22 -3 -60 -49q-10 -8 -20 -8l4 -8
q0 -8 -24 -17l4 -8q-24 -44 -56 -44q-16 -29 -20 -29h-20l-28 4q0 -5 -24 -16q0 4 -4 4v-16h-4q-36 0 -36 37q-9 0 -28 60q0 15 4 37q-4 8 -4 12h8q3 -49 20 -49v4q-4 8 -4 13h8q8 -22 8 -25h4v4q-12 38 -12 69v49h4l8 -4q13 32 20 32l8 -4v41h-4q0 -16 -8 -16l-4 8
q28 31 28 73q28 48 28 65h4l8 -4q6 40 16 40h4q0 -9 -24 -69v-57l-8 -12v-4q16 -1 16 -28h4l8 4l-4 8l4 20q-4 16 -4 33h8l4 -17h4v17q0 12 -4 12l4 20v45h-8v8l20 4q0 -10 8 -20v-4h-4l-8 4q0 -8 -4 -8q7 -12 12 -49h4q8 70 8 113h4q11 -20 16 -20q7 0 12 -28l-12 -20
l12 -17v-28l-4 -20q11 0 28 -94q9 0 24 -24l12 -8q0 21 36 40q0 7 48 61q0 21 32 21v4h-8q0 11 88 142q0 14 19 21q4 11 14 23l82 189q66 134 201 708q42 162 44 183l-32 -91q-47 -67 -76 -211l-35 -79q-17 -40 -46 -103q-14 -33 -30 -66q-23 -15 -49 -42q-37 -39 -115 -101
q-43 -27 -74 -67q-21 -25 -26 -25l-28 4q-28 -4 -48 -4q-28 47 -28 56q9 39 14 65l-6 15q-1 21 13 22l70 347l132 502q5 0 16 25q-4 22 -4 36q43 44 76 49zM268 -393v-5h8v5h-8zM-48 -320h8q8 -1 8 -8v-4h-4q-8 4 -12 4v8zM-48 -385v-20q1 -8 8 -8v20q0 8 -8 8zM-52 -450
q4 -8 4 -12h8l-4 20q-8 -1 -8 -8zM-52 -499v-4q0 -29 12 -32l4 8v12q-8 10 -8 16h-8zM-92 -535l4 -20h8v28h-4q-8 -1 -8 -8zM-132 -539q-7 4 -16 4l4 -28v-17h8l-4 8v17l20 16v8zM-60 -543v-16q0 -22 16 -29h12q0 7 -16 45h-12zM-124 -572q4 -24 12 -24q0 4 4 12
q-4 16 -4 29q-10 0 -12 -17zM-196 -567h8v-5l-4 -20h-8v4zM-144 -588q0 -4 -4 -12l8 -20l-4 -8q0 -5 4 -12l-4 -17v-8h4q0 20 8 20q-4 8 -4 13q0 3 4 32q-4 8 -4 12h-8zM-88 -592l-4 -8q4 -8 4 -12q6 0 12 12v4q-4 0 -12 4zM-64 -620v-4q0 -6 12 -12q0 3 4 24q-10 -8 -16 -8
zM-168 -616q0 -9 -4 -16l8 -4v20h-4zM-116 -616q0 -4 -4 -12q6 -17 12 -17h4v17q0 6 -12 12zM-196 -645v-4l4 -20h4l4 16zM-112 -677l-4 -8l8 -4h4v4q0 8 -8 8zM-220 -730v-4q4 -8 4 -12h8q-4 7 -4 16h-8zM-192 -766v-8h4v8h-4z" />
    <glyph glyph-name="z" unicode="z" horiz-adv-x="1009" 
d="M829 1130l8 -4q8 4 12 4q61 -29 61 -66q0 -47 -53 -71q0 -7 -77 -83l-171 -191q-89 -90 -247 -291q-21 -7 -57 -58q-8 0 -29 -29q-17 0 -77 -71v-4q250 122 488 137q0 7 211 17v-9q-45 -3 -45 -16q4 0 4 -4q-12 0 -12 -30q-6 0 -12 17q4 0 4 4h-12q0 -6 -8 -16q8 -2 8 -9
q-45 -23 -45 -29v-12l-12 8q-10 -13 -45 -33l-8 4q-76 -37 -130 -54q-7 -13 -362 -187q-88 -54 -125 -54h-17q-73 13 -73 42q4 8 4 12q-6 0 -12 12q16 50 16 54v5l-12 16q0 48 94 92q192 234 276 394q106 175 280 399l-45 -10q-84 -6 -193 2q-115 2 -281 25l-24 33
q210 36 403 39l130 1q102 14 185 14zM821 399v-8h8q8 0 8 8h-16zM203 316h4q7 0 16 16h-8q-6 0 -12 -16zM142 237h8l49 66h-12q-16 -29 -20 -29q-13 0 -25 -37z" />
    <glyph glyph-name="asciitilde" unicode="~" 
d="M915 1363l4 -8q-32 -11 -32 -20l4 -8q-4 -8 -4 -12h4l28 8v-12q-7 0 -24 -12v-4l20 4h4q6 0 20 -28v-4q-38 0 -100 -100q-4 0 -4 -16q8 -1 8 -8q-27 -75 -72 -120q-27 -52 -144 -136q-15 0 -80 -36q-11 0 -84 -40h-24q0 4 -4 4q0 -6 -12 -12q-44 26 -56 60q-32 20 -32 68
q-8 0 -8 20h-8q-97 -116 -128 -116h-16l-24 4q-7 -4 -16 -4q0 28 -48 28v8l28 24h-12q-15 -12 -24 -12v16l24 32h-8l-8 -4q0 4 -4 4q6 17 20 24l-4 8v4q184 198 184 224q62 53 92 60q0 4 4 4v-4l24 12q7 -4 16 -4l8 4q136 -21 136 -76q8 0 8 -40h4q8 0 108 100
q142 95 232 116zM863 1311v-8h4q8 0 8 8v4q-8 -4 -12 -4z" />
    <glyph glyph-name="exclamdown" unicode="&#xa1;" horiz-adv-x="672" 
d="M349 -746l-62 213l-37 192l4 6q-10 0 -25 111l4 5q-6 0 -12 51q4 0 4 3q-4 0 -4 3v88l-4 14q4 0 4 9v2q0 15 -4 26q4 15 4 28v34l4 6h-4q4 72 25 139l-4 6q4 15 4 25v3h8l-4 14v3q4 0 12 3q6 -17 12 -17q-2 -14 -12 -14q12 -17 12 -34q0 -6 -12 -6v-6l8 -8l13 5
q0 -16 4 -19q8 0 8 5v6q0 6 -4 11q4 12 12 20v20h8l5 -17l-5 -6h5l-5 -14q0 -8 9 -17l-4 -25q0 -5 8 -15l-4 -5h4l-4 -14l4 -20q-4 0 -4 -3l16 -48l-4 -6q17 -67 25 -85q0 -2 -4 -17q0 -5 16 -34l-4 -6q16 -46 16 -51q25 -52 37 -93q12 0 83 -244q-4 0 -4 -3q11 0 16 -77
l-4 -5h4q-4 -39 -29 -85q-36 -41 -123 -60q-8 3 -12 3zM283 -3v3h-9v-3h9zM295 65v11l-8 -3q4 -5 4 -8h4zM258 79h4v3q0 6 -8 6h-4v-3q0 -5 8 -6zM246 99v11h-9v-11h9zM291 105v8h-4v-8h4zM270 119v5h-4v-5h4zM274 144v6h-4v-6h4zM307 221h9v-9q0 -4 -9 -5h-4zM262 269h8
q0 -6 4 -11q-5 -17 -12 -17v28zM266 306h8v-6h-8v6zM287 473l4 6h-4q-18 0 -33 -6q-17 12 -37 12q-33 68 -33 124l4 12q-4 4 -4 14v20l4 5h-4q4 36 4 37l-4 14q4 0 4 3q29 -5 29 -20l8 3h12q6 0 21 -28q16 -65 41 -65q19 -59 58 -85q-10 -20 -17 -20q0 -3 4 -3
q0 -15 -49 -28q-7 0 -8 5zM233 720h4q0 -3 5 -9v-2h-9v11z" />
    <glyph glyph-name="cent" unicode="&#xa2;" horiz-adv-x="1139" 
 />
    <glyph glyph-name="ordfeminine" unicode="&#xaa;" horiz-adv-x="648" 
 />
    <glyph glyph-name="macron" unicode="&#xaf;" horiz-adv-x="670" 
 />
    <glyph glyph-name="plusminus" unicode="&#xb1;" 
 />
    <glyph glyph-name="uni00B2" unicode="&#xb2;" 
 />
    <glyph glyph-name="uni00B3" unicode="&#xb3;" 
 />
    <glyph glyph-name="mu" unicode="&#xb5;" horiz-adv-x="1180" 
 />
    <glyph glyph-name="periodcentered" unicode="&#xb7;" horiz-adv-x="508" 
d="M318 868q5 -5 5 -20h6l27 3v-7q-16 0 -16 -7v-3q30 -41 44 -82q0 -43 -83 -96q-19 0 -39 -24q-18 0 -44 -48q6 0 6 -3q-15 0 -23 -27v-14h-11v41q-11 0 -16 -41q-15 0 -17 -17h-11q0 4 6 34q-11 18 -17 75l6 7l-6 21v13q11 9 11 14l-5 24h5l-5 7l16 20v21q21 0 33 34
l-5 7q0 12 44 48q33 11 33 17z" />
    <glyph glyph-name="periodcentered" unicode="&#x2219;" horiz-adv-x="508" 
d="M318 868q5 -5 5 -20h6l27 3v-7q-16 0 -16 -7v-3q30 -41 44 -82q0 -43 -83 -96q-19 0 -39 -24q-18 0 -44 -48q6 0 6 -3q-15 0 -23 -27v-14h-11v41q-11 0 -16 -41q-15 0 -17 -17h-11q0 4 6 34q-11 18 -17 75l6 7l-6 21v13q11 9 11 14l-5 24h5l-5 7l16 20v21q21 0 33 34
l-5 7q0 12 44 48q33 11 33 17z" />
    <glyph glyph-name="uni00B9" unicode="&#xb9;" 
 />
    <glyph glyph-name="ordmasculine" unicode="&#xba;" horiz-adv-x="718" 
 />
    <glyph glyph-name="onequarter" unicode="&#xbc;" horiz-adv-x="1708" 
 />
    <glyph glyph-name="onehalf" unicode="&#xbd;" horiz-adv-x="1964" 
 />
    <glyph glyph-name="threequarters" unicode="&#xbe;" horiz-adv-x="1708" 
 />
    <glyph glyph-name="questiondown" unicode="&#xbf;" horiz-adv-x="748" 
 />
    <glyph glyph-name="Agrave" unicode="&#xc0;" horiz-adv-x="1540" 
 />
    <glyph glyph-name="Aacute" unicode="&#xc1;" horiz-adv-x="1540" 
 />
    <glyph glyph-name="Acircumflex" unicode="&#xc2;" horiz-adv-x="1540" 
 />
    <glyph glyph-name="Atilde" unicode="&#xc3;" horiz-adv-x="1540" 
 />
    <glyph glyph-name="Adieresis" unicode="&#xc4;" horiz-adv-x="1540" 
 />
    <glyph glyph-name="Aring" unicode="&#xc5;" horiz-adv-x="1540" 
 />
    <glyph glyph-name="AE" unicode="&#xc6;" horiz-adv-x="2118" 
 />
    <glyph glyph-name="Ccedilla" unicode="&#xc7;" horiz-adv-x="1399" 
 />
    <glyph glyph-name="Egrave" unicode="&#xc8;" horiz-adv-x="1151" 
 />
    <glyph glyph-name="Eacute" unicode="&#xc9;" horiz-adv-x="1151" 
 />
    <glyph glyph-name="Ecircumflex" unicode="&#xca;" horiz-adv-x="1151" 
 />
    <glyph glyph-name="Edieresis" unicode="&#xcb;" horiz-adv-x="1151" 
 />
    <glyph glyph-name="Igrave" unicode="&#xcc;" horiz-adv-x="657" 
 />
    <glyph glyph-name="Iacute" unicode="&#xcd;" horiz-adv-x="657" 
 />
    <glyph glyph-name="Icircumflex" unicode="&#xce;" horiz-adv-x="657" 
 />
    <glyph glyph-name="Idieresis" unicode="&#xcf;" horiz-adv-x="657" 
 />
    <glyph glyph-name="Eth" unicode="&#xd0;" horiz-adv-x="1518" 
 />
    <glyph glyph-name="Ntilde" unicode="&#xd1;" horiz-adv-x="1554" 
 />
    <glyph glyph-name="Ograve" unicode="&#xd2;" horiz-adv-x="1614" 
 />
    <glyph glyph-name="Oacute" unicode="&#xd3;" horiz-adv-x="1614" 
 />
    <glyph glyph-name="Ocircumflex" unicode="&#xd4;" horiz-adv-x="1614" 
 />
    <glyph glyph-name="Otilde" unicode="&#xd5;" horiz-adv-x="1614" 
 />
    <glyph glyph-name="Odieresis" unicode="&#xd6;" horiz-adv-x="1614" 
 />
    <glyph glyph-name="Oslash" unicode="&#xd8;" horiz-adv-x="1614" 
 />
    <glyph glyph-name="Ugrave" unicode="&#xd9;" horiz-adv-x="1501" 
 />
    <glyph glyph-name="Uacute" unicode="&#xda;" horiz-adv-x="1501" 
 />
    <glyph glyph-name="Ucircumflex" unicode="&#xdb;" horiz-adv-x="1501" 
 />
    <glyph glyph-name="Udieresis" unicode="&#xdc;" horiz-adv-x="1501" 
 />
    <glyph glyph-name="Yacute" unicode="&#xdd;" horiz-adv-x="1233" 
 />
    <glyph glyph-name="Thorn" unicode="&#xde;" horiz-adv-x="1120" 
 />
    <glyph glyph-name="germandbls" unicode="&#xdf;" horiz-adv-x="1251" 
 />
    <glyph glyph-name="agrave" unicode="&#xe0;" horiz-adv-x="922" 
 />
    <glyph glyph-name="aacute" unicode="&#xe1;" horiz-adv-x="922" 
 />
    <glyph glyph-name="acircumflex" unicode="&#xe2;" horiz-adv-x="922" 
 />
    <glyph glyph-name="atilde" unicode="&#xe3;" horiz-adv-x="922" 
 />
    <glyph glyph-name="adieresis" unicode="&#xe4;" horiz-adv-x="922" 
 />
    <glyph glyph-name="aring" unicode="&#xe5;" horiz-adv-x="922" 
 />
    <glyph glyph-name="ae" unicode="&#xe6;" horiz-adv-x="1454" 
 />
    <glyph glyph-name="ccedilla" unicode="&#xe7;" horiz-adv-x="905" 
 />
    <glyph glyph-name="egrave" unicode="&#xe8;" horiz-adv-x="909" 
 />
    <glyph glyph-name="eacute" unicode="&#xe9;" horiz-adv-x="909" 
 />
    <glyph glyph-name="ecircumflex" unicode="&#xea;" horiz-adv-x="909" 
 />
    <glyph glyph-name="edieresis" unicode="&#xeb;" horiz-adv-x="909" 
 />
    <glyph glyph-name="igrave" unicode="&#xec;" horiz-adv-x="514" 
 />
    <glyph glyph-name="iacute" unicode="&#xed;" horiz-adv-x="514" 
 />
    <glyph glyph-name="icircumflex" unicode="&#xee;" horiz-adv-x="514" 
 />
    <glyph glyph-name="idieresis" unicode="&#xef;" horiz-adv-x="514" 
 />
    <glyph glyph-name="eth" unicode="&#xf0;" horiz-adv-x="1139" 
 />
    <glyph glyph-name="ntilde" unicode="&#xf1;" horiz-adv-x="1108" 
 />
    <glyph glyph-name="ograve" unicode="&#xf2;" horiz-adv-x="1010" 
 />
    <glyph glyph-name="oacute" unicode="&#xf3;" horiz-adv-x="1010" 
 />
    <glyph glyph-name="ocircumflex" unicode="&#xf4;" horiz-adv-x="1010" 
 />
    <glyph glyph-name="otilde" unicode="&#xf5;" horiz-adv-x="1010" 
 />
    <glyph glyph-name="odieresis" unicode="&#xf6;" horiz-adv-x="1010" 
 />
    <glyph glyph-name="oslash" unicode="&#xf8;" horiz-adv-x="1010" 
 />
    <glyph glyph-name="ugrave" unicode="&#xf9;" horiz-adv-x="1059" 
 />
    <glyph glyph-name="uacute" unicode="&#xfa;" horiz-adv-x="1059" 
 />
    <glyph glyph-name="ucircumflex" unicode="&#xfb;" horiz-adv-x="1059" 
 />
    <glyph glyph-name="udieresis" unicode="&#xfc;" horiz-adv-x="1059" 
 />
    <glyph glyph-name="yacute" unicode="&#xfd;" horiz-adv-x="868" 
 />
    <glyph glyph-name="thorn" unicode="&#xfe;" horiz-adv-x="1010" 
 />
    <glyph glyph-name="ydieresis" unicode="&#xff;" horiz-adv-x="868" 
 />
    <glyph glyph-name="quotedblleft" unicode="&#x201c;" horiz-adv-x="746" 
d="M459 1029q-50 0 -72 60q-11 1 -11 9v9q0 17 5 42q-11 18 -11 32q27 131 50 142q83 97 83 221v37q0 6 17 14l11 -5q6 8 6 23h11q53 0 72 -248q-16 -19 -22 -97q-6 0 -6 -4l6 -28q-17 -64 -45 -87q17 0 17 -5q-11 -41 -11 -60v-4l5 -23l-11 -5l-16 9q-39 -14 -39 -23
l-11 -4h-6l-11 4q-2 -9 -11 -9zM180 1025q-50 0 -72 60q-11 1 -11 9v9q0 17 5 42q-11 18 -11 32q27 131 50 142q83 97 83 221v37q0 6 17 14l11 -5q6 8 6 23h11q53 0 72 -248q-16 -19 -22 -97q-6 0 -6 -4l6 -28q-17 -64 -45 -87q17 0 17 -5q-11 -41 -11 -60v-4l5 -23l-11 -5
l-16 9q-39 -14 -39 -23l-11 -4h-6l-11 4q-2 -9 -11 -9z" />
    <glyph glyph-name="quotedblright" unicode="&#x201d;" horiz-adv-x="779" 
d="M285 1605q50 0 72 -60q11 -1 11 -9v-9q0 -17 -5 -42q11 -18 11 -32q-27 -131 -50 -142q-83 -97 -83 -221v-37q0 -6 -17 -14l-11 5q-6 -8 -6 -23h-11q-53 0 -72 248q16 19 22 97q6 0 6 4l-6 28q17 64 45 87q-17 0 -17 5q11 41 11 60v4l-5 23l11 5l16 -9q39 14 39 23l11 4
h6l11 -4q2 9 11 9zM564 1609q50 0 72 -60q11 -1 11 -9v-9q0 -17 -5 -42q11 -18 11 -32q-27 -131 -50 -142q-83 -97 -83 -221v-37q0 -6 -17 -14l-11 5q-6 -8 -6 -23h-11q-53 0 -72 248q16 19 22 97q6 0 6 4l-6 28q17 64 45 87q-17 0 -17 5q11 41 11 60v4l-5 23l11 5l16 -9
q39 14 39 23l11 4h6l11 -4q2 9 11 9z" />
    <glyph glyph-name="bullet" unicode="&#x2022;" horiz-adv-x="1024" 
d="M677 830q68 0 77 -102l-32 -122q0 -10 -77 -83v-7q6 -34 6 -38q0 -37 -90 -45q0 -9 -51 -13q-224 61 -224 141q58 85 58 102q106 96 141 141q66 20 121 20v-7q25 13 71 13z" />
    <glyph glyph-name="ellipsis" unicode="&#x2026;" horiz-adv-x="1603" 
d="M863 176q5 -5 5 -20h6l27 3v-7q-16 0 -16 -7v-3q30 -41 44 -82q0 -43 -83 -96q-19 0 -39 -24q-18 0 -44 -48q6 0 6 -3q-15 0 -23 -27v-14h-11v41q-11 0 -16 -41q-15 0 -17 -17h-11q0 4 6 34q-11 18 -17 75l6 7l-6 21v13q11 9 11 14l-5 24h5l-5 7l16 20v21q21 0 33 34
l-5 7q0 12 44 48q33 11 33 17zM310 179q5 -5 5 -20h6l27 3v-7q-16 0 -16 -7v-3q30 -41 44 -82q0 -43 -83 -96q-19 0 -39 -24q-18 0 -44 -48q6 0 6 -3q-15 0 -23 -27v-14h-11v41q-11 0 -16 -41q-15 0 -17 -17h-11q0 4 6 34q-11 18 -17 75l6 7l-6 21v13q11 9 11 14l-5 24h5
l-5 7l16 20v21q21 0 33 34l-5 7q0 12 44 48q33 11 33 17zM1393 187q5 -5 5 -20h6l27 3v-7q-16 0 -16 -7v-3q30 -41 44 -82q0 -43 -83 -96q-19 0 -39 -24q-18 0 -44 -48q6 0 6 -3q-15 0 -23 -27v-14h-11v41q-11 0 -16 -41q-15 0 -17 -17h-11q0 4 6 34q-11 18 -17 75l6 7
l-6 21v13q11 9 11 14l-5 24h5l-5 7l16 20v21q21 0 33 34l-5 7q0 12 44 48q33 11 33 17z" />
    <glyph glyph-name="afii61352" unicode="&#x2116;" horiz-adv-x="2271" 
 />
    <glyph glyph-name="trademark" unicode="&#x2122;" horiz-adv-x="1497" 
 />
    <glyph glyph-name="uniF001" unicode="&#xf001;" horiz-adv-x="1073" 
 />
    <glyph glyph-name="uniF001" unicode="&#xfb01;" horiz-adv-x="1073" 
 />
    <glyph glyph-name="uniF002" unicode="&#xf002;" horiz-adv-x="1081" 
 />
    <glyph glyph-name="uniF002" unicode="&#xfb02;" horiz-adv-x="1081" 
 />
    </font>
</defs>
</svg>
